<svg id="Capa_1" enable-background="new 0 0 512 512" height="512" viewBox="0 0 512 512" width="512" xmlns="http://www.w3.org/2000/svg"><circle cx="266.56" cy="256" r="45"/><path d="m39.624 360.724c.568 8.21 2.186 16.002 6.096 22.776 21.396 37.064 76.725 36.097 134.722 20.933 17.343 61.761 46.346 107.567 86.118 107.567 39.631 0 68.571-45.482 85.937-106.901 10.342 2.607 20.24 4.495 29.861 5.986 2.888 11.338 10.122 21.55 21.063 27.859 21.601 12.458 49.118 4.92 61.479-16.479 4.065-7.05 5.812-14.722 5.837-22.304 6.824-4.594 12.757-9.895 16.663-16.661 21.632-37.491-7.046-84.968-49.265-127.498 42.235-42.552 70.886-90.031 49.265-127.502-19.792-34.316-72.795-37.132-134.685-21.456-2.917-10.278-6.229-20.81-9.754-29.903 8.366-8.176 13.599-19.545 13.599-32.141 0-24.814-20.186-45-45-45-8.119 0-15.637 2.329-22.22 6.107-7.401-3.617-14.962-6.107-22.78-6.107-39.67 0-68.626 45.568-85.986 107.082-61.947-15.716-115.022-12.923-134.854 21.418-21.579 37.397 6.903 84.734 48.951 127.183-7.493 7.707-14.145 15.394-20.295 23.038-11.157-3.151-23.578-2.042-34.692 4.334-21.474 12.408-28.857 39.976-16.464 61.495 4.067 7.026 9.844 12.365 16.404 16.174zm421.789-217.224c13.092 22.656-10.721 57.828-45.209 91.74-15.416-13.627-31.631-26.334-47.38-37.681-1.974-21.454-5.052-42.015-9.086-61.315 52.523-13.221 91.445-10.476 101.675 7.256zm-90.24 93.785c7.59 5.949 15.141 12.209 22.557 18.6-7.388 6.412-14.912 12.7-22.515 18.695.183-6.2.344-12.402.344-18.58.001-6.286-.206-12.495-.386-18.715zm-2.446 77.236c15.851-11.417 32.164-24.207 47.659-37.916 34.391 33.627 58.394 68.756 45.027 91.91-.423.732-1.194 1.306-1.723 1.99-3.177-3.642-6.837-6.949-11.256-9.505-21.58-12.427-49.053-5.052-61.479 16.465-.619 1.075-.972 2.217-1.494 3.32-8.445-1.34-16.767-2.496-25.851-4.785 4.098-19.609 7.136-40.305 9.117-61.479zm-171.636 22.102c14.724 9.28 20.799 12.59 34.34 19.869-9.961 4.034-19.72 7.698-29.145 10.833-1.999-9.744-3.706-20.041-5.195-30.702zm69.469 145.377c-20.565 0-42.49-33.607-57.301-86.056 19.614-6.511 38.859-14.196 56.704-22.189 19.598 9.034 38.97 16.663 57.724 22.826-14.81 52.083-36.645 85.419-57.127 85.419zm64.338-114.963c-9.505-3.171-19.08-6.751-28.911-10.746 13.11-6.903 21.14-11.532 34.041-19.664-1.474 10.552-3.157 20.758-5.13 30.41zm5.229-191.598c-12.44-7.842-20.035-12.259-34.38-19.948 9.963-4.032 19.722-7.694 29.145-10.825 2.018 9.91 3.778 20.16 5.235 30.773zm-69.567-145.439c.866 0 1.741.379 2.609.494-1.573 4.576-2.609 9.402-2.609 14.506 0 24.814 20.186 45 45 45 1.393 0 2.706-.287 4.067-.412 2.988 7.841 5.828 17.016 8.333 25.842-18.898 6.209-38.198 13.865-57.393 22.652-19.114-8.752-38.335-16.382-57.158-22.579 14.81-52.13 36.658-85.503 57.151-85.503zm-64.27 114.659c9.412 3.131 19.16 6.793 29.11 10.822-16.161 8.661-21.595 11.988-34.303 19.85 1.489-10.651 3.195-20.938 5.193-30.672zm-9.203 68.948c23.941-16.108 46.051-29.066 73.489-42.448 29.526 14.41 49.51 26.362 73.473 43.09.923 13.672 1.511 27.587 1.511 41.75 0 14.363-.562 28.244-1.487 41.708-23.698 16.584-43.526 28.488-73.303 43.026-29.707-14.524-47.043-24.371-73.722-43.008-.925-13.471-1.489-27.358-1.489-41.726.001-14.602.574-28.719 1.528-42.392zm-121.381-70.107c10.217-17.765 49.188-20.508 101.752-7.264-4.039 19.367-7.037 39.791-9.012 60.685-17.39 12.314-33.483 25.122-48.034 38.124-34.205-33.519-58.028-68.49-44.706-91.545zm90.2 131.164c-7.846-6.152-15.657-12.629-23.311-19.25 7.368-6.498 15.128-12.946 23.333-19.318-.211 6.641-.368 13.286-.368 19.904 0 6.205.161 12.437.346 18.664zm-77.207 86.336c21.608-12.479 28.859-40.018 16.465-61.45-.694-1.207-1.599-2.212-2.388-3.331 5.374-6.605 11.129-13.246 17.628-19.926 15.601 13.826 32.03 26.728 47.988 38.22 1.974 21.083 4.988 41.697 9.06 61.232-52.542 13.233-91.496 10.497-101.746-7.231-.434-.756-.544-1.708-.879-2.523 4.752-.926 9.45-2.44 13.872-4.991z"/></svg>