<svg width="203" height="203" viewBox="0 0 203 203" fill="none" xmlns="http://www.w3.org/2000/svg">
<g clip-path="url(#clip0)">
<path d="M177.91 55.377H155.321V54.009C155.311 24.25 131.091 0 101.302 0C71.503 0 47.292 24.25 47.292 54.009V55.377H24.704L11.495 202.614H191.119L177.91 55.377ZM101.302 6.624C120.989 6.624 137.921 18.729 145.063 35.856C135.615 21.719 119.563 12.378 101.302 12.378C83.071 12.378 66.989 21.718 57.532 35.885C64.713 18.729 81.635 6.624 101.302 6.624ZM57.297 55.377C61.703 35.114 79.778 19.892 101.321 19.892C122.903 19.892 140.939 35.114 145.345 55.377H57.297Z" fill="#27DEBF"/>
<path d="M112.492 94.9007L109.476 94.0739C109.088 93.9444 108.705 93.9851 108.333 94.1957C107.96 94.4064 107.708 94.7227 107.579 95.1442L89.4382 157.931C89.3087 158.353 89.3493 158.75 89.56 159.123C89.7707 159.496 90.0864 159.747 90.5085 159.877L93.5238 160.704C93.9128 160.834 94.2939 160.793 94.6668 160.583C95.0398 160.371 95.2913 160.056 95.4206 159.635L113.562 96.8466C113.691 96.4252 113.651 96.0276 113.44 95.6543C113.229 95.2813 112.914 95.03 112.492 94.9007Z" fill="white"/>
<path d="M85.3058 107.157C85.3058 106.736 85.1434 106.363 84.8193 106.039L82.3873 103.607C82.0631 103.283 81.69 103.12 81.2686 103.12C80.8472 103.12 80.4739 103.283 80.1499 103.607L57.4865 126.27C57.1618 126.594 57 126.968 57 127.389C57 127.81 57.1623 128.183 57.4865 128.507L80.1498 151.171C80.4738 151.496 80.8463 151.657 81.2684 151.657C81.6905 151.657 82.0631 151.495 82.3871 151.171L84.8191 148.74C85.1433 148.416 85.3056 148.043 85.3056 147.621C85.3056 147.2 85.1433 146.827 84.8191 146.503L65.7058 127.389L84.8193 108.276C85.144 107.952 85.3058 107.579 85.3058 107.157Z" fill="white"/>
<path d="M145.514 126.27L122.85 103.606C122.526 103.282 122.153 103.12 121.732 103.12C121.31 103.12 120.938 103.282 120.613 103.606L118.182 106.038C117.858 106.362 117.696 106.735 117.696 107.157C117.696 107.579 117.858 107.951 118.182 108.275L137.295 127.389L118.182 146.503C117.858 146.827 117.696 147.2 117.696 147.621C117.696 148.043 117.858 148.416 118.182 148.74L120.613 151.171C120.938 151.496 121.31 151.657 121.732 151.657C122.153 151.657 122.526 151.495 122.85 151.171L145.514 128.508C145.838 128.184 146 127.81 146 127.388C146 126.967 145.838 126.594 145.514 126.27Z" fill="white"/>
</g>
<defs>
<clipPath id="clip0">
<rect width="202.614" height="202.614" fill="white"/>
</clipPath>
</defs>
</svg>
