<?xml version="1.0" encoding="UTF-8" standalone="no"?><!-- Generator: Gravit.io --><svg xmlns="http://www.w3.org/2000/svg" xmlns:xlink="http://www.w3.org/1999/xlink" style="isolation:isolate" viewBox="0 0 115.652 86.66" width="115.652pt" height="86.66pt"><defs><clipPath id="_clipPath_k6ovNkWupMh1RCD1i9BswUtC6rEq4TqM"><rect width="115.652" height="86.66"/></clipPath></defs><g clip-path="url(#_clipPath_k6ovNkWupMh1RCD1i9BswUtC6rEq4TqM)"><g><path d=" M 100.386 73.475 C 108.16 70.81 117.796 52.615 115.229 31.07 C 111.011 -4.312 42.342 -6.565 15.838 9.779 C -10.666 26.123 2.339 47.652 10.303 57.605 C 21.257 71.294 38.276 94.766 100.386 73.475 Z " fill="rgb(196,220,255)"/><path d=" M 33.217 45.477 C 44.556 45.427 51.194 40.408 59.174 34.91 C 67.153 29.411 65.52 12.709 54.997 8.416 C 44.474 4.124 32.689 2.747 20.764 15.139 C 8.84 27.531 20.75 45.532 33.217 45.477 Z " fill="rgb(227,238,255)"/><path d=" M 42.342 73.461 C 43.093 75.945 47.255 77.369 71.643 77.369 C 73.616 77.369 82.84 87.745 97.633 86.566 C 112.425 85.389 103.163 72.048 100.004 70.578 C 96.845 69.107 40.162 66.251 42.342 73.461 Z " fill="rgb(227,238,255)"/><path d=" M 32.33 63.407 L 103.405 63.407 C 105.448 63.407 107.106 61.75 107.106 59.707 L 107.106 19.498 C 107.106 17.455 105.448 15.798 103.405 15.798 L 32.33 15.798 C 30.287 15.798 28.63 17.455 28.63 19.498 L 28.63 59.707 C 28.63 61.75 30.287 63.407 32.33 63.407 Z " fill="rgb(255,255,255)"/><path d=" M 33.109 57.605 L 102.626 57.605 C 103.483 57.605 104.177 56.91 104.177 56.053 L 104.177 19.557 C 104.177 18.7 103.483 18.006 102.626 18.006 L 33.109 18.006 C 32.253 18.006 31.559 18.7 31.559 19.557 L 31.559 56.053 C 31.559 56.91 32.253 57.605 33.109 57.605 Z " fill="rgb(55,75,168)"/><path d=" M 69.728 60.739 C 69.728 61.766 68.896 62.599 67.868 62.599 C 66.841 62.599 66.008 61.766 66.008 60.739 C 66.008 59.712 66.841 58.879 67.868 58.879 C 68.896 58.879 69.728 59.712 69.728 60.739 Z " fill="rgb(196,220,255)"/><path d=" M 98.455 30.502 L 64.055 30.502 C 62.988 30.502 62.124 31.367 62.124 32.432 L 62.124 51.161 C 62.124 52.227 62.988 53.091 64.055 53.091 L 98.455 53.091 C 99.522 53.091 100.386 52.227 100.386 51.161 L 100.386 32.432 C 100.386 31.367 99.522 30.502 98.455 30.502 Z " fill="rgb(196,220,255)"/><path d=" M 79.301 37.011 L 96.355 37.011 C 97.022 37.011 97.562 36.471 97.562 35.804 L 97.562 34.919 C 97.562 34.252 97.022 33.712 96.355 33.712 L 79.301 33.712 C 78.635 33.712 78.095 34.252 78.095 34.919 L 78.095 35.804 C 78.095 36.471 78.635 37.011 79.301 37.011 Z " fill="rgb(148,188,242)"/><path d=" M 79.301 41.3 L 96.355 41.3 C 97.022 41.3 97.562 40.759 97.562 40.093 L 97.562 39.534 C 97.562 38.867 97.022 38.326 96.355 38.326 L 79.301 38.326 C 78.635 38.326 78.095 38.867 78.095 39.534 L 78.095 40.093 C 78.095 40.759 78.635 41.3 79.301 41.3 Z " fill="rgb(148,188,242)"/><path d=" M 79.301 45.514 L 96.355 45.514 C 97.022 45.514 97.562 44.973 97.562 44.307 L 97.562 43.748 C 97.562 43.081 97.022 42.541 96.355 42.541 L 79.301 42.541 C 78.635 42.541 78.095 43.081 78.095 43.747 L 78.095 44.307 C 78.095 44.973 78.635 45.514 79.301 45.514 Z " fill="rgb(148,188,242)"/><path d=" M 79.302 49.728 L 96.355 49.728 C 97.022 49.728 97.562 49.188 97.562 48.521 L 97.562 47.962 C 97.562 47.295 97.022 46.755 96.355 46.755 L 79.301 46.755 C 78.635 46.755 78.095 47.295 78.095 47.962 L 78.095 48.521 C 78.095 49.188 78.635 49.728 79.302 49.728 Z " fill="rgb(148,188,242)"/><path d=" M 37.592 46.108 L 71.992 46.108 C 73.059 46.108 73.923 45.244 73.923 44.178 L 73.923 25.45 C 73.923 24.384 73.059 23.519 71.993 23.519 L 37.592 23.519 C 36.526 23.519 35.662 24.384 35.662 25.45 L 35.662 44.178 C 35.662 45.244 36.526 46.108 37.592 46.108 Z " fill="rgb(148,188,242)"/><path d=" M 57.761 36.12 L 68.899 36.12 C 69.565 36.12 70.106 35.579 70.106 34.913 L 70.106 34.354 C 70.106 33.687 69.565 33.147 68.899 33.147 L 57.761 33.147 C 57.094 33.147 56.554 33.687 56.554 34.354 L 56.554 34.913 C 56.554 35.58 57.094 36.12 57.761 36.12 Z " fill="rgb(255,255,255)"/><path d=" M 57.761 40.334 L 68.899 40.334 C 69.565 40.334 70.106 39.794 70.106 39.127 L 70.106 38.568 C 70.106 37.902 69.566 37.361 68.899 37.361 L 57.761 37.361 C 57.094 37.361 56.554 37.902 56.554 38.568 L 56.554 39.127 C 56.554 39.794 57.094 40.334 57.761 40.334 Z " fill="rgb(255,255,255)"/><path d=" M 57.761 44.549 L 68.899 44.549 C 69.565 44.549 70.106 44.008 70.106 43.342 L 70.106 42.782 C 70.106 42.116 69.565 41.575 68.899 41.575 L 57.761 41.575 C 57.094 41.575 56.554 42.116 56.554 42.782 L 56.554 43.342 C 56.554 44.008 57.094 44.549 57.761 44.549 Z " fill="rgb(255,255,255)"/><path d=" M 39.755 36.12 L 50.893 36.12 C 51.56 36.12 52.1 35.58 52.1 34.913 L 52.1 34.354 C 52.1 33.687 51.56 33.147 50.893 33.147 L 39.755 33.147 C 39.089 33.147 38.548 33.687 38.548 34.354 L 38.548 34.913 C 38.548 35.58 39.088 36.12 39.755 36.12 Z " fill="rgb(255,255,255)"/><path d=" M 39.755 40.334 L 50.893 40.334 C 51.56 40.334 52.1 39.794 52.1 39.127 L 52.1 38.568 C 52.1 37.902 51.56 37.361 50.893 37.361 L 39.755 37.361 C 39.089 37.361 38.548 37.902 38.548 38.568 L 38.548 39.127 C 38.548 39.794 39.088 40.334 39.755 40.334 Z " fill="rgb(255,255,255)"/><path d=" M 39.755 44.549 L 50.893 44.549 C 51.56 44.549 52.1 44.008 52.1 43.342 L 52.1 42.782 C 52.1 42.116 51.56 41.575 50.893 41.575 L 39.755 41.575 C 39.089 41.575 38.548 42.116 38.548 42.782 L 38.548 43.342 C 38.548 44.008 39.089 44.549 39.755 44.549 Z " fill="rgb(255,255,255)"/><path d=" M 58.302 68.716 L 77.434 68.716 L 77.434 63.407 L 58.302 63.407 L 58.302 68.716 Z " fill="rgb(255,255,255)"/><path d=" M 49.351 73.868 L 86.385 73.868 C 87.275 73.868 87.996 73.146 87.996 72.256 L 87.996 71.499 C 87.996 69.186 86.121 67.311 83.808 67.311 L 51.929 67.311 C 49.615 67.311 47.74 69.186 47.74 71.499 L 47.74 72.256 C 47.74 73.146 48.461 73.868 49.351 73.868 Z " fill="rgb(255,255,255)"/><path d=" M 64.651 57.605 L 60.423 57.605 C 59.649 56.378 58.863 55.158 58.055 53.951 C 56.283 51.308 54.475 48.69 52.616 46.108 L 56.863 46.108 C 57.825 47.444 58.773 48.79 59.705 50.146 C 61.385 52.591 63.055 55.076 64.651 57.605 Z " fill="none"/><path d=" M 52.616 46.108 L 64.651 46.108 L 64.651 57.605 L 52.616 57.605 L 52.616 46.108 Z " fill="rgb(81,98,179)"/><path d=" M 56.863 46.108 L 52.616 46.108 C 52.214 45.549 51.809 44.992 51.402 44.436 C 51.814 44.244 52.1 43.826 52.1 43.342 L 52.1 42.782 C 52.1 42.116 51.56 41.575 50.893 41.575 L 49.27 41.575 C 48.955 41.161 48.64 40.747 48.323 40.334 L 50.893 40.334 C 51.393 40.334 51.822 40.03 52.005 39.596 C 53.659 41.741 55.281 43.911 56.863 46.108 Z " fill="rgb(162,197,244)"/><path d=" M 51.247 23.519 L 46.79 23.519 C 45.004 21.74 43.254 19.917 41.643 18.006 L 45.305 18.006 C 47.342 19.779 49.293 21.67 51.247 23.519 Z " fill="rgb(81,98,179)"/><path d=" M 50.342 37.361 L 46.147 37.361 C 45.974 36.985 45.874 36.58 45.905 36.12 L 50.893 36.12 C 51.56 36.12 52.1 35.58 52.1 34.913 L 52.1 34.354 C 52.1 34.01 51.956 33.7 51.725 33.48 C 52.54 33.438 53.355 33.397 54.17 33.353 C 54.615 33.329 56.056 33.357 56.326 32.891 C 56.32 32.9 56.314 32.904 56.306 32.904 C 56.25 32.904 56.133 32.682 55.984 32.51 C 55.569 32.032 55.064 31.605 54.611 31.164 C 53.622 30.198 52.629 29.235 51.643 28.266 C 50.046 26.699 48.403 25.127 46.79 23.519 L 51.247 23.519 C 51.753 23.998 52.258 24.473 52.766 24.943 C 54.619 26.661 56.542 28.378 58.277 30.216 C 59.065 31.05 59.581 32.109 59.555 33.147 L 57.761 33.147 C 57.094 33.147 56.554 33.687 56.554 34.354 L 56.554 34.913 C 56.554 35.434 56.884 35.878 57.347 36.047 C 56.067 36.604 54.537 36.629 53.181 36.71 C 52.295 36.763 51.192 36.984 50.224 36.984 C 50.175 36.984 50.126 36.984 50.078 36.983 C 50.168 37.104 50.257 37.233 50.342 37.361 Z " fill="rgb(162,197,244)"/><path d=" M 57.347 36.047 C 56.884 35.878 56.554 35.434 56.554 34.913 L 56.554 34.354 C 56.554 33.687 57.094 33.147 57.761 33.147 L 59.555 33.147 C 59.537 33.864 59.26 34.571 58.636 35.188 C 58.254 35.566 57.817 35.842 57.347 36.047 Z " fill="rgb(255,255,255)"/><path d=" M 50.893 36.12 L 45.905 36.12 C 45.907 36.096 45.909 36.073 45.911 36.049 C 46.132 33.762 48.701 33.634 50.461 33.544 C 50.882 33.522 51.304 33.501 51.725 33.48 C 51.956 33.7 52.1 34.01 52.1 34.354 L 52.1 34.913 C 52.1 35.58 51.56 36.12 50.893 36.12 Z " fill="rgb(255,255,255)"/><path d=" M 50.893 40.334 L 48.323 40.334 C 47.967 39.872 47.61 39.411 47.25 38.952 C 46.844 38.433 46.41 37.931 46.147 37.361 L 50.342 37.361 C 50.532 37.646 50.707 37.927 50.852 38.111 C 51.238 38.605 51.622 39.1 52.005 39.596 C 51.822 40.03 51.393 40.334 50.893 40.334 Z " fill="rgb(255,255,255)"/><path d=" M 51.402 44.436 C 50.736 43.528 50.064 42.625 49.384 41.726 C 49.346 41.676 49.308 41.626 49.27 41.575 L 50.893 41.575 C 51.56 41.575 52.1 42.116 52.1 42.782 L 52.1 43.342 C 52.1 43.826 51.814 44.244 51.402 44.436 Z " fill="rgb(255,255,255)"/><path d=" M 96.406 57.605 L 74.053 57.605 C 72.822 56.132 71.563 54.606 70.333 53.091 L 91.864 53.091 C 93.401 54.601 94.946 56.13 96.406 57.605 Z  M 86.434 30.502 L 73.923 30.502 L 73.923 25.45 C 73.923 24.384 73.059 23.519 71.993 23.519 L 61.978 23.519 C 59.834 21.599 57.7 19.689 55.846 18.006 L 74.744 18.006 L 74.815 18.082 C 80.026 23.183 83.814 27.311 86.434 30.502 Z " fill="rgb(81,98,179)"/><path d=" M 91.864 53.091 L 70.333 53.091 C 68.354 50.651 66.451 48.238 64.858 46.108 L 71.992 46.108 C 73.059 46.108 73.923 45.244 73.923 44.178 L 73.923 35.638 C 74.234 35.485 74.397 35.33 74.369 35.169 C 74.352 35.071 74.197 34.861 73.923 34.557 L 73.923 30.502 L 86.434 30.502 C 87.421 31.704 88.243 32.774 88.912 33.712 L 79.301 33.712 C 78.635 33.712 78.095 34.252 78.095 34.919 L 78.095 35.804 C 78.095 36.471 78.635 37.011 79.301 37.011 L 90.922 37.011 C 91.181 37.586 91.298 38.024 91.289 38.326 L 79.301 38.326 C 78.635 38.326 78.095 38.867 78.095 39.534 L 78.095 40.093 C 78.095 40.759 78.635 41.3 79.301 41.3 L 80.116 41.3 C 80.356 41.608 80.728 42.028 81.209 42.541 L 79.301 42.541 C 78.635 42.541 78.095 43.081 78.095 43.747 L 78.095 44.307 C 78.095 44.973 78.635 45.514 79.301 45.514 L 84.131 45.514 C 84.532 45.911 84.952 46.325 85.388 46.755 L 79.301 46.755 C 78.635 46.755 78.095 47.295 78.095 47.962 L 78.095 48.521 C 78.095 49.188 78.635 49.728 79.302 49.728 L 88.427 49.728 C 89.54 50.815 90.701 51.948 91.864 53.091 Z " fill="rgb(204,225,255)"/><path d=" M 90.922 37.011 L 79.301 37.011 C 78.635 37.011 78.095 36.471 78.095 35.804 L 78.095 34.919 C 78.095 34.252 78.635 33.712 79.301 33.712 L 88.912 33.712 C 89.898 35.094 90.553 36.192 90.922 37.011 Z " fill="rgb(162,197,244)"/><path d=" M 80.116 41.3 L 79.301 41.3 C 78.635 41.3 78.095 40.759 78.095 40.093 L 78.095 39.534 C 78.095 38.867 78.635 38.326 79.301 38.326 L 91.289 38.326 C 91.285 38.433 91.266 38.523 91.232 38.596 C 90.618 39.896 80.13 39.597 79.81 40.748 C 79.788 40.828 79.896 41.016 80.116 41.3 Z " fill="rgb(162,197,244)"/><path d=" M 84.131 45.514 L 79.301 45.514 C 78.635 45.514 78.095 44.973 78.095 44.307 L 78.095 43.747 C 78.095 43.081 78.635 42.541 79.301 42.541 L 81.209 42.541 C 81.953 43.334 82.957 44.349 84.131 45.514 Z " fill="rgb(162,197,244)"/><path d=" M 88.427 49.728 L 79.302 49.728 C 78.635 49.728 78.095 49.188 78.095 48.521 L 78.095 47.962 C 78.095 47.295 78.635 46.755 79.301 46.755 L 85.388 46.755 C 86.336 47.686 87.36 48.687 88.427 49.728 Z " fill="rgb(162,197,244)"/><path d=" M 71.992 46.108 L 64.858 46.108 C 64.455 45.569 64.071 45.047 63.712 44.549 L 68.899 44.549 C 69.565 44.549 70.106 44.008 70.106 43.342 L 70.106 42.782 C 70.106 42.116 69.565 41.575 68.899 41.575 L 61.693 41.575 C 61.405 41.11 61.167 40.694 60.985 40.334 L 68.899 40.334 C 69.565 40.334 70.106 39.794 70.106 39.127 L 70.106 38.568 C 70.106 37.902 69.566 37.361 68.899 37.361 L 66.166 37.361 C 69.271 36.779 72.714 36.232 73.923 35.638 L 73.923 44.178 C 73.923 45.244 73.059 46.108 71.992 46.108 Z  M 73.923 34.557 C 72.388 32.846 67.151 28.152 61.978 23.519 L 71.993 23.519 C 73.059 23.519 73.923 24.384 73.923 25.45 L 73.923 30.502 L 73.923 34.557 Z " fill="rgb(162,197,244)"/><path d=" M 68.899 40.334 L 60.985 40.334 C 60.587 39.547 60.459 39.029 60.678 38.865 C 61.415 38.314 63.682 37.826 66.166 37.361 L 68.899 37.361 C 69.566 37.361 70.106 37.902 70.106 38.568 L 70.106 39.127 C 70.106 39.794 69.565 40.334 68.899 40.334 Z " fill="rgb(255,255,255)"/><path d=" M 68.899 44.549 L 63.712 44.549 C 62.904 43.428 62.217 42.422 61.693 41.575 L 68.899 41.575 C 69.565 41.575 70.106 42.116 70.106 42.782 L 70.106 43.342 C 70.106 44.008 69.565 44.549 68.899 44.549 Z " fill="rgb(255,255,255)"/><path d=" M 96.082 25.129 C 96.08 26.112 95.985 27.536 95.615 28.272 C 95.246 29.008 93.767 29.759 93.767 29.759 L 92.988 26.174 L 96.082 25.129 Z " fill="rgb(0,13,36)"/><path d=" M 95.516 78.955 C 94.746 81.279 94.83 82.7 95.681 83.608 C 96.531 84.515 98.429 81.841 97.871 80.636 C 97.313 79.43 96.732 77.485 96.732 77.485 L 95.516 78.955 Z " fill="rgb(0,13,36)"/><path d=" M 86.666 80.563 C 84.393 81.403 82.172 82.04 82.486 82.685 C 82.799 83.33 87.054 83.158 87.743 82.58 C 88.433 82.002 88.225 79.737 88.225 79.737 L 86.666 80.563 Z " fill="rgb(0,13,36)"/><path d=" M 90.256 31.276 C 85.72 32.358 82.191 39.613 81.349 41.1 C 80.293 42.964 79.951 45.655 81.172 45.822 C 82.393 45.989 88.83 38.954 89.499 37.878 C 90.168 36.802 90.256 31.276 90.256 31.276 Z " fill="rgb(255,196,0)"/><path d=" M 89.349 48.898 C 87.001 50.579 93.087 67.344 93.572 68.366 C 94.057 69.389 94.987 80.126 94.987 80.126 L 98.119 80.125 C 98.119 80.125 98.975 73.437 98.971 71.36 C 98.967 68.969 97.095 66.052 97.095 66.052 C 97.095 66.052 99.142 56.58 97.917 51.382 C 96.999 47.492 93.086 46.221 89.349 48.898 Z " fill="rgb(0,196,176)"/><path d=" M 87.844 48.564 C 85.165 49.64 86.875 65.092 86.549 67.736 C 86.411 68.859 85.743 80.55 85.743 80.55 L 88.976 80.982 C 88.976 80.982 90.496 74.238 90.986 72.219 C 91.549 69.894 90.715 67.406 90.715 67.406 C 90.715 67.406 95.536 58.349 95.579 53.009 C 95.611 49.011 92.11 46.849 87.844 48.564 Z " fill="rgb(0,196,176)"/><path d=" M 97.485 50.144 C 97.771 46.983 97.428 46.383 97.594 44.216 C 97.761 42.049 97.318 37.699 97.485 36.219 C 97.652 34.74 96.248 30.118 92.341 30.651 C 87.855 31.264 87.388 33.247 86.888 37.224 C 86.388 41.202 86.183 42.829 86.254 46.134 C 86.274 47.056 87.037 49.497 87.037 49.497 C 87.037 49.497 88.781 52.06 91.357 52.469 C 93.407 52.794 97.485 50.144 97.485 50.144 Z " fill="rgb(255,232,82)"/><path d=" M 95.319 31.502 C 92.879 31.814 93.89 35.442 95.824 36.583 C 97.43 37.529 101.625 40.96 103.226 42.329 C 103.645 41.266 105.113 40.848 106.125 41.305 C 103.829 37.933 97.709 31.197 95.319 31.502 Z " fill="rgb(255,159,148)"/><path d=" M 90.554 32.665 C 90.914 33.146 92.831 32.094 93.137 31.713 C 93.443 31.333 93.679 30.332 93.554 29.332 C 93.429 28.332 92.24 28.415 91.543 28.665 C 90.846 28.915 90.054 31.998 90.554 32.665 Z " fill="rgb(255,109,92)"/><path d=" M 91.558 21.296 C 89.873 21.114 87.809 22.295 87.8 24.621 C 87.789 27.254 88.819 31.075 90.661 31.07 C 92.219 31.065 95.222 29.91 95.615 26.358 C 95.652 26.021 96.354 25.519 96.207 24.581 C 96.044 23.532 95.05 24.374 94.992 24.158 C 94.55 22.504 93.524 21.508 91.558 21.296 Z " fill="rgb(255,159,148)"/><path d=" M 89.902 26.174 C 89.292 26.419 88.529 29.053 88.986 29.314 C 89.444 29.576 90.001 29.707 90.197 29.543 C 90.393 29.38 90.05 26.115 89.902 26.174 Z " fill="rgb(255,109,92)"/><path d=" M 95.247 31.22 C 92.798 30.993 93.806 35.708 95.273 37.408 C 96.86 39.247 101.624 41.214 103.226 42.583 C 103.644 41.519 106.186 41.872 107.197 42.329 C 105.088 38.097 98.191 31.492 95.247 31.22 Z " fill="rgb(255,196,0)"/><path d=" M 102.988 41.799 C 103.12 42.21 103.205 42.49 103.226 42.583 C 103.327 43.049 98.682 45.103 96.513 46.902 C 96.151 47.201 97.073 48.329 97.053 48.398 C 96.908 48.874 106.65 45.67 107.641 43.264 C 107.734 43.04 106.875 41.45 106.063 40.244 C 105.442 39.324 103.902 41.114 102.988 41.799 Z " fill="rgb(255,196,0)"/><path d=" M 97.023 50.015 C 97.536 49.774 97.507 49.145 97.462 48.844 C 97.416 48.543 96.794 47.971 96.794 47.971 L 96.235 48.658 L 97.023 50.015 Z " fill="rgb(255,109,92)"/><path d=" M 96.513 46.902 C 95.728 47.409 95.08 47.786 95.006 48.584 C 94.932 49.383 96.048 49.96 96.755 50.035 C 97.462 50.109 96.99 49.476 97.016 49.253 C 97.04 49.03 96.681 48.621 97.576 48.375 C 98.148 48.218 98.167 45.832 96.513 46.902 Z " fill="rgb(255,159,148)"/><path d=" M 78.63 34.353 C 78.444 33.029 78.643 32.344 78.504 31.394 C 78.457 31.079 78.269 29.866 78.449 29.771 C 78.63 29.677 78.836 31.091 78.911 30.989 C 78.977 30.898 78.635 29.033 78.814 28.965 C 78.992 28.896 79.322 30.666 79.39 30.604 C 79.493 30.508 79.163 28.526 79.326 28.514 C 79.592 28.494 79.692 30.521 79.809 30.493 C 79.888 30.474 79.691 28.935 79.931 28.864 C 80.171 28.792 80.36 31.201 80.335 31.464 C 80.311 31.727 81.363 30.316 81.698 30.645 C 81.876 30.819 81.131 31.844 80.455 32.48 C 79.93 32.973 80.412 33.597 80.662 34.446 C 80.812 34.954 78.669 34.72 78.669 34.72 L 78.63 34.353 Z " fill="rgb(255,159,148)"/><path d=" M 78.773 36.767 C 78.621 34.401 78.222 33.307 78.587 32.83 C 78.952 32.353 79.988 32.115 80.244 33.077 C 80.676 34.706 82.324 40.265 82.629 41.841 C 82.933 43.416 82.763 45.648 81.439 45.964 C 79.217 46.428 78.925 39.134 78.773 36.767 Z " fill="rgb(255,232,82)"/><path d=" M 97.836 80.312 L 97.705 80.307 C 97.79 78.171 97.798 76.007 97.728 73.872 C 97.687 72.591 97.613 71.233 97.226 69.97 C 97.044 69.376 96.79 68.792 96.543 68.227 C 96.152 67.326 95.746 66.395 95.624 65.404 C 95.514 64.501 95.537 63.726 95.697 63.036 C 96.681 58.789 96.957 54.46 96.455 51.16 L 96.585 51.14 C 97.089 54.457 96.812 58.803 95.825 63.065 C 95.669 63.741 95.646 64.501 95.754 65.387 C 95.874 66.361 96.276 67.282 96.664 68.175 C 96.911 68.743 97.167 69.33 97.352 69.931 C 97.743 71.21 97.818 72.578 97.86 73.868 C 97.929 76.006 97.921 78.173 97.836 80.312 Z " fill="rgb(255,255,255)"/><path d=" M 90.182 20.713 C 88.768 20.846 86.224 22.874 87.037 24.296 C 87.85 25.718 90.486 24.983 91.319 24.542 C 91.916 24.226 93.303 25.026 94.045 25.509 C 94.322 25.688 94.69 25.625 94.895 25.367 C 95.344 24.8 96.069 23.991 96.194 24.496 C 96.309 24.961 95.691 22.333 95.002 21.793 C 94.314 21.253 91.743 20.566 90.182 20.713 Z " fill="rgb(0,13,36)"/><path d=" M 14.024 42.369 C 14.956 42.369 15.752 42.644 16.41 43.192 C 17.069 43.741 17.398 44.578 17.398 45.701 C 17.398 46.168 17.342 46.525 17.233 46.771 C 17.04 47.347 16.629 47.835 15.998 48.232 C 15.367 48.63 14.723 48.828 14.065 48.828 C 13.105 48.828 12.33 48.527 11.74 47.924 C 11.151 47.321 10.842 46.497 10.815 45.455 L 10.815 45.167 C 10.815 44.646 10.951 44.235 11.226 43.932 C 11.72 43.192 12.363 42.713 13.159 42.493 C 13.406 42.411 13.694 42.369 14.024 42.369 Z  M 16.492 24.966 C 17.507 24.966 18.295 25.062 18.858 25.254 C 19.42 25.446 20.071 25.83 20.813 26.406 C 21.526 26.955 22.073 27.503 22.458 28.052 C 23.308 29.231 23.734 30.535 23.734 31.96 C 23.734 33.168 23.48 34.251 22.972 35.21 C 22.464 36.171 21.621 37.035 20.442 37.803 C 19.674 38.324 19.139 38.763 18.837 39.119 C 18.535 39.476 18.288 39.928 18.097 40.477 C 17.932 40.943 17.781 41.238 17.645 41.361 C 17.507 41.485 17.246 41.546 16.862 41.546 C 16.561 41.546 15.744 41.464 14.414 41.3 C 13.084 41.135 12.296 41.026 12.049 40.971 C 11.802 40.916 11.638 40.806 11.555 40.641 C 11.473 40.477 11.432 40.312 11.432 40.147 C 11.432 39.901 11.61 39.229 11.967 38.132 C 12.322 37.035 12.625 36.335 12.872 36.033 C 13.146 35.677 13.639 35.32 14.353 34.964 C 15.011 34.635 15.485 34.326 15.773 34.038 C 16.061 33.75 16.232 33.386 16.286 32.948 L 16.327 32.783 L 16.327 32.66 C 16.327 31.947 15.971 31.59 15.258 31.59 C 14.682 31.59 13.901 32.289 12.913 33.688 C 12.584 34.155 12.337 34.387 12.172 34.387 L 12.049 34.346 L 11.926 34.346 C 11.404 34.264 10.43 33.565 9.004 32.248 C 8.511 31.782 8.264 31.412 8.264 31.137 C 8.264 30.864 8.429 30.425 8.758 29.821 C 9.306 28.807 10.142 27.853 11.267 26.961 C 12.392 26.071 13.516 25.474 14.641 25.172 C 15.19 25.035 15.807 24.966 16.492 24.966 Z " fill="rgb(255,255,255)"/></g></g></svg>