<svg width="648" height="530" viewBox="0 0 648 530" fill="none" xmlns="http://www.w3.org/2000/svg">
<path d="M646.687 386.711C644.506 383.339 639.356 383.649 635.783 385.485C632.211 387.321 629.134 390.27 625.216 391.165C621.26 392.069 617.058 390.714 613.088 391.563C607.111 392.842 603.07 398.739 597.204 400.457C593.11 401.654 588.475 400.697 584.663 402.611C579.936 404.983 578.164 410.85 574.195 414.342C568.619 419.247 560.28 418.458 552.898 419.267C534.912 421.239 520.168 433.875 506.676 445.931C516.4 451.229 526.176 455.954 537.208 454.994C548.24 454.034 561.58 449.517 569.192 438.934C572.344 434.554 580.734 438.987 585.638 436.737C589.835 434.81 594.139 432.809 597.336 429.475C601.212 425.438 603.466 419.483 608.624 417.313C613.052 415.449 618.554 416.954 622.607 414.373C626.388 411.965 627.462 406.938 630.436 403.583C633.323 400.329 637.715 398.937 641.375 396.585C645.036 394.234 648.231 389.789 646.574 385.766" fill="#17756A"/>
<path d="M601.859 340.218C598.642 338.186 594.338 340.498 591.996 343.497C589.654 346.495 588.18 350.254 585.168 352.579C582.126 354.929 577.974 355.435 574.899 357.743C570.27 361.218 569.138 367.897 564.776 371.702C561.734 374.359 557.368 375.378 554.851 378.538C551.731 382.457 552.539 388.205 550.514 392.786C547.668 399.219 540.187 401.854 534.162 405.483C519.48 414.327 511.828 431.05 505.019 446.779C515.484 447.469 525.768 447.645 534.871 442.435C543.974 437.226 553.647 428.041 555.987 415.915C556.955 410.898 565.93 411.375 569.252 407.491C572.095 404.166 575 400.737 576.424 396.599C578.151 391.587 577.723 385.573 581.295 381.655C584.362 378.294 589.69 377.401 592.15 373.571C594.443 369.998 593.368 365.249 594.592 361.185C595.779 357.238 599.002 354.295 601.215 350.818C603.428 347.342 604.408 342.249 601.384 339.451" fill="#00CF98"/>
<path d="M511.723 447C543.009 414.968 572.398 380.448 598.619 344.135C598.986 343.627 598.155 343.166 597.789 343.648C570.566 379.434 542.041 413.76 511.449 446.727C511.279 446.91 511.547 447.18 511.723 447Z" fill="#81F2C7"/>
<path d="M575.664 263.581C570.616 262.616 566.35 267.652 564.888 272.579C563.426 277.505 563.433 282.957 560.798 287.371C558.136 291.829 553.168 294.517 550.444 298.939C546.344 305.596 548.224 314.548 544.625 321.489C542.113 326.332 537.129 329.773 535.528 334.989C533.545 341.456 537.402 348.28 537.122 355.04C536.729 364.533 528.626 371.544 522.848 379.087C508.769 397.461 507.418 422.265 506.638 445.399C520.134 441.092 533.145 436.229 542.012 425.18C550.876 414.131 558.493 397.803 555.438 381.407C554.174 374.62 565.69 370.783 567.945 364.259C569.874 358.673 571.83 352.925 571.576 347.021C571.266 339.869 567.753 332.52 570.306 325.832C572.5 320.089 578.754 316.332 579.952 310.303C581.069 304.677 577.368 299.24 576.897 293.525C576.438 287.979 579.033 282.687 580.096 277.223C581.157 271.76 579.872 264.873 574.688 262.851" fill="#00A17C"/>
<path d="M506.26 302.073C502.627 302.496 500.807 306.824 500.867 310.481C500.927 314.137 502.096 317.836 501.249 321.395C500.395 324.989 497.596 327.875 496.691 331.457C495.329 336.851 498.516 342.527 497.556 348.007C496.885 351.831 494.236 355.229 494.264 359.112C494.297 363.925 498.373 367.735 499.625 372.381C501.387 378.909 497.384 385.399 495.071 391.752C489.439 407.229 493.819 424.353 498.228 440.224C506.468 434.419 514.263 428.34 517.92 418.947C521.579 409.553 523.263 396.845 517.688 386.369C515.381 382.032 522.379 376.968 522.516 372.057C522.633 367.855 522.733 363.536 521.3 359.584C519.564 354.793 515.611 350.556 515.915 345.471C516.176 341.104 519.621 337.219 519.145 332.871C518.702 328.815 515.031 325.913 513.491 322.135C511.995 318.468 512.625 314.323 512.18 310.385C511.735 306.451 509.393 302.051 505.441 301.785" fill="#17756A"/>
<path d="M515.537 447.472C537.908 443.761 558.255 434.25 578.095 423.626C599.585 412.12 620.807 401.18 643.143 391.376C643.525 391.208 643.252 390.554 642.855 390.696C599.176 406.436 561.837 438.962 515.431 447.086C515.176 447.13 515.287 447.514 515.537 447.472Z" fill="#81F2C7"/>
<path d="M510.544 442.389C528.817 417.263 541.553 388.697 548.237 358.365C551.777 342.294 553.8 325.73 559.982 310.366C565.878 295.71 575.336 282.533 577.797 266.646C577.896 266.015 576.945 265.73 576.821 266.378C573.964 281.43 565.612 294.071 559.686 307.961C553.2 323.165 551.037 339.594 547.76 355.669C541.409 386.826 528.313 416.131 509.896 442.01C509.614 442.406 510.262 442.774 510.544 442.389Z" fill="#81F2C7"/>
<g opacity="0.649994">
<g opacity="0.649994">
<path opacity="0.649994" d="M497.356 439.364C497.536 427.406 487.97 417.836 479.108 409.804C460.142 392.613 439.75 374.701 414.546 370.233C394.683 366.713 374.442 372.068 354.984 377.381C321.432 386.541 287.88 395.7 254.33 404.86C198.716 420.042 143.103 435.225 87.4883 450.408L84.4123 456.042C81.9549 469.566 89.9883 469.506 100.96 477.786C111.934 486.065 125.76 489.592 139.374 491.504C152.986 493.418 166.828 493.922 180.211 497.061C205.806 503.064 228.576 518.43 254.375 523.492C281.074 528.729 308.538 522.509 335.032 516.317C342.514 514.568 350.014 512.812 357.508 511C386.84 531.858 427.37 535.865 460.199 521.086C469.044 517.105 478.45 509.797 477.556 500.138C476.85 492.497 469.872 487.066 463.06 483.528C460.079 481.98 457.002 480.621 453.864 479.426C460.502 476.272 467.028 472.866 473.411 469.157C484.952 462.45 497.155 452.71 497.356 439.364Z" fill="#2E274F"/>
</g>
</g>
<path d="M76.562 154.377C73.034 155.803 72.4007 160.648 73.4687 164.3C74.5353 167.952 76.7287 171.341 76.8593 175.144C76.9913 178.987 74.9793 182.653 75.0593 186.497C75.178 192.284 79.9407 197.1 80.486 202.864C80.8673 206.885 79.1473 211.025 80.2447 214.913C81.606 219.733 86.7447 222.432 89.282 226.749C92.846 232.815 90.618 240.428 90.05 247.439C88.6633 264.523 97.7767 280.496 106.575 295.205C113.243 287.108 119.389 278.863 120.47 268.431C121.553 257.997 119.739 244.781 111.259 235.805C107.749 232.091 113.375 225.081 112.159 220.116C111.119 215.868 110.029 211.507 107.502 207.935C104.439 203.608 99.3047 200.445 98.2087 195.26C97.2687 190.807 99.6527 185.959 97.978 181.727C96.4167 177.779 91.9327 175.88 89.3447 172.515C86.834 169.247 86.326 164.912 84.794 161.087C83.262 157.261 79.6993 153.492 75.662 154.315" fill="#00CF98"/>
<path d="M117.124 278.071C104.192 238.012 92.2185 197.521 78.2945 157.796C78.1279 157.32 77.3825 157.512 77.5292 158.007C89.4585 198.376 103.421 238.224 116.352 278.283C116.511 278.771 117.283 278.563 117.124 278.071Z" fill="#81F2C7"/>
<path d="M13.868 134.982C9.98133 138.345 11.288 144.813 14.248 149.014C17.208 153.216 21.4907 156.59 23.3187 161.394C25.1653 166.246 24.1947 171.812 25.976 176.689C28.656 184.034 36.8467 188.11 40.0627 195.237C42.3053 200.21 41.9147 206.253 45.016 210.742C48.86 216.309 56.6067 217.513 61.736 221.924C68.94 228.118 69.4187 238.821 71.7533 248.032C77.444 270.469 96.068 286.905 113.736 301.861C118.723 288.602 122.975 275.377 119.801 261.57C116.628 247.765 108.537 231.666 93.78 223.898C87.6707 220.682 91.8 209.268 88.0773 203.453C84.892 198.477 81.5933 193.38 76.804 189.92C71 185.728 63.0573 183.926 59.392 177.777C56.244 172.497 57.1747 165.26 53.1853 160.582C49.464 156.218 42.904 155.752 38.128 152.578C33.4907 149.5 30.948 144.182 27.32 139.961C23.692 135.741 17.492 132.481 12.6907 135.294" fill="#00A17C"/>
<path d="M1.04319 213.302C-0.876806 216.414 1.39119 220.526 4.29653 222.746C7.20319 224.966 10.8312 226.342 13.0979 229.211C15.3872 232.111 15.9165 236.095 18.1659 239.026C21.5539 243.441 27.9845 244.457 31.6872 248.609C34.2725 251.506 35.2979 255.691 38.3605 258.077C42.1592 261.033 47.6739 260.197 52.0979 262.094C58.3099 264.761 60.9192 271.925 64.4712 277.678C73.1245 291.693 89.2752 298.873 104.462 305.251C105.015 295.187 105.078 285.302 99.9752 276.609C94.8739 267.915 85.9459 258.715 74.2699 256.594C69.4365 255.715 69.8019 247.085 66.0339 243.934C62.8099 241.237 59.4819 238.481 55.4925 237.154C50.6565 235.549 44.8819 236.022 41.0805 232.63C37.8165 229.718 36.9032 224.607 33.1965 222.283C29.7392 220.117 25.1872 221.199 21.2672 220.066C17.4619 218.966 14.6005 215.899 11.2379 213.81C7.87386 211.719 2.96853 210.83 0.30986 213.766" fill="#17756A"/>
<path d="M3.9344 212.158C21.6011 227.331 39.8211 241.879 57.8384 256.63C74.5411 270.305 93.7584 283.061 106.749 300.529C106.906 300.741 107.264 300.546 107.112 300.318C95.6637 283.113 76.1971 270.663 60.4264 257.754C41.7131 242.437 23.1704 226.865 4.1024 211.99C3.98506 211.898 3.81706 212.057 3.9344 212.158Z" fill="#81F2C7"/>
<path d="M113.878 279.558C106.386 265.296 98.6804 251.043 89.1764 238C80.9124 226.66 71.1204 216.61 61.9484 206.027C51.8191 194.338 44.0191 182.068 37.2137 168.222C31.3244 156.236 24.8711 144.052 13.1204 136.883C12.6631 136.604 12.2671 137.302 12.7044 137.595C25.8084 146.423 32.1684 160.275 38.9764 173.971C44.9471 185.982 52.5071 196.588 61.2711 206.704C70.6591 217.54 80.7137 227.812 89.1391 239.45C98.3684 252.196 105.762 266.119 113.311 279.888C113.515 280.26 114.074 279.931 113.878 279.558Z" fill="#81F2C7"/>
<path d="M90.2677 290.72V302.9L216.197 351.67L522.416 263.248L520.389 253.127L90.2677 290.72Z" fill="#CB9774"/>
<path d="M90.3556 290.323L215.585 339.785L520.389 253.127L407.632 208.482L90.3556 290.323Z" fill="#FFCAA7"/>
<g opacity="0.320007">
<g opacity="0.320007">
<path opacity="0.320007" d="M110.594 311.887C106.955 289.055 141.567 289.555 150.91 273.95C151.206 273.455 150.434 273.004 150.138 273.498C143.229 285.04 129.427 286.039 119.127 293.07C112.761 297.415 108.245 304.192 109.889 312.082C109.986 312.548 110.666 312.343 110.594 311.887Z" fill="#A2785C"/>
</g>
<g opacity="0.320007">
<path opacity="0.320007" d="M128.013 317.93C147.38 305.409 181.653 296.566 180.152 267.507C180.125 266.994 179.327 266.991 179.352 267.507C180.771 296.487 146.883 304.669 127.752 317.482C127.476 317.666 127.731 318.113 128.013 317.93Z" fill="#A2785C"/>
</g>
<g opacity="0.320007">
<path opacity="0.320007" d="M145.207 325.723C180.904 283.96 234.136 270.682 279.047 242.135C279.521 241.834 279.085 241.078 278.605 241.379C234.819 268.883 177.32 282.527 144.976 325.544C144.876 325.678 145.099 325.85 145.207 325.723Z" fill="#A2785C"/>
</g>
<g opacity="0.320007">
<path opacity="0.320007" d="M417.583 214.016C391.304 248.057 344.991 245.335 307.48 256.235C287.963 261.907 270.779 273.381 251.283 279.031C233.292 284.244 213.689 283.984 196.86 292.957C181.18 301.319 169.745 316.059 164.908 333.075C164.781 333.52 165.475 333.711 165.601 333.265C170.841 314.727 184.02 299.068 201.825 291.44C220.115 283.605 240.704 284.116 259.316 277.152C278.523 269.965 295.964 259.545 316.111 254.787C335.472 250.213 355.475 248.513 374.511 242.552C391.305 237.292 407.473 228.747 418.053 214.291C418.261 214.005 417.792 213.745 417.583 214.016Z" fill="#A2785C"/>
</g>
<g opacity="0.320007">
<path opacity="0.320007" d="M182.081 337.159C180.722 318.149 192.773 299.401 211.129 293.507C231.297 287.033 252.14 298.962 272.686 296.069C291.756 293.382 307.952 282.059 324.133 272.482C343.896 260.785 364.645 255.151 386.797 249.909C409.66 244.497 431.822 237.018 453.18 227.214C453.673 226.989 453.245 226.262 452.753 226.486C431.45 236.234 409.348 243.654 386.56 249.049C364.746 254.214 344.192 259.582 324.785 271.169C305.166 282.881 285.058 297.35 261.065 296.054C242.362 295.043 223.04 286.301 205.052 295.517C189.886 303.286 180.14 320.134 181.732 337.159C181.752 337.379 182.097 337.386 182.081 337.159Z" fill="#A2785C"/>
</g>
<g opacity="0.320007">
<path opacity="0.320007" d="M462.19 230.907C458.44 241.325 447.232 244.825 437.287 246.484C426.104 248.349 414.762 248.857 403.47 249.677C383.74 251.109 364.798 254.161 347.39 264.076C330.798 273.525 316.492 286.476 299.775 295.725C280.65 306.311 259.087 309.137 238.203 314.453C219.252 319.276 200.584 326.989 188.174 342.74C187.848 343.153 188.426 343.605 188.747 343.183C215.074 308.624 265.936 315.468 300.995 295.68C318.243 285.945 333.007 272.369 350.494 263.02C371.158 251.972 393.995 251.164 416.84 249.385C431.498 248.245 456.659 248.093 462.443 230.976C462.498 230.816 462.247 230.749 462.19 230.907Z" fill="#A2785C"/>
</g>
<g opacity="0.320007">
<path opacity="0.320007" d="M290.671 238.899C287.837 241.251 260.509 259.302 273.21 262.588C278.569 263.975 285.525 260.215 290.041 257.76C298.406 253.211 305.805 247.315 314.949 244.263C332.143 238.524 350.802 239.955 368.125 234.328C383.369 229.376 397.465 221.042 407.903 208.754C408.222 208.378 407.679 207.831 407.361 208.21C397.702 219.618 384.982 227.618 370.975 232.642C357.403 237.51 343.367 238.304 329.234 240.367C315.75 242.335 305.589 247.526 294.13 254.54C290.93 256.499 287.705 258.335 284.221 259.743C282.346 260.5 280.493 261.188 278.503 261.596C277.321 261.754 276.139 261.908 274.957 262.063C273.949 259.92 272.943 257.775 271.935 255.632C272.235 253.743 279.498 249.091 281.091 247.726C284.395 244.896 287.665 242.028 290.941 239.168C291.127 239.006 290.858 238.744 290.671 238.899Z" fill="#A2785C"/>
</g>
<g opacity="0.320007">
<path opacity="0.320007" d="M264.837 287.532C281.449 293.77 294.073 279.396 306.458 270.841C308.354 269.533 310.291 268.304 312.347 267.264C314.855 265.994 319.086 265.637 321.282 263.949C322.197 263.245 323.222 263.014 322.995 261.573C322.55 258.749 316.757 258.974 315.03 259.096C307.651 259.612 299.975 263.242 293.302 266.232C288.99 268.165 284.773 270.297 280.613 272.537C278.015 273.937 272.427 275.998 270.638 278.426C269.275 280.276 268.582 282.052 271.039 283.238C273.582 284.466 279.049 281.45 281.161 280.561C285.519 278.726 289.649 276.477 293.569 273.834C293.875 273.626 293.597 273.133 293.275 273.332C288.874 276.052 281.891 281.334 276.555 281.608C273.785 283.342 272.505 282.057 272.713 277.748C273.735 277.157 274.762 276.572 275.791 275.994C278.194 274.64 280.607 273.306 283.049 272.022C288.589 269.106 294.243 266.385 300.082 264.112C304.333 262.457 310.406 259.329 315.067 259.837C317.714 258.985 319.219 260.348 319.582 263.926C318.095 264.272 316.646 264.728 315.231 265.297C313.797 265.858 312.39 266.557 311.038 267.284C306.95 269.482 303.303 272.377 299.665 275.23C289.686 283.057 278.347 292.049 264.893 287.328C264.763 287.282 264.71 287.485 264.837 287.532Z" fill="#A2785C"/>
</g>
<g opacity="0.320007">
<path opacity="0.320007" d="M239.375 345.881C244.524 317.994 278.474 318.055 299.801 311.438C320.524 305.007 338.288 292.019 356.621 280.861C366.418 274.898 376.512 269.325 387.348 265.47C398.581 261.474 410.341 259.245 422.072 257.294C443.989 253.646 466.32 250.821 486.049 239.885C486.62 239.569 486.11 238.695 485.538 239.01C452.281 257.347 412.234 252.758 377.934 268.237C361.141 275.814 346.217 286.749 330.469 296.181C322.226 301.117 313.705 305.662 304.678 309.002C295.484 312.406 285.885 313.953 276.369 316.134C260.376 319.803 242.111 327.718 239.188 345.829C239.168 345.951 239.352 346.005 239.375 345.881Z" fill="#A2785C"/>
</g>
<g opacity="0.320007">
<path opacity="0.320007" d="M346.846 316.222C348.134 298.391 365.802 289.932 380.243 283.57C394.709 277.196 409.927 272.692 425.281 269.03C439.618 265.611 454.115 262.928 468.582 260.134C480.961 257.742 493.509 255.404 503.551 247.268C503.979 246.922 503.37 246.316 502.946 246.663C490.157 257.118 472.313 258.598 456.651 261.635C440.642 264.739 424.631 267.984 408.953 272.516C394.617 276.659 380.417 281.874 367.294 289.046C356.77 294.798 346.37 303.211 346.19 316.222C346.183 316.647 346.815 316.638 346.846 316.222Z" fill="#A2785C"/>
</g>
<g opacity="0.320007">
<path opacity="0.320007" d="M384.77 302.549C400.564 284.387 421.221 271.901 445.56 269.75C467.762 267.79 493.04 274.958 512.354 260.343C512.722 260.066 512.376 259.435 511.986 259.711C489.57 275.602 461.397 265.31 436.27 270.355C416.205 274.385 396.69 285.731 384.368 302.238C384.194 302.469 384.58 302.767 384.77 302.549Z" fill="#A2785C"/>
</g>
</g>
<g opacity="0.330002">
<g opacity="0.330002">
<path opacity="0.330002" d="M376.503 237.333C372.151 239.457 370.585 245.134 373.706 248.836C373.87 249.032 374.082 249.194 374.241 249.412C377.714 254.148 386.159 262.846 388.394 262.762C392.401 262.61 398.079 256.228 398.026 254.745C397.973 253.262 390.377 242.453 386.254 238.604C383.911 236.417 380.834 235.22 376.503 237.333Z" fill="#353535"/>
</g>
</g>
<path d="M379.212 234.753C374.858 236.877 373.293 242.554 376.413 246.257C376.577 246.45 376.79 246.614 376.949 246.832C380.421 251.566 388.868 260.268 391.102 260.181C395.109 260.03 400.786 253.648 400.733 252.165C400.68 250.681 393.084 239.873 388.961 236.024C386.62 233.837 383.541 232.64 379.212 234.753Z" fill="#EEEEEE"/>
<path d="M380.851 237.737C381.522 237.28 382.466 237.433 383.136 237.888C383.808 238.344 384.268 239.043 384.711 239.723C384.886 239.991 385.068 240.287 385.046 240.607C385.022 240.928 384.68 241.236 384.39 241.096C384.295 241.051 384.224 240.968 384.156 240.888C383.167 239.715 381.884 238.881 380.895 237.709" fill="#D0CDD7"/>
<path d="M400.373 251.416C400.419 254.112 398.763 256.873 396.384 258.088C393.865 259.374 388.229 258.665 385.86 257.068C383.688 255.605 381.576 253.029 379.836 251.053C375.716 246.376 372.067 236.952 381.384 234.573C384.048 233.893 386.383 234.572 388.432 236.237C391.491 238.722 393.671 242.324 395.991 245.464C397.425 247.406 399.213 249.4 400.237 251.609C400.417 251.996 401.099 251.716 400.935 251.314C398.901 246.33 393.969 240.998 390.479 236.981C386.588 232.502 379.24 231.998 375.795 237.61C370.933 245.529 381.349 255.436 387.367 259.229C392.633 262.552 401.524 257.958 400.761 251.416C400.733 251.174 400.369 251.16 400.373 251.416Z" fill="#D0CDD7"/>
<path d="M400.036 335.585L479.972 366.853L469.159 345.096L400.036 318.658L392.212 334.232L400.036 335.585Z" fill="#93654C"/>
<path d="M432.191 269.818L500.951 463.887L518.042 461.183L452.522 275.378L432.191 269.818Z" fill="#B27C5B"/>
<path d="M422.402 266.028L346.406 397.042H364.816L435.178 278.248L432.191 269.818L422.402 266.028Z" fill="#93654C"/>
<g opacity="0.330002">
<g opacity="0.330002">
<path opacity="0.330002" d="M258.96 281.304C272.39 277.109 347.536 251.936 356.797 248.832C357.365 248.641 357.981 248.832 358.349 249.304L379.182 275.942C379.782 276.71 379.446 277.837 378.525 278.152L282.324 310.897C281.77 311.086 281.158 310.914 280.785 310.465L258.306 283.553C257.661 282.781 257.998 281.604 258.96 281.304Z" fill="#353535"/>
</g>
</g>
<path d="M257.77 277.973V279.622C257.77 279.944 257.885 280.253 258.093 280.497L281.634 308.034C281.993 308.454 282.573 308.612 283.096 308.433L380.35 274.954C380.893 274.769 381.257 274.257 381.257 273.682C381.257 272.921 381.257 272.289 380.813 272.198L259.068 276.628C258.344 276.654 257.77 277.248 257.77 277.973Z" fill="#D0CDD7"/>
<path d="M257.77 276.674C258.98 276.688 358.584 243.296 358.584 243.296L381.257 272.29L282.256 305.988L257.77 276.674Z" fill="#EEEEEE"/>
<path d="M264.677 277.789L266.157 279.4L271.468 277.399L270.357 275.863L264.677 277.789Z" fill="#D0CDD7"/>
<path d="M272.449 274.874L273.963 276.455L279.229 274.345L278.088 272.831L272.449 274.874Z" fill="#D0CDD7"/>
<path d="M280.8 272.136L282.313 273.717L287.581 271.607L286.438 270.093L280.8 272.136Z" fill="#D0CDD7"/>
<path d="M289.15 269.398L290.664 270.979L295.932 268.868L294.789 267.355L289.15 269.398Z" fill="#D0CDD7"/>
<path d="M297.501 266.659L299.015 268.241L304.281 266.13L303.14 264.617L297.501 266.659Z" fill="#D0CDD7"/>
<path d="M305.852 263.921L307.365 265.502L312.633 263.392L311.49 261.878L305.852 263.921Z" fill="#D0CDD7"/>
<path d="M314.203 261.183L315.716 262.764L320.984 260.653L319.841 259.14L314.203 261.183Z" fill="#D0CDD7"/>
<path d="M322.554 258.444L324.067 260.026L329.334 257.915L328.192 256.403L322.554 258.444Z" fill="#D0CDD7"/>
<path d="M330.904 255.706L332.418 257.287L337.686 255.177L336.543 253.665L330.904 255.706Z" fill="#D0CDD7"/>
<path d="M339.255 252.968L340.768 254.549L346.036 252.44L344.893 250.927L339.255 252.968Z" fill="#D0CDD7"/>
<path d="M347.606 250.23L349.12 251.811L354.386 249.702L353.245 248.188L347.606 250.23Z" fill="#D0CDD7"/>
<path d="M275.969 284.101L271.404 286.111L268.762 282.487L273.274 280.653L275.969 284.101Z" fill="#D0CDD7"/>
<path d="M283.274 281.192L278.708 283.203L276.067 279.58L280.579 277.744L283.274 281.192Z" fill="#D0CDD7"/>
<path d="M291.516 278.943L286.876 280.772L284.378 277.05L288.959 275.392L291.516 278.943Z" fill="#D0CDD7"/>
<path d="M298.929 276.323L294.289 278.153L291.79 274.43L296.372 272.773L298.929 276.323Z" fill="#D0CDD7"/>
<path d="M306.342 273.704L301.702 275.533L299.203 271.809L303.785 270.152L306.342 273.704Z" fill="#D0CDD7"/>
<path d="M313.755 271.084L309.114 272.913L306.617 269.189L311.197 267.532L313.755 271.084Z" fill="#D0CDD7"/>
<path d="M321.168 268.463L316.527 270.293L314.029 266.569L318.609 264.912L321.168 268.463Z" fill="#D0CDD7"/>
<path d="M328.58 265.843L323.94 267.673L321.442 263.949L326.023 262.292L328.58 265.843Z" fill="#D0CDD7"/>
<path d="M336.911 263.193L332.271 265.022L329.772 261.298L334.352 259.641L336.911 263.193Z" fill="#D0CDD7"/>
<path d="M345.24 260.542L340.6 262.373L338.102 258.649L342.683 256.991L345.24 260.542Z" fill="#D0CDD7"/>
<path d="M353.571 257.891L348.931 259.722L346.432 255.998L351.012 254.34L353.571 257.891Z" fill="#D0CDD7"/>
<path d="M361.902 255.241L357.261 257.071L354.763 253.348L359.343 251.691L361.902 255.241Z" fill="#D0CDD7"/>
<path d="M280.151 288.891L275.586 290.902L272.945 287.279L277.457 285.443L280.151 288.891Z" fill="#D0CDD7"/>
<path d="M287.456 285.983L282.891 287.994L280.249 284.37L284.761 282.535L287.456 285.983Z" fill="#D0CDD7"/>
<path d="M295.699 283.734L291.059 285.564L288.56 281.84L293.141 280.183L295.699 283.734Z" fill="#D0CDD7"/>
<path d="M303.112 281.114L298.471 282.944L295.973 279.22L300.553 277.563L303.112 281.114Z" fill="#D0CDD7"/>
<path d="M310.525 278.494L305.884 280.325L303.386 276.601L307.966 274.943L310.525 278.494Z" fill="#D0CDD7"/>
<path d="M317.938 275.874L313.296 277.703L310.799 273.981L315.379 272.323L317.938 275.874Z" fill="#D0CDD7"/>
<path d="M325.35 273.254L320.71 275.084L318.212 271.361L322.792 269.704L325.35 273.254Z" fill="#D0CDD7"/>
<path d="M332.762 270.635L328.122 272.464L325.624 268.74L330.205 267.083L332.762 270.635Z" fill="#D0CDD7"/>
<path d="M341.093 267.984L336.453 269.814L333.954 266.09L338.534 264.433L341.093 267.984Z" fill="#D0CDD7"/>
<path d="M349.424 265.334L344.783 267.163L342.285 263.439L346.865 261.782L349.424 265.334Z" fill="#D0CDD7"/>
<path d="M357.753 262.683L353.113 264.512L350.615 260.789L355.195 259.132L357.753 262.683Z" fill="#D0CDD7"/>
<path d="M366.084 260.032L361.443 261.862L358.945 258.138L363.525 256.481L366.084 260.032Z" fill="#D0CDD7"/>
<path d="M284.684 294.122L280.118 296.132L277.477 292.51L281.989 290.674L284.684 294.122Z" fill="#D0CDD7"/>
<path d="M291.988 291.214L287.423 293.225L284.781 289.601L289.293 287.766L291.988 291.214Z" fill="#D0CDD7"/>
<path d="M300.231 288.964L295.591 290.795L293.093 287.071L297.674 285.413L300.231 288.964Z" fill="#D0CDD7"/>
<path d="M307.644 286.344L303.004 288.175L300.505 284.451L305.087 282.793L307.644 286.344Z" fill="#D0CDD7"/>
<path d="M315.057 283.724L310.417 285.555L307.918 281.831L312.499 280.174L315.057 283.724Z" fill="#D0CDD7"/>
<path d="M322.47 281.105L317.83 282.934L315.331 279.211L319.912 277.554L322.47 281.105Z" fill="#D0CDD7"/>
<path d="M329.882 278.485L325.242 280.314L322.744 276.592L327.325 274.934L329.882 278.485Z" fill="#D0CDD7"/>
<path d="M337.295 275.865L332.655 277.694L330.156 273.97L334.738 272.313L337.295 275.865Z" fill="#D0CDD7"/>
<path d="M345.626 273.214L340.986 275.045L338.487 271.321L343.067 269.663L345.626 273.214Z" fill="#D0CDD7"/>
<path d="M353.955 270.564L349.315 272.394L346.817 268.67L351.398 267.012L353.955 270.564Z" fill="#D0CDD7"/>
<path d="M362.286 267.913L357.646 269.743L355.147 266.02L359.727 264.363L362.286 267.913Z" fill="#D0CDD7"/>
<path d="M370.615 265.262L365.975 267.093L363.477 263.369L368.058 261.711L370.615 265.262Z" fill="#D0CDD7"/>
<path d="M288.771 299.308L284.206 301.318L281.564 297.694L286.076 295.86L288.771 299.308Z" fill="#D0CDD7"/>
<path d="M296.075 296.399L291.51 298.41L288.868 294.787L293.38 292.951L296.075 296.399Z" fill="#D0CDD7"/>
<path d="M304.319 294.15L299.679 295.979L297.18 292.257L301.761 290.599L304.319 294.15Z" fill="#D0CDD7"/>
<path d="M311.731 291.53L307.091 293.36L304.593 289.636L309.174 287.978L311.731 291.53Z" fill="#D0CDD7"/>
<path d="M319.144 288.911L314.504 290.74L312.005 287.016L316.587 285.359L319.144 288.911Z" fill="#D0CDD7"/>
<path d="M326.557 286.289L321.917 288.12L319.418 284.396L323.999 282.739L326.557 286.289Z" fill="#D0CDD7"/>
<path d="M333.97 283.67L329.33 285.5L326.831 281.776L331.412 280.119L333.97 283.67Z" fill="#D0CDD7"/>
<path d="M341.382 281.05L336.742 282.881L334.244 279.157L338.825 277.499L341.382 281.05Z" fill="#D0CDD7"/>
<path d="M349.713 278.4L345.073 280.229L342.574 276.505L347.154 274.848L349.713 278.4Z" fill="#D0CDD7"/>
<path d="M358.043 275.749L353.403 277.578L350.904 273.856L355.485 272.198L358.043 275.749Z" fill="#D0CDD7"/>
<path d="M366.373 273.098L361.733 274.929L359.235 271.205L363.815 269.547L366.373 273.098Z" fill="#D0CDD7"/>
<path d="M374.703 270.448L370.063 272.278L367.564 268.555L372.145 266.898L374.703 270.448Z" fill="#D0CDD7"/>
<path d="M358.477 242.911C324.873 254.037 291.268 265.163 257.664 276.289C257.496 276.345 257.369 276.491 257.369 276.674C257.369 280.801 257.949 280.945 260.655 284.094C265.092 289.263 269.539 294.426 274.016 299.562C275.968 301.801 279.576 307.942 282.505 309.003C284.061 309.569 287.247 307.435 289.117 306.782C311.503 298.969 333.955 291.349 356.373 283.631C364.4 280.867 372.429 278.105 380.456 275.342C380.941 275.175 380.732 274.402 380.244 274.57C349.352 285.203 318.304 295.458 287.549 306.477C283.108 308.069 283.108 308.619 280.091 305.259C276.463 301.221 272.923 297.099 269.372 292.993C267.387 290.697 255.469 279.865 258.387 276.891C259.424 275.833 262.959 275.378 264.329 274.923L275.56 271.205C286.048 267.734 296.536 264.261 307.024 260.789C324.245 255.086 341.468 249.385 358.691 243.683C359.176 243.522 358.968 242.749 358.477 242.911Z" fill="#A5A4A5"/>
<path d="M258.024 276.192C265.729 285.856 273.661 295.413 281.801 304.715C282.08 305.031 282.512 304.575 282.257 304.259C274.514 294.635 266.484 285.168 258.306 275.909C258.133 275.713 257.866 275.996 258.024 276.192Z" fill="#A5A4A5"/>
<path d="M177.486 298.589C177.486 300.096 172.638 301.318 166.657 301.318C160.677 301.318 155.827 300.096 155.827 298.589C155.827 297.081 160.677 295.86 166.657 295.86C172.638 295.86 177.486 297.081 177.486 298.589Z" fill="#CB9774"/>
<path d="M247.313 239.401C255.422 247.858 250.118 259.942 238.793 260.678C233.441 261.026 227.829 259.649 222.438 259.622C213.287 259.574 204.034 260.934 195.539 264.44C180.499 270.648 169.875 285.186 167.423 301.16C167.31 301.908 168.453 302.23 168.569 301.476C170.433 289.34 177.163 277.696 187.13 270.394C197.414 262.86 211.111 260.612 223.581 260.82C232.234 260.964 243.563 264.624 249.715 256.373C253.898 250.764 252.53 243.668 247.657 239.057C247.429 238.841 247.094 239.174 247.313 239.401Z" fill="#122041"/>
<path d="M135.842 398.381L215.778 429.649L204.963 407.893L135.842 381.454L128.017 397.027L135.842 398.381Z" fill="#93654C"/>
<path d="M167.997 332.615L236.757 526.683L253.846 523.979L189.273 340.855L167.997 332.615Z" fill="#B27C5B"/>
<path d="M158.207 328.823L82.2112 459.839H100.622L170.983 341.045L167.997 332.615L158.207 328.823Z" fill="#93654C"/>
<path d="M213.248 292.775C213.248 292.775 193.887 299.066 197.616 306.627C201.346 314.187 216.174 315.286 226.392 313.893C237.236 312.414 249.219 305.901 245.26 296.702C241.302 287.505 213.248 292.775 213.248 292.775Z" fill="#D2D7FF"/>
<path d="M201.361 280.609L209.483 301.739C209.78 302.474 212.231 304.923 212.983 305.177C216.185 306.251 225.249 308.365 233.736 301.637L235.396 276.975C235.407 274.23 234.027 271.642 231.681 270.213C227.963 267.946 221.319 265.709 211.117 268.393C200.224 271.259 201.361 280.609 201.361 280.609Z" fill="#B1B6F8"/>
<path d="M236 279.023C239.557 276.988 242.685 280.713 242.068 284.201C241.593 286.887 238.593 291.211 235.415 289.617C233.503 288.66 231.812 291.533 233.732 292.495C239.333 295.303 244.965 289.447 245.459 284.023C246.013 277.919 239.973 272.909 234.317 276.144C232.456 277.209 234.133 280.089 236 279.023Z" fill="#B1B6F8"/>
<path d="M232.871 276.286C232.263 278.198 230.889 279.814 229.133 280.784C227.377 281.756 225.377 282.187 223.393 282.482C217.965 283.292 212.399 283.166 207.014 282.114C205.91 281.898 204.759 281.615 203.931 280.854C202.621 279.644 202.53 277.502 203.319 275.903C204.109 274.303 205.591 273.16 207.125 272.251C214.614 267.807 225.625 268.388 231.341 272.087C231.341 272.087 233.683 273.732 232.871 276.286" fill="#CB9774"/>
<path d="M203.327 279.133C202.306 272.012 213.35 269.719 218.13 269.508C222.871 269.3 228.942 270.199 232.067 274.129C232.344 274.479 232.935 274.021 232.686 273.653C229.055 268.277 220.136 267.931 214.411 269.041C209.606 269.973 200.948 272.967 202.731 279.299C202.842 279.692 203.383 279.516 203.327 279.133Z" fill="#939BD6"/>
<path d="M233.664 301.512C226.998 305.558 215.923 310.322 210.375 301.802C207.047 296.692 205.464 289.04 203.284 283.322C201.283 278.071 200.752 273.744 206.644 270.388C211.806 267.448 219.548 267.01 225.279 268.088C236.824 270.262 235.066 279.874 234.327 288.847C233.975 293.104 233.596 297.368 233.408 301.636C233.39 302.063 234.027 302.05 234.064 301.636C234.775 293.788 236.587 284.275 235.752 276.511C234.575 265.564 218.966 265.943 211.164 267.942C206.716 269.08 202.559 271.286 201.179 275.962C199.608 281.28 204.272 287.995 206.102 292.763C208.496 298.999 208.944 305.471 216.224 306.864C222.562 308.076 228.948 305.667 233.839 301.738C233.967 301.635 233.802 301.43 233.664 301.512Z" fill="#939BD6"/>
<path d="M213.321 287.594C213.383 288.228 213.487 288.84 213.623 289.46C213.752 290.058 213.787 290.782 214.159 291.278C214.344 291.524 214.851 291.57 214.913 291.18C215.009 290.58 214.783 290.048 214.623 289.47C214.436 288.8 214.241 288.15 213.977 287.506C213.849 287.192 213.281 287.182 213.321 287.594Z" fill="#122041"/>
<path d="M217.227 287.146C217.307 287.761 217.36 288.374 217.453 288.989C217.545 289.597 217.532 290.276 217.817 290.828C217.975 291.129 218.489 291.068 218.56 290.73C218.683 290.149 218.496 289.57 218.363 289.001C218.204 288.324 217.971 287.721 217.705 287.081C217.612 286.856 217.187 286.846 217.227 287.146Z" fill="#122041"/>
<path d="M210.854 291.659C211.348 294.77 214.8 296.223 217.651 295.597C220.716 294.923 222.676 291.91 222.182 288.846C222.082 288.234 221.134 288.402 221.126 288.989C221.088 291.617 219.808 293.997 217.066 294.595C214.458 295.165 212.564 293.393 211.099 291.518C210.998 291.387 210.834 291.535 210.854 291.659Z" fill="#122041"/>
<path d="M206.757 294.453C202.693 296.34 194.526 300.293 196.077 306.049C198.103 313.569 210.61 314.935 216.765 315.255C225.898 315.727 236.747 314.536 243.19 307.211C247.157 302.703 248.269 296.043 242.743 292.423C242.122 292.015 241.583 292.984 242.169 293.404C252.581 300.849 238.498 310.853 232.289 312.788C226.982 314.44 221.138 314.66 215.619 314.248C211.529 313.943 198.789 312.363 197.617 307.007C196.274 300.881 202.351 296.931 206.905 294.707C207.077 294.624 206.926 294.375 206.757 294.453Z" fill="#939BD6"/>
<g opacity="0.240005">
<g opacity="0.240005">
<path opacity="0.240005" d="M203.554 279.314C205.562 273.064 212.163 270.726 218.215 270.573C222.878 270.456 230.363 271.149 231.464 277.002C231.602 277.732 232.832 277.574 232.772 276.825C231.762 264.462 203.252 267.034 202.934 279.23C202.924 279.596 203.447 279.645 203.554 279.314Z" fill="#122041"/>
</g>
</g>
<g opacity="0.240005">
<g opacity="0.240005">
<path opacity="0.240005" d="M211.258 276.976C208.307 275.66 206.551 272.109 207.294 268.962C207.893 266.425 209.838 264.438 211.849 262.78C213.862 261.12 216.065 259.605 217.533 257.449C219.001 255.294 219.555 252.249 218.045 250.122C216.353 247.742 212.837 247.393 210.875 245.228C209.309 243.498 209.051 240.876 209.686 238.63C210.321 236.386 211.722 234.442 213.183 232.624C211.775 235.05 212.674 238.29 214.558 240.369C216.443 242.448 219.103 243.621 221.697 244.694C224.29 245.766 226.971 246.844 228.985 248.8C233.066 252.765 233.065 260.142 228.983 264.108C228.243 264.826 227.391 265.448 226.805 266.296C226.219 267.145 225.953 268.329 226.505 269.201C226.847 269.744 227.438 270.07 227.894 270.522C229.217 271.836 229.175 274.134 228.11 275.664C227.045 277.192 225.186 278.014 223.337 278.244C221.487 278.473 219.618 278.184 217.777 277.893" fill="white"/>
</g>
</g>
<g opacity="0.330002">
<g opacity="0.330002">
<path opacity="0.330002" d="M196.095 305.387C195.66 309.976 198.764 314.371 202.802 316.599C206.839 318.826 211.63 319.238 216.238 319.068C221.467 318.876 226.731 317.979 231.492 315.807C236.255 313.636 240.499 310.118 242.972 305.506C238.376 311.187 230.995 314.131 223.7 314.555C216.406 314.979 209.155 313.126 202.302 310.588C200.943 310.086 199.572 309.544 198.423 308.662C197.274 307.779 196.352 306.502 196.214 305.059" fill="#353535"/>
</g>
</g>
<path d="M253.449 59.0291L261.149 92.2478L313.098 83.8958L305.465 50.1131L253.449 59.0291Z" fill="#8181EE"/>
<path d="M273.137 67.9495L275.124 77.4872L274.129 77.6944L273.212 73.2935L267.244 74.5369L268.161 78.9379L267.153 79.1479L265.166 69.6103L266.174 69.4002L267.06 73.6513L273.028 72.4078L272.142 68.1568L273.137 67.9495ZM278.284 67.7868L274.933 68.4852L274.751 67.6132L282.463 66.0063L282.644 66.8784L279.293 67.5767L281.098 76.2424L280.09 76.4524L278.284 67.7868ZM293.979 63.6068L295.966 73.1445L294.999 73.346L293.409 65.7159L290.999 72.9141L290.522 73.0135L285.447 67.4176L287.028 75.0068L286.061 75.2084L284.073 65.6707L284.905 65.4976L290.52 71.706L293.148 63.78L293.979 63.6068ZM297.087 62.9593L298.095 62.7492L299.9 71.4149L305.241 70.302L305.423 71.174L299.074 72.497L297.087 62.9593Z" fill="white"/>
<path d="M298.983 84.9426C298.983 84.9426 306.497 94.1639 306.326 93.6519C306.155 93.1386 304.906 83.5759 304.906 83.5759L297.798 84.2599" fill="#8181EE"/>
<path d="M519.238 75.2083C514.24 77.1976 509.444 79.4803 504.788 82.1816C504.471 82.3656 504.527 82.7643 504.788 82.9589C509.275 86.3163 513.872 89.5256 518.344 92.9029C518.767 93.2229 519.234 92.7709 519.283 92.3643C519.955 86.7923 520.03 81.1803 519.735 75.5789C519.688 74.7029 518.318 74.6989 518.367 75.5789C518.678 81.1989 518.491 86.7603 518.035 92.3643C518.348 92.1843 518.66 92.0056 518.974 91.8256C516.84 90.3709 514.735 88.8803 512.631 87.3843C511.579 86.6363 510.527 85.8869 509.474 85.1403C509.178 84.9309 506.356 83.2323 506.306 82.9136C505.992 80.9589 517.711 76.5403 519.415 75.8523C519.81 75.6949 519.639 75.0483 519.238 75.2083Z" fill="#B892D1"/>
<path d="M153.063 18.1047C148.066 20.0954 143.27 22.3767 138.614 25.0781C138.297 25.2634 138.353 25.6607 138.614 25.8554C143.102 29.2127 147.698 32.4221 152.17 35.7994C152.593 36.1194 153.059 35.6674 153.109 35.2607C153.781 29.6887 153.855 24.0767 153.561 18.4754C153.514 17.5994 152.143 17.5954 152.191 18.4754C152.505 24.0954 152.317 29.6567 151.861 35.2607C152.174 35.0807 152.486 34.9021 152.799 34.7221C150.666 33.2687 148.561 31.7767 146.457 30.2807C145.403 29.5327 144.353 28.7834 143.299 28.0367C143.005 27.8274 140.182 26.1301 140.131 25.8101C139.818 23.8554 151.538 19.4367 153.241 18.7501C153.634 18.5914 153.465 17.9447 153.063 18.1047Z" fill="#B892D1"/>
<path d="M367.39 42.528C370.41 49.4613 373.862 56.0973 377.875 62.508C378.065 62.8093 378.462 62.7867 378.654 62.508C383.162 55.9933 387.519 49.3747 392.047 42.8733C392.342 42.452 391.938 41.9707 391.51 41.9347C383.594 41.2747 375.669 41.3947 367.759 42.0627C366.889 42.1373 366.881 43.508 367.759 43.432C373.231 42.9573 378.71 42.7347 384.202 42.86C385.095 42.88 387.874 42.5827 388.771 43.0333C390.293 43.7973 390.249 43 388.991 45.312C387.703 47.68 385.922 49.9147 384.43 52.1533C382.943 54.3827 381.59 56.9453 379.875 58.9973C379.146 59.8693 379.077 60.8333 377.717 60.5907C377.069 60.476 375.769 57.3987 375.463 56.8773C372.682 52.132 370.179 47.2267 367.967 42.1907C367.795 41.7973 367.219 42.1373 367.39 42.528Z" fill="#B892D1"/>
<path d="M402.157 170.781C405.78 171.351 408.99 174.198 409.265 177.999C409.561 182.119 406.096 186.121 401.876 186.21C398.096 186.29 394.361 182.951 394.152 179.142C393.924 174.997 397.158 171.83 400.984 171.021C401.576 170.895 401.456 169.866 400.838 169.946C396.376 170.525 392.657 174.49 392.945 179.142C393.222 183.634 397.386 187.451 401.876 187.386C406.209 187.322 410.092 183.538 410.394 179.25C410.733 174.453 406.833 170.591 402.244 170.137C401.881 170.099 401.793 170.723 402.157 170.781Z" fill="#B892D1"/>
<path d="M440.259 37.3646C441.315 37.594 442.277 38.4713 442.328 39.6033C442.38 40.7486 441.392 41.866 440.224 41.8966C439.172 41.9233 438.133 40.986 438.055 39.9366C437.963 38.7113 438.963 37.8993 440.023 37.586C440.597 37.4153 440.512 36.4793 439.877 36.5113C438.147 36.5953 436.765 38.206 436.848 39.9366C436.931 41.6446 438.523 43.0993 440.224 43.0726C441.872 43.046 443.344 41.614 443.425 39.9726C443.511 38.1993 442.065 36.7913 440.345 36.7206C439.98 36.7046 439.896 37.286 440.259 37.3646Z" fill="#B892D1"/>
<path d="M99.6232 86.2225C100.679 86.4519 101.642 87.3292 101.693 88.4612C101.745 89.6052 100.757 90.7239 99.5872 90.7532C98.5365 90.7812 97.4979 89.8439 97.4192 88.7945C97.3272 87.5692 98.3285 86.7572 99.3872 86.4425C99.9605 86.2732 99.8765 85.3372 99.2419 85.3679C97.5112 85.4519 96.1285 87.0639 96.2125 88.7945C96.2952 90.5025 97.8885 91.9572 99.5872 91.9305C101.237 91.9039 102.709 90.4719 102.79 88.8305C102.875 87.0572 101.43 85.6492 99.7099 85.5785C99.3445 85.5625 99.2592 86.1425 99.6232 86.2225Z" fill="#B892D1"/>
<path d="M128.331 154.662C131.952 155.233 135.164 158.079 135.438 161.881C135.735 166.001 132.268 170.002 128.048 170.091C124.27 170.171 120.535 166.833 120.326 163.023C120.096 158.878 123.331 155.711 127.158 154.902C127.75 154.777 127.628 153.747 127.012 153.827C122.55 154.406 118.831 158.371 119.118 163.023C119.396 167.515 123.559 171.333 128.048 171.267C132.383 171.203 136.266 167.419 136.568 163.131C136.906 158.334 133.006 154.473 128.418 154.018C128.054 153.981 127.966 154.605 128.331 154.662Z" fill="#B892D1"/>
<path d="M529.026 145.524C526.506 150.943 524.758 156.908 522.92 162.588C522.688 163.305 523.794 163.596 524.042 162.897C526.018 157.3 528.24 151.531 529.518 145.731C529.579 145.451 529.162 145.233 529.026 145.524Z" fill="#B892D1"/>
<path d="M518.657 151.796C524.216 154.262 530.041 156.236 535.776 158.248C536.58 158.531 536.917 157.266 536.128 156.976C530.46 154.911 524.746 152.755 518.929 151.151C518.557 151.048 518.282 151.63 518.657 151.796Z" fill="#B892D1"/>
<path d="M191.323 68.2357C192.11 74.4317 193.974 80.9663 197.006 86.4557C197.274 86.941 198.136 86.609 197.926 86.0677C195.591 80.0837 193.546 74.393 192.023 68.141C191.931 67.761 191.271 67.8303 191.323 68.2357Z" fill="#B892D1"/>
<path d="M198.268 85.5247C203.446 85.186 208.64 84.3727 213.778 83.6607C214.354 83.5807 214.223 82.5594 213.639 82.6354C208.495 83.3007 203.27 83.886 198.187 84.9234C197.852 84.9927 197.923 85.5474 198.268 85.5247Z" fill="#B892D1"/>
<path d="M214.616 82.5559C213.735 77.3279 211.993 71.8972 210.367 66.8532C210.127 66.1106 208.997 66.4132 209.192 67.1772C210.495 72.3199 211.905 77.8452 213.935 82.7439C214.108 83.1612 214.693 83.0106 214.616 82.5559Z" fill="#B892D1"/>
<path d="M191.717 68.3014C197.281 67.9347 202.842 67.3054 208.385 66.7081C209.101 66.6307 209.11 65.5014 208.385 65.5774C202.793 66.1587 197.177 66.7161 191.612 67.5281C191.176 67.5921 191.276 68.3307 191.717 68.3014Z" fill="#B892D1"/>
<path d="M504.579 3.34249C505.367 9.53849 507.228 16.0745 510.262 21.5625C510.53 22.0478 511.392 21.7158 511.18 21.1745C508.847 15.1905 506.802 9.49982 505.279 3.24782C505.187 2.86782 504.528 2.93716 504.579 3.34249Z" fill="#B892D1"/>
<path d="M511.524 20.6321C516.702 20.2921 521.896 19.4801 527.035 18.7668C527.61 18.6868 527.48 17.6655 526.895 17.7415C521.751 18.4081 516.526 18.9935 511.443 20.0308C511.108 20.0988 511.179 20.6548 511.524 20.6321Z" fill="#B892D1"/>
<path d="M527.872 17.6627C526.99 12.4347 525.248 7.00403 523.621 1.96137C523.382 1.21737 522.253 1.52003 522.448 2.28403C523.749 7.4267 525.161 12.952 527.19 17.8507C527.364 18.268 527.949 18.1187 527.872 17.6627Z" fill="#B892D1"/>
<path d="M504.973 3.40821C510.537 3.04154 516.097 2.41221 521.641 1.81487C522.356 1.73754 522.367 0.608207 521.641 0.684207C516.049 1.26554 510.432 1.82287 504.868 2.63487C504.431 2.69887 504.532 3.43754 504.973 3.40821Z" fill="#B892D1"/>
<g opacity="0.330002">
<g opacity="0.330002">
<path opacity="0.330002" d="M178.728 337.159L245.423 525.311L236.757 526.683L167.997 332.615L178.728 337.159Z" fill="#353535"/>
</g>
</g>
<g opacity="0.330002">
<g opacity="0.330002">
<path opacity="0.330002" d="M142.793 388.64L195.635 410.621L200.498 423.672L135.842 398.381L142.793 388.64Z" fill="#353535"/>
</g>
</g>
<g opacity="0.330002">
<g opacity="0.330002">
<path opacity="0.330002" d="M167.997 332.615C165.254 333.17 91.3036 459.839 91.3036 459.839H82.2116L158.208 328.823L167.997 332.615Z" fill="#353535"/>
</g>
</g>
<path d="M141.172 281.175C142.873 283.711 145.827 285.22 148.844 285.692C151.863 286.163 154.953 285.695 157.912 284.935C160.325 284.315 162.863 283.376 164.259 281.312C165.54 279.416 165.591 276.975 165.596 274.687C165.608 269.607 165.62 264.53 165.632 259.451C165.637 257.218 165.512 254.684 163.815 253.232C160.821 250.672 155.653 253.59 152.453 251.292C151.064 250.294 150.371 248.488 148.88 247.65C146.789 246.478 144.009 247.828 142.792 249.894C141.575 251.958 141.503 254.478 141.463 256.872L141.063 281.49" fill="#8F9DFA"/>
<g opacity="0.600006">
<g opacity="0.600006">
<path opacity="0.600006" d="M144.661 195.559V217.373C144.661 217.373 138.082 222.913 138.429 232.954C138.774 242.995 138.416 284.198 138.416 284.198C148.345 290.861 158.276 290.861 168.205 284.198L166.821 231.223C166.821 231.223 166.474 222.221 160.242 218.065V195.559H144.661Z" fill="white"/>
</g>
</g>
<path d="M144.492 196.131C149.316 199.681 155.914 199.211 160.908 196.307C161.418 196.011 160.954 195.215 160.444 195.515C155.192 198.599 150.141 198.095 144.781 195.634C144.442 195.479 144.193 195.911 144.492 196.131Z" fill="#122041"/>
<path d="M138.11 285.342C147.479 292.078 159.358 291.5 168.428 284.546C168.912 284.176 168.439 283.34 167.943 283.715C158.859 290.579 148.066 290.695 138.476 284.716C138.074 284.466 137.738 285.075 138.11 285.342Z" fill="#122041"/>
<g opacity="0.330002">
<g opacity="0.330002">
<path opacity="0.330002" d="M138.395 285.14C138.055 288.892 140.727 292.485 144.171 294.013C147.615 295.543 151.627 295.296 155.233 294.208C160.665 292.569 165.512 289.056 168.757 284.401C163.851 286.343 158.873 288.301 153.631 288.892C148.387 289.483 142.756 288.549 138.659 285.224" fill="#353535"/>
</g>
</g>
<path d="M329.548 287.298C331.92 283.51 334.132 279.579 336.274 275.658C336.516 275.215 335.854 274.827 335.6 275.263C333.332 279.115 331.094 283.032 329.062 287.014C328.898 287.335 329.353 287.606 329.548 287.298Z" fill="#122041"/>
<path d="M405.502 459.517C405.502 460.495 409.415 474.189 409.415 474.189L429.955 471.255L424.618 454.176L405.502 459.517Z" fill="#F4F4F4"/>
<path d="M349.779 489.313C349.779 490.29 353.693 503.985 353.693 503.985L374.233 501.05L368.895 483.972L349.779 489.313Z" fill="#F4F4F4"/>
<path d="M345.519 340.721C345.519 340.721 341.168 323.982 362.239 322.187C378.275 320.819 414.875 329.449 414.875 329.449L404.679 365.989L345.519 340.721Z" fill="#202732"/>
<path d="M357.72 366.853L399.105 472.395L434.608 462.188L408.756 391.572L357.72 366.853Z" fill="#202732"/>
<path d="M408.756 335.227C408.756 335.227 328.296 319.54 310.348 339.856C300.769 350.698 344.175 494.328 344.175 494.328L380.849 489.094L356.505 380.08C356.505 380.08 456.884 402.763 459.765 350.248" fill="#303848"/>
<path d="M432.976 157.57C432.835 162.94 432.693 168.311 432.552 173.682C432.527 174.607 432.507 175.562 432.839 176.427C433.171 177.292 433.945 178.055 434.872 178.08" fill="#FFB79C"/>
<path d="M434.309 144.618C430.836 145.064 427.111 144.119 424.012 142.484C422.096 141.474 421.487 138.772 422.913 134.646C423.404 133.223 425.679 131.783 427.177 131.908C429.721 132.123 430.375 132.463 431.531 131.502C428.813 130.707 427.504 127.126 428.741 124.58C429.981 122.035 433.205 120.802 435.956 121.468C439.619 122.355 442.004 125.838 445.261 127.732C449.151 129.994 453.961 129.823 458.421 129.232C462.883 128.643 467.433 127.704 471.832 128.65C478.52 130.088 483.709 135.826 485.959 142.287C488.208 148.748 487.909 155.832 486.751 162.574C486.057 166.616 485.06 170.719 485.7 174.768C485.957 176.402 486.479 177.99 486.667 179.632C486.855 181.275 486.665 183.054 485.652 184.36C484.637 185.667 473.408 185.83 472.039 184.904" fill="#122041"/>
<path d="M435.752 140.432C434.209 140.432 432.936 141.643 432.865 143.184C432.395 153.504 432.573 187.202 441.401 192.508C445.593 195.028 456.628 192.93 456.628 192.93L459.405 217.922L486.808 216.006L482.569 184.763C482.569 184.763 472.213 187.764 472.609 167.09C472.609 167.09 483.843 164.071 479.297 153.495C476.203 146.294 462.083 147.827 463.701 159.947L459.14 161.147L454.372 142.68C454.248 140.878 452.751 139.48 450.945 139.48L435.752 140.432Z" fill="#FFB79C"/>
<path d="M459.167 205.121C459.167 205.121 438.127 206.324 432.641 224.117L424.329 281.968L412.362 337.918L454.481 350.416L493.969 353.089C493.969 353.089 506.002 284.73 512.029 256.205C517.207 231.693 512.221 221.146 510.121 218.006C509.566 217.177 509.091 216.3 508.619 215.418C506.271 211.03 487.526 200.162 459.167 205.121Z" fill="#9C72B3"/>
<path d="M328.58 287.39C328.58 287.39 386.175 318.58 393.591 314.066C401.007 309.551 429.424 275.487 429.424 275.487L435.796 218.685L383.912 288.898L335.868 275.011L328.58 287.39Z" fill="#9C72B3"/>
<path d="M438.205 159.485C438.067 160.29 437.939 161.328 438.156 162.121C438.28 162.569 438.952 162.576 439.072 162.121C439.284 161.325 439.145 160.29 439.001 159.485C438.929 159.094 438.272 159.089 438.205 159.485Z" fill="#122041"/>
<path d="M437.96 154.008C438.464 153.794 438.904 153.56 439.471 153.577C440.006 153.593 440.404 153.864 440.895 154.025C441.223 154.133 441.566 153.713 441.36 153.418C440.539 152.233 438.255 152.361 437.456 153.504C437.218 153.842 437.663 154.133 437.96 154.008Z" fill="#122041"/>
<path d="M424.839 141.476C424.839 141.476 436.082 144.588 449.634 143.985C463.186 143.383 463.386 145.491 463.386 145.491L456.058 136.959L424.839 141.476Z" fill="#122041"/>
<path d="M479.41 127.683C479.444 126.035 479.986 124.483 480.263 122.878C480.318 122.554 479.902 122.342 479.714 122.647C478.776 124.167 478.752 125.961 478.872 127.683C478.896 128.025 479.402 128.033 479.41 127.683Z" fill="#122041"/>
<path d="M480.057 127.98C480.922 127.292 481.899 126.685 482.687 125.908C482.974 125.625 482.601 125.118 482.251 125.342C481.298 125.956 480.467 126.796 479.585 127.508C479.249 127.777 479.725 128.245 480.057 127.98Z" fill="#122041"/>
<g opacity="0.210007">
<g opacity="0.210007">
<path opacity="0.210007" d="M454.86 169.359C454.049 170.283 452.771 170.728 451.551 170.581C450.329 170.435 449.211 169.808 448.251 169.04C447.324 168.299 446.449 167.232 446.624 166.056C446.797 164.887 447.999 164.092 449.175 163.979C450.352 163.867 451.509 164.275 452.62 164.676C452.62 164.676 456.713 167.245 454.86 169.359" fill="#FF6E61"/>
</g>
</g>
<g opacity="0.210007">
<g opacity="0.210007">
<path opacity="0.210007" d="M471.739 153.39C469.691 153.601 468.83 153.67 467.747 155.422C467.195 156.317 466.851 157.37 466.947 158.418C467.05 159.531 467.654 160.57 468.498 161.303C470.092 162.686 472.6 162.926 474.383 161.802C476.168 160.677 477.03 158.243 476.272 156.274C475.518 154.305 473.179 153.067 471.146 153.625" fill="#FF6E61"/>
</g>
</g>
<path d="M472.494 152.289C469.97 152.966 468.298 155.294 468.629 157.918C468.674 158.282 469.221 158.565 469.421 158.133C469.856 157.196 470.512 156.429 471.521 156.08C472.953 155.584 474.661 156.186 474.678 157.917C474.702 160.585 471.958 161.252 469.874 160.9C469.48 160.832 469.177 161.373 469.582 161.59C472.39 163.089 476.233 160.3 475.39 157.108C474.456 153.561 469.845 155.334 468.688 157.705C468.95 157.776 469.214 157.848 469.478 157.918C469.216 155.668 470.452 153.562 472.652 152.861C473.014 152.746 472.865 152.189 472.494 152.289Z" fill="#122041"/>
<path d="M432.795 157.887C432.458 163.195 432.014 168.682 432.222 173.999C432.306 176.138 432.486 178.053 434.808 178.63C435.108 178.706 435.228 178.262 434.935 178.166C431.802 177.147 433.024 169.161 433.078 166.749C433.144 163.795 433.19 160.842 433.156 157.887C433.155 157.653 432.81 157.657 432.795 157.887Z" fill="#122041"/>
<path d="M440.139 181.633C441.809 181.871 443.603 180.765 444.763 179.651C446.148 178.321 446.944 176.532 447.127 174.633C447.181 174.065 446.324 174.088 446.252 174.633C446.024 176.377 445.328 178.003 444.057 179.248C442.895 180.385 441.499 180.711 440.112 181.433C440.035 181.473 440.044 181.62 440.139 181.633Z" fill="#122041"/>
<path d="M445.286 175.386C445.791 175.186 446.297 175.07 446.845 175.083C447.291 175.095 447.739 175.311 448.161 175.134C448.325 175.065 448.473 174.863 448.345 174.683C447.683 173.751 445.845 174.327 445.013 174.735C444.654 174.91 444.909 175.537 445.286 175.386Z" fill="#122041"/>
<path d="M406.108 402.047C406.108 402.047 426.476 412.645 451.664 409.545C474.552 406.727 489.708 394.867 489.708 394.867L406.108 402.047Z" fill="#CECCD2"/>
<path d="M485.705 252.023C485.705 252.023 464.123 254.519 459.403 278.405C455.764 296.828 456.753 340.836 446.832 368.124C442.799 379.215 428.703 385.071 416.925 385.795L376.737 386.124C376.737 386.124 364.364 402.813 433.02 402.325C433.02 402.325 468.5 403.125 487.313 395.884C502.723 389.955 512.771 378.477 518.995 366.417C525.22 354.356 530.915 331.627 533.833 314.508C536.751 297.389 540.004 263.903 538.252 259.041C536.503 254.177 532.417 251.813 524.831 252.023C517.244 252.232 485.705 252.023 485.705 252.023Z" fill="#A08B9B"/>
<path d="M441.572 410.113V483.698L450.975 482.807L451.955 408.761L441.572 410.113Z" fill="#CECCD2"/>
<path d="M445.912 474.189C445.912 474.189 391.084 474.405 402.271 499.681C412.962 523.84 466.143 522.96 484.662 512.243C500.214 503.243 504.975 477.965 445.912 474.189Z" fill="#CECCD2"/>
<path d="M441.431 469.148C440.345 479.473 437.997 491.292 425.267 491.387C424.931 491.389 424.847 491.9 425.185 491.983C437.881 495.06 441.731 478.047 441.775 469.148C441.776 468.923 441.455 468.932 441.431 469.148Z" fill="#122041"/>
<path d="M451.231 465.876C450.881 472.814 451.37 480.572 455.675 486.36C459.337 491.282 465.325 493.356 471.077 494.734C471.635 494.868 471.853 494.061 471.314 493.878C465.354 491.864 459.181 490.169 455.659 484.428C452.201 478.789 452.09 472.26 451.375 465.876C451.366 465.786 451.237 465.782 451.231 465.876Z" fill="#122041"/>
<g opacity="0.350006">
<g opacity="0.350006">
<path opacity="0.350006" d="M379.783 394.868C398.305 399.888 415.645 397.57 433.973 391.881C443.195 389.017 452.439 384.677 458.246 376.958C464.795 368.248 465.93 356.745 466.83 345.885C468.687 323.477 470.543 301.07 472.401 278.665C472.833 273.446 473.295 268.106 475.466 263.34C477.635 258.573 481.886 254.41 487.091 253.837L500.679 252.009C500.679 252.009 462.275 245.501 459.089 280.136C455.901 314.772 453.163 346.852 449.997 357.489C446.831 368.124 433.051 384.56 421.258 385.308C401.306 386.574 376.738 386.124 376.738 386.124C376.738 386.124 373.386 393.133 379.783 394.868Z" fill="#122041"/>
</g>
</g>
<path d="M379.115 395.048C399.794 396.369 424.382 396.6 443.702 387.932C458.811 381.154 465.113 365.824 467.351 350.198C468.763 340.334 468.481 330.18 469.167 320.242C470.042 307.553 471.342 294.897 473.111 282.301C474.147 274.924 474.241 265.096 479.483 259.206C484.486 253.586 493.837 252.905 500.773 252.532C510.245 252.024 536.739 247.509 538.249 261.86C538.314 262.488 539.303 262.5 539.243 261.86C538.067 249.448 522.334 250.904 513.518 251.08C503.182 251.289 489.263 250.101 480.649 256.742C477.162 259.432 475.53 263.458 474.489 267.637C471.697 278.857 470.821 290.957 469.661 302.437C468.421 314.717 467.645 327.026 467.275 339.362C466.921 351.166 465.175 363.308 459.135 373.688C452.058 385.849 438.627 390.322 425.433 392.518C410.17 395.057 394.539 395.394 379.115 394.604C378.829 394.589 378.831 395.029 379.115 395.048Z" fill="#122041"/>
<path d="M377.358 393.432C392.819 403.382 412.711 403.153 430.396 402.665C452.038 402.069 473.887 399.652 494.924 394.421C495.472 394.286 495.24 393.458 494.692 393.577C474.31 398.074 453.83 400.989 432.948 401.718C414.102 402.377 394.558 402.409 377.646 392.941C377.324 392.761 377.052 393.234 377.358 393.432Z" fill="#122041"/>
<path d="M374.233 501.05C374.233 501.05 378.901 515.579 378.79 516.558C378.679 517.535 320.397 514.247 323.983 511.314C327.569 508.379 331.519 505.827 354.442 506.195L353.693 503.985L374.233 501.05Z" fill="#48415F"/>
<path d="M429.955 471.254C429.955 471.254 434.623 485.784 434.513 486.762C434.402 487.74 376.119 484.452 379.705 481.518C383.291 478.584 387.242 476.032 410.165 476.4L409.415 474.189L429.955 471.254Z" fill="#48415F"/>
<path d="M323.566 513.073C341.903 515.909 360.706 516.633 379.21 517.703C379.915 517.743 379.921 516.627 379.21 516.601C360.609 515.96 342.19 513.752 323.643 512.503C323.321 512.481 323.241 513.024 323.566 513.073Z" fill="#122041"/>
<path d="M349.164 506.071C348.44 507.419 348.538 509.587 349.34 510.883C349.548 511.22 350.013 510.99 349.95 510.626C349.816 509.846 349.586 509.128 349.553 508.327C349.524 507.612 349.652 506.919 349.67 506.208C349.677 505.942 349.292 505.834 349.164 506.071Z" fill="#122041"/>
<path d="M351.653 505.899C351.393 507.418 351.409 509.582 352.512 510.803C352.746 511.063 353.086 510.776 353.044 510.492C352.934 509.772 352.549 509.094 352.382 508.376C352.198 507.588 352.07 506.759 352.026 505.95C352.016 505.748 351.69 505.676 351.653 505.899Z" fill="#122041"/>
<path d="M354.009 505.822C353.878 507.17 355.003 509.442 356.266 510.014C356.609 510.17 357.005 509.845 356.801 509.479C356.441 508.835 355.829 508.346 355.442 507.702C355.057 507.061 354.87 506.335 354.51 505.685C354.37 505.434 354.034 505.573 354.009 505.822Z" fill="#122041"/>
<path d="M354.35 505.932C355.428 506.158 356.508 506.434 357.618 506.476C358.036 506.492 358.143 505.809 357.718 505.733C356.62 505.534 355.507 505.569 354.4 505.558C354.191 505.556 354.136 505.888 354.35 505.932Z" fill="#122041"/>
<path d="M349.921 506.394C349.203 504.614 348.348 503.035 346.961 501.67C346.091 500.813 344.452 499.738 343.424 500.995C341.115 503.813 347.429 506.555 349.393 506.561C349.895 506.562 349.967 505.859 349.508 505.707C348.383 505.337 347.288 505.121 346.241 504.51C345.727 504.209 345.184 503.866 344.772 503.431C344.379 503.018 343.339 501.425 344.903 501.521C345.844 501.578 346.996 503.135 347.541 503.818C348.223 504.673 348.904 505.638 349.379 506.623C349.523 506.922 350.048 506.707 349.921 506.394Z" fill="#122041"/>
<path d="M350.192 506.111C351.215 504.701 351.424 502.709 351.214 501.018C351.1 500.106 350.832 498.29 349.564 498.383C348.274 498.479 348.062 500.514 347.994 501.473C347.882 503.038 348.206 504.881 349.252 506.093C349.508 506.39 350.044 506.075 349.916 505.706C349.619 504.849 349.2 504.059 349.051 503.15C348.958 502.594 348.875 499.471 349.642 499.734C350.307 499.962 350.255 502.018 350.235 502.626C350.199 503.763 349.855 504.771 349.614 505.867C349.535 506.23 349.984 506.398 350.192 506.111Z" fill="#122041"/>
<path d="M336.431 506.83C337.375 507.851 338.161 509.045 338.647 510.353C339.06 511.465 339.059 512.61 339.356 513.735C339.425 513.997 339.827 514.003 339.893 513.735C340.527 511.147 338.619 508.11 336.705 506.555C336.513 506.401 336.259 506.642 336.431 506.83Z" fill="#122041"/>
<path d="M367.641 516.175C369.196 511.84 371.968 508.887 376.765 508.42C377.268 508.37 377.288 507.598 376.765 507.619C372.151 507.804 367.516 511.282 367.096 516.1C367.067 516.431 367.543 516.452 367.641 516.175Z" fill="#122041"/>
<path d="M369.451 502.037C369.713 503.368 370.231 504.656 370.669 505.938C371.051 507.061 371.325 508.325 371.99 509.313C372.121 509.506 372.491 509.457 372.469 509.184C372.359 507.913 371.738 506.674 371.303 505.481C370.861 504.266 370.471 503.009 369.867 501.861C369.742 501.621 369.405 501.794 369.451 502.037Z" fill="#122041"/>
<path d="M353.49 504.293C360.557 504.141 367.806 502.435 374.793 501.417C375.268 501.348 375.066 500.624 374.593 500.695C367.638 501.721 360.236 502.171 353.458 504.047C353.324 504.085 353.349 504.296 353.49 504.293Z" fill="#122041"/>
<path d="M379.597 482.67C397.312 485.62 415.58 486.775 433.517 487.247C434.167 487.263 434.164 486.266 433.517 486.242C415.475 485.516 397.628 483.806 379.649 482.283C379.431 482.264 379.379 482.634 379.597 482.67Z" fill="#122041"/>
<path d="M406.57 476.268C406.629 476.877 406.715 477.486 406.809 478.09C406.898 478.678 406.923 479.35 407.223 479.868C407.345 480.077 407.741 480.066 407.783 479.796C407.871 479.24 407.697 478.702 407.583 478.156C407.446 477.498 407.298 476.84 407.117 476.193C407.035 475.904 406.541 475.946 406.57 476.268Z" fill="#122041"/>
<path d="M408.742 476.292C408.811 476.936 408.982 477.563 409.144 478.188C409.29 478.748 409.351 479.408 409.775 479.823C409.944 479.988 410.256 479.922 410.315 479.682C410.456 479.098 410.164 478.514 409.991 477.955C409.796 477.339 409.612 476.715 409.33 476.134C409.198 475.86 408.71 475.983 408.742 476.292Z" fill="#122041"/>
<path d="M409.829 476.033C410.701 476.673 411.474 477.428 412.385 478.028C412.869 478.348 413.301 477.582 412.836 477.257C411.952 476.637 410.973 476.198 410.066 475.628C409.804 475.464 409.59 475.857 409.829 476.033Z" fill="#122041"/>
<path d="M404.399 476.447C404.077 477.673 403.733 479.354 404.226 480.569C404.369 480.917 404.85 480.87 404.883 480.479C404.935 479.874 404.798 479.25 404.791 478.638C404.783 477.95 404.835 477.279 404.954 476.599C405.017 476.242 404.495 476.083 404.399 476.447Z" fill="#122041"/>
<path d="M405.852 475.721C405.083 474.423 404.2 473.073 402.868 472.274C402.039 471.778 400.859 471.901 400.724 473.034C400.592 474.157 401.786 475.035 402.606 475.579C403.867 476.414 405.348 476.797 406.851 476.769C407.434 476.758 407.435 475.87 406.851 475.862C405.158 475.841 403.45 475.262 402.244 474.034C401.816 473.598 401.634 473.047 402.514 473.202C402.862 473.265 403.283 473.789 403.548 474.038C404.186 474.634 404.814 475.319 405.27 476.061C405.496 476.43 406.076 476.095 405.852 475.721Z" fill="#122041"/>
<path d="M407.187 476.455C407.748 475.22 408.06 474.036 407.927 472.664C407.855 471.931 407.715 470.844 406.83 470.688C405.814 470.507 405.311 471.722 405.024 472.478C404.524 473.799 404.32 475.243 404.452 476.65C404.51 477.256 405.447 477.275 405.415 476.65C405.374 475.815 405.374 474.992 405.531 474.168C405.623 473.68 405.847 472.29 406.246 472.019C407.166 471.391 407.115 473.235 407.099 473.779C407.074 474.599 406.912 475.448 406.604 476.21C406.471 476.542 407.039 476.784 407.187 476.455Z" fill="#122041"/>
<path d="M409.029 474.532C416.081 474.612 423.492 473.09 430.481 472.142C431.055 472.064 430.925 471.056 430.343 471.122C423.337 471.94 415.792 472.305 408.975 474.133C408.753 474.192 408.8 474.529 409.029 474.532Z" fill="#122041"/>
<path d="M431.67 477.256C427.181 476.557 423.197 481.811 423.834 485.965C423.923 486.555 424.766 486.352 424.809 485.833C424.983 483.751 425.306 481.941 426.777 480.337C428.153 478.836 429.845 478.405 431.67 477.731C431.871 477.657 431.934 477.296 431.67 477.256Z" fill="#122041"/>
<path d="M424.207 472.118C423.815 474.982 424.463 478.68 425.703 481.286C425.839 481.57 426.351 481.442 426.313 481.12C426.145 479.692 425.755 478.298 425.495 476.883C425.203 475.303 425.1 473.671 424.688 472.118C424.629 471.896 424.241 471.864 424.207 472.118Z" fill="#122041"/>
<path d="M391.657 476.92C394.596 478.468 394.79 482.191 394.869 485.084C394.888 485.767 395.95 485.769 395.932 485.084C395.837 481.643 395.426 477.989 391.95 476.419C391.617 476.268 391.32 476.743 391.657 476.92Z" fill="#122041"/>
<path d="M352.651 501.084C359.463 500.589 366.187 499.251 372.876 497.921C373.377 497.821 373.168 497.031 372.663 497.149C366.033 498.723 359.313 499.593 352.587 500.607C352.316 500.647 352.379 501.105 352.651 501.084Z" fill="#B06637"/>
<path d="M351.777 497.985C358.574 497.612 365.249 495.726 371.969 494.756C372.517 494.677 372.299 493.781 371.734 493.905C365.123 495.368 358.259 495.786 351.714 497.518C351.461 497.585 351.505 498 351.777 497.985Z" fill="#B06637"/>
<path d="M350.923 494.747C357.727 494.407 364.401 492.948 370.996 491.332C371.433 491.224 371.247 490.551 370.809 490.657C364.223 492.264 357.532 493.133 350.851 494.213C350.549 494.261 350.619 494.761 350.923 494.747Z" fill="#B06637"/>
<path d="M408.595 472.446C415.144 471.439 421.661 469.657 428.012 467.797C428.499 467.654 428.293 466.902 427.803 467.037C421.387 468.807 414.888 470.243 408.467 471.981C408.161 472.065 408.296 472.491 408.595 472.446Z" fill="#B06637"/>
<path d="M343.407 494.99C355.952 493.725 368.456 491.974 380.911 490.021C381.474 489.934 381.235 489.078 380.675 489.166C368.282 491.101 355.856 492.691 343.407 494.215C342.922 494.274 342.907 495.041 343.407 494.99Z" fill="#122041"/>
<path d="M351.914 493.002C347.768 472.883 343.102 452.863 338.728 432.793C336.588 422.971 334.39 413.159 332.211 403.346C331.074 398.226 329.926 393.109 328.778 387.991C327.691 383.139 325.747 377.91 325.43 372.955C325.019 366.541 326.622 363.41 333.556 362.953C335.932 362.795 338.611 363.422 340.954 363.699C346.246 364.329 351.514 365.153 356.764 366.061C366.18 367.69 375.539 369.625 384.935 371.358C403.538 374.79 422.547 377.569 441.468 375.354C442.158 375.273 442.183 374.194 441.468 374.253C418.266 376.209 395.739 372.177 373.035 367.799C363.2 365.902 353.354 364.017 343.416 362.734C337.694 361.994 327.667 358.885 324.542 365.771C321.402 372.687 326.424 384.125 327.946 390.938C330.424 402.027 332.932 413.109 335.436 424.191C340.635 447.198 345.651 470.274 351.19 493.201C351.304 493.674 352.01 493.473 351.914 493.002Z" fill="#122041"/>
<path d="M399.535 473.016C411.121 468.204 422.736 463.964 434.893 460.811C435.464 460.663 435.223 459.777 434.648 459.925C422.523 463.032 410.572 466.965 399.215 472.257C398.792 472.453 399.099 473.199 399.535 473.016Z" fill="#122041"/>
<path d="M427.083 462.368C416.707 442.704 407.42 422.734 400.199 401.674C399.913 400.844 398.585 401.2 398.873 402.041C406.041 423.061 414.955 443.7 426.403 462.765C426.665 463.201 427.32 462.816 427.083 462.368Z" fill="#122041"/>
<path d="M424.479 282.118C434.307 270.476 443.721 258.488 453.203 246.566C453.493 246.202 452.979 245.682 452.685 246.048C443.189 257.978 433.605 269.835 424.179 281.816C424.012 282.028 424.3 282.33 424.479 282.118Z" fill="#122041"/>
<path d="M456.32 223.982C457.037 223.986 457.675 223.617 458.419 223.636C459.375 223.658 460.34 224.029 461.005 224.73C462.341 226.138 462.075 228.58 460.596 229.78C459.12 230.978 456.629 230.606 455.588 228.988C454.524 227.333 455.223 225.27 456.625 224.088C457.001 223.77 456.515 223.154 456.103 223.41C454.056 224.682 453.461 227.628 454.867 229.606C456.241 231.541 459.252 232.044 461.143 230.588C462.971 229.178 463.423 226.242 461.977 224.408C461.267 223.506 460.181 222.945 459.049 222.797C458.113 222.677 456.66 222.761 456.148 223.681C456.073 223.814 456.167 223.982 456.32 223.982Z" fill="#DDB4F7"/>
<path d="M426.756 248.417C427.473 248.421 428.111 248.052 428.855 248.071C429.811 248.095 430.776 248.464 431.44 249.165C432.776 250.572 432.511 253.015 431.032 254.215C429.555 255.413 427.064 255.041 426.024 253.423C424.96 251.768 425.657 249.705 427.061 248.523C427.437 248.205 426.951 247.589 426.539 247.844C424.491 249.117 423.896 252.063 425.303 254.041C426.676 255.976 429.687 256.479 431.579 255.021C433.407 253.613 433.857 250.677 432.412 248.843C431.703 247.941 430.617 247.38 429.484 247.232C428.548 247.112 427.095 247.196 426.583 248.116C426.509 248.249 426.603 248.416 426.756 248.417Z" fill="#DDB4F7"/>
<path d="M492.062 218.322C492.779 218.326 493.417 217.957 494.161 217.975C495.117 217.998 496.082 218.369 496.747 219.07C498.083 220.478 497.817 222.919 496.338 224.119C494.862 225.318 492.37 224.946 491.33 223.327C490.266 221.673 490.965 219.61 492.367 218.427C492.743 218.11 492.257 217.494 491.845 217.75C489.798 219.022 489.202 221.967 490.609 223.946C491.983 225.881 494.994 226.383 496.885 224.926C498.713 223.518 499.165 220.582 497.719 218.747C497.009 217.846 495.923 217.285 494.791 217.137C493.855 217.017 492.402 217.101 491.89 218.021C491.815 218.154 491.909 218.322 492.062 218.322Z" fill="#DDB4F7"/>
<path d="M471.368 237.978C473.603 235.501 475.656 232.794 477.673 230.137C477.979 229.733 477.288 229.196 476.965 229.592C474.863 232.176 472.717 234.816 470.839 237.569C470.623 237.885 471.113 238.262 471.368 237.978Z" fill="#DDB4F7"/>
<path d="M484.009 237.777C483.715 237.645 483.471 237.557 483.147 237.56C482.834 237.563 482.543 237.955 482.758 238.243C482.942 238.492 483.134 238.659 483.406 238.808C484.091 239.184 484.698 238.088 484.009 237.777Z" fill="#DDB4F7"/>
<path d="M468.962 223.043C468.994 223.127 469.026 223.212 469.058 223.296C469.203 223.675 469.686 223.675 469.828 223.296C469.862 223.212 469.894 223.127 469.926 223.043C470.231 222.243 468.655 222.238 468.962 223.043Z" fill="#DDB4F7"/>
<path d="M495.654 234.708C496.224 235.341 496.792 235.973 497.36 236.606C497.88 237.185 498.37 237.852 499.002 238.312C499.282 238.516 499.652 238.12 499.472 237.841C499.048 237.186 498.402 236.662 497.853 236.113L496.053 234.31C495.794 234.052 495.413 234.44 495.654 234.708Z" fill="#DDB4F7"/>
<path d="M504.416 230.581C504.432 230.639 504.445 230.696 504.461 230.753C504.573 231.181 505.217 231.183 505.329 230.753C505.344 230.696 505.359 230.639 505.375 230.581C505.584 229.781 504.205 229.776 504.416 230.581Z" fill="#DDB4F7"/>
<path d="M481.19 211.971C481.692 213.089 482.194 214.209 482.707 215.324C483.21 216.419 483.62 217.643 484.346 218.605C484.555 218.884 485.027 218.735 484.935 218.357C484.656 217.232 484.007 216.2 483.495 215.165C482.916 213.991 482.327 212.821 481.735 211.652C481.55 211.284 481.027 211.607 481.19 211.971Z" fill="#DDB4F7"/>
<path d="M460.137 216.698C460.975 215.998 461.82 215.307 462.665 214.618C463.499 213.942 464.451 213.307 465.175 212.517C465.439 212.229 465.099 211.731 464.743 211.957C463.861 212.515 463.096 213.306 462.307 213.987C461.433 214.741 460.557 215.493 459.672 216.234C459.348 216.506 459.816 216.967 460.137 216.698Z" fill="#DDB4F7"/>
<path d="M440.988 228.114C442.99 230.427 444.798 233.082 447.016 235.189C447.374 235.53 448.044 235.074 447.732 234.635C445.934 232.117 443.542 229.926 441.509 227.593C441.196 227.234 440.678 227.757 440.988 228.114Z" fill="#DDB4F7"/>
<path d="M445.847 220.2C446.43 220.2 446.43 219.293 445.847 219.293C445.265 219.293 445.263 220.2 445.847 220.2Z" fill="#DDB4F7"/>
<path d="M437.97 238.937C437.966 238.999 437.963 239.06 437.959 239.121C437.927 239.773 439.004 239.775 438.972 239.121C438.97 239.06 438.966 238.999 438.963 238.937C438.931 238.299 438.002 238.297 437.97 238.937Z" fill="#DDB4F7"/>
<path d="M471.681 208.178C472.227 208.178 472.229 207.327 471.681 207.327C471.134 207.327 471.133 208.178 471.681 208.178Z" fill="#DDB4F7"/>
<path d="M490.079 211.363C490.258 211.339 490.435 211.315 490.612 211.291C491.01 211.236 491.01 210.543 490.612 210.489C490.435 210.465 490.258 210.441 490.079 210.416C489.288 210.309 489.283 211.471 490.079 211.363Z" fill="#DDB4F7"/>
<path d="M506.152 214.65C505.474 216.596 504.554 218.538 504.048 220.534C503.93 220.994 504.64 221.34 504.846 220.871C505.693 218.952 506.181 216.831 506.862 214.846C507.017 214.395 506.306 214.204 506.152 214.65Z" fill="#DDB4F7"/>
<path d="M505.885 246.754C507.758 245.3 509.833 243.724 511.189 241.748C511.486 241.314 510.842 240.861 510.482 241.202C508.741 242.86 507.269 244.728 505.381 246.25C505.022 246.541 505.529 247.03 505.885 246.754Z" fill="#DDB4F7"/>
<path d="M484.743 244.07C482.296 244.441 480.296 246.853 481.032 249.384C481.696 251.668 484.424 253.106 486.647 252.133C488.71 251.232 489.864 248.545 488.936 246.458C487.983 244.314 485.386 243.512 483.314 244.409C482.924 244.577 483.204 245.256 483.604 245.1C485.231 244.465 487.183 244.933 488.191 246.42C489.382 248.178 488.434 250.817 486.434 251.518C484.642 252.148 482.416 250.95 481.846 249.16C481.184 247.082 482.862 244.926 484.894 244.618C485.255 244.564 485.102 244.016 484.743 244.07Z" fill="#DDB4F7"/>
<path d="M464.432 245.072C466.059 247.136 467.647 249.234 469.304 251.272C469.661 251.711 470.287 251.086 469.927 250.65C468.263 248.63 466.529 246.664 464.835 244.671C464.593 244.387 464.211 244.791 464.432 245.072Z" fill="#DDB4F7"/>
<path d="M455.692 255.378C455.867 255.278 455.938 255.161 456.004 254.978C456.106 254.707 455.888 254.421 455.642 254.342C455.62 254.334 455.599 254.327 455.578 254.319C455.119 254.171 454.682 254.849 455.084 255.166C455.086 255.167 455.086 255.169 455.087 255.169C455.144 254.947 455.203 254.725 455.262 254.502C455.242 254.517 455.222 254.529 455.204 254.542C454.695 254.89 455.144 255.691 455.692 255.378Z" fill="#DDB4F7"/>
<path d="M452.029 260.344C449.513 260.691 447.457 262.924 447.895 265.562C448.277 267.867 450.58 269.682 452.915 269.439C455.251 269.198 457.193 266.984 457.107 264.63C457.012 262.139 454.741 260.14 452.303 260.203C451.721 260.218 451.736 261.048 452.303 261.096C454.184 261.254 456.015 262.611 456.125 264.63C456.235 266.616 454.433 268.506 452.453 268.504C450.603 268.503 448.849 266.896 448.753 265.042C448.647 263.016 450.239 261.271 452.204 260.978C452.621 260.914 452.441 260.287 452.029 260.344Z" fill="#DDB4F7"/>
<path d="M435.328 273.291C436.012 274.62 436.708 275.93 437.54 277.174C438.214 278.184 438.91 279.378 439.906 280.096C440.296 280.375 440.674 279.85 440.505 279.496C439.942 278.323 438.9 277.346 438.16 276.267C437.406 275.166 436.688 274.04 436.068 272.859C435.81 272.371 435.077 272.802 435.328 273.291Z" fill="#DDB4F7"/>
<path d="M440.216 289.448C443.045 288.75 446.256 287.819 448.572 285.971C448.958 285.662 448.465 285.155 448.078 285.332C445.369 286.579 442.974 288.046 440.032 288.786C439.604 288.894 439.785 289.555 440.216 289.448Z" fill="#DDB4F7"/>
<path d="M444.186 273.9C444.772 273.9 444.774 272.987 444.186 272.987C443.599 272.987 443.599 273.9 444.186 273.9Z" fill="#DDB4F7"/>
<path d="M455.257 286.511C455.925 286.511 455.927 285.474 455.257 285.474C454.591 285.474 454.589 286.511 455.257 286.511Z" fill="#DDB4F7"/>
<path d="M428.385 288.691C428.582 288.863 428.78 289.035 428.976 289.208C429.338 289.523 429.818 289.043 429.502 288.681C429.33 288.484 429.158 288.287 428.986 288.091C428.626 287.676 427.972 288.329 428.385 288.691Z" fill="#DDB4F7"/>
<path d="M448.669 296.495C446.417 295.957 444.155 297.419 443.918 299.777C443.642 302.502 445.971 304.638 448.619 304.562C450.985 304.494 453.091 302.565 453.303 300.191C453.53 297.641 451.331 295.445 448.801 295.674C448.205 295.729 448.186 296.647 448.801 296.618C453.191 296.399 453.371 302.499 449.427 303.462C447.461 303.942 445.345 302.854 444.877 300.826C444.358 298.578 446.286 296.663 448.514 297.062C448.879 297.127 449.042 296.583 448.669 296.495Z" fill="#DDB4F7"/>
<path d="M435.359 302.412C435.484 304.621 435.275 307.193 435.85 309.328C435.963 309.745 436.502 309.608 436.551 309.233C436.824 307.071 436.271 304.589 436.096 302.412C436.059 301.944 435.331 301.936 435.359 302.412Z" fill="#DDB4F7"/>
<path d="M427.58 314.408C429.518 316.336 431.39 318.368 433.456 320.158C433.932 320.57 434.582 319.934 434.151 319.464C432.302 317.451 430.215 315.639 428.23 313.759C427.802 313.352 427.16 313.991 427.58 314.408Z" fill="#DDB4F7"/>
<path d="M450.276 322.796C451.096 322.796 451.097 321.521 450.276 321.521C449.456 321.521 449.454 322.796 450.276 322.796Z" fill="#DDB4F7"/>
<path d="M430.757 332.349C430.501 332.639 430.389 332.817 430.387 333.204C430.385 333.467 430.612 333.693 430.875 333.692C431.272 333.691 431.439 333.579 431.729 333.321C432.396 332.733 431.344 331.684 430.757 332.349Z" fill="#DDB4F7"/>
<path d="M423.676 262.76C426.73 262.986 429.847 263.413 432.91 263.366C433.276 263.361 433.392 262.75 432.999 262.697C429.934 262.282 426.764 262.322 423.676 262.178C423.3 262.161 423.307 262.732 423.676 262.76Z" fill="#DDB4F7"/>
<path d="M411.203 262.454C410.897 266.028 410.649 269.816 411.301 273.366C411.385 273.816 412.132 273.715 412.107 273.256C411.893 269.612 411.493 266.114 411.796 262.454C411.829 262.072 411.235 262.075 411.203 262.454Z" fill="#DDB4F7"/>
<path d="M418.768 273.344C419.386 273.344 419.388 272.382 418.768 272.382C418.148 272.382 418.146 273.344 418.768 273.344Z" fill="#DDB4F7"/>
<path d="M416.584 253.812C416.581 254.049 416.597 254.269 416.632 254.502C416.685 254.866 417.313 254.866 417.367 254.502C417.401 254.269 417.417 254.049 417.415 253.812C417.409 253.277 416.589 253.276 416.584 253.812Z" fill="#DDB4F7"/>
<path d="M429.373 239.075C429.872 239.075 429.873 238.301 429.373 238.301C428.875 238.301 428.873 239.075 429.373 239.075Z" fill="#DDB4F7"/>
<path d="M448.032 246.976C448.587 246.976 448.588 246.114 448.032 246.114C447.477 246.114 447.476 246.976 448.032 246.976Z" fill="#DDB4F7"/>
<path d="M401.282 285.585C403.863 286.831 406.375 288.321 409.03 289.397C409.531 289.601 409.851 288.792 409.394 288.536C406.926 287.156 404.218 286.147 401.666 284.928C401.226 284.717 400.839 285.372 401.282 285.585Z" fill="#DDB4F7"/>
<path d="M402.269 281.17C402.849 281.17 402.849 280.27 402.269 280.27C401.689 280.27 401.688 281.17 402.269 281.17Z" fill="#DDB4F7"/>
<path d="M401.091 297.982C401.823 297.982 401.824 296.845 401.091 296.845C400.359 296.845 400.357 297.982 401.091 297.982Z" fill="#DDB4F7"/>
<path d="M388.212 299.071C389.576 298.387 391.414 298.721 392.276 300.055C393.101 301.336 392.762 303.177 391.578 304.113C390.377 305.064 388.496 304.911 387.504 303.723C386.477 302.497 386.777 300.732 387.725 299.557C388.064 299.139 387.538 298.585 387.124 298.957C385.632 300.295 385.564 302.768 386.893 304.26C388.168 305.692 390.594 306.008 392.157 304.861C393.745 303.695 394.144 301.233 393.034 299.611C391.901 297.953 389.584 297.567 387.881 298.503C387.508 298.709 387.837 299.259 388.212 299.071Z" fill="#DDB4F7"/>
<path d="M391.752 289.499C391.771 289.559 391.788 289.62 391.807 289.68C391.937 290.12 392.567 290.12 392.699 289.68C392.716 289.62 392.733 289.559 392.752 289.499C393.001 288.666 391.501 288.66 391.752 289.499Z" fill="#DDB4F7"/>
<path d="M378.906 294.955C378.02 297.46 376.779 300.042 376.219 302.636C376.126 303.076 376.762 303.403 376.986 302.959C378.2 300.552 378.87 297.734 379.767 295.194C379.96 294.65 379.098 294.416 378.906 294.955Z" fill="#DDB4F7"/>
<path d="M371.237 297.613C371.997 297.613 371.998 296.43 371.237 296.43C370.477 296.43 370.475 297.613 371.237 297.613Z" fill="#DDB4F7"/>
<path d="M359.394 289.973C359.117 291.684 359.799 293.528 361.47 294.249C363.071 294.943 365.141 294.292 365.937 292.709C366.631 291.329 366.273 289.423 365.011 288.489C363.663 287.492 361.658 287.756 360.699 289.133C360.443 289.5 360.998 289.895 361.303 289.6C362.141 288.784 363.447 288.408 364.501 289.073C365.674 289.816 365.842 291.569 364.998 292.612C363.034 295.04 359.57 292.792 359.917 290.044C359.954 289.749 359.442 289.677 359.394 289.973Z" fill="#DDB4F7"/>
<path d="M345.97 284.344C346.555 286.596 346.895 289.232 347.919 291.323C348.082 291.654 348.664 291.506 348.63 291.132C348.408 288.81 347.324 286.386 346.646 284.158C346.514 283.727 345.856 283.906 345.97 284.344Z" fill="#DDB4F7"/>
<path d="M337.454 288.084C338.086 288.084 338.087 287.104 337.454 287.104C336.822 287.104 336.822 288.084 337.454 288.084Z" fill="#DDB4F7"/>
<path d="M334.244 279.157C334.244 279.157 322.672 273.058 321.168 273.291C319.663 273.523 306.274 280.31 307.919 280.773C309.564 281.237 317.599 277.743 317.599 277.743C317.599 277.743 307.831 283.495 310.186 283.687C312.542 283.881 317.938 280.473 317.938 280.473C317.938 280.473 315.034 285.095 316.046 285.555C317.058 286.014 318.983 288.323 318.9 286.97C318.819 285.617 317.938 284.389 317.938 284.389L319.514 282.535L328.58 287.39L334.244 279.157Z" fill="#FFD3B4"/>
<path d="M316.18 284.951C316.562 283.923 317.001 282.896 317.55 281.947C317.784 281.542 318.033 281.12 318.333 280.762C318.458 280.571 318.621 280.412 318.817 280.284C319.038 279.912 319.342 279.832 319.728 280.043C320.21 280.13 320.441 280.243 320.872 280.434C321.182 280.572 321.424 280.174 321.14 279.976C318.262 277.96 316.2 282.634 315.746 284.831C315.686 285.118 316.08 285.22 316.18 284.951Z" fill="#FABC9B"/>
<path d="M310.028 283.111C311.993 281.754 313.883 280.294 315.812 278.887C317.637 277.558 317.888 277.193 320.953 277.619C321.996 277.763 322.86 278.122 323.925 278.17C324.195 278.182 324.195 277.763 323.925 277.751C321.229 277.634 319.288 276.134 316.821 277.713C314.413 279.255 312.112 281.131 309.871 282.907C309.755 282.998 309.907 283.194 310.028 283.111Z" fill="#FABC9B"/>
<path d="M429.779 84.7422C429.714 85.4742 429.027 111.964 429.027 111.964L463.506 105.714L463.911 111.549L467.802 105.094L474.686 104.392L476.905 79.3288L429.779 84.7422Z" fill="#FF70CC"/>
<path d="M447.728 101.776C446.964 101.906 446.23 101.861 445.524 101.64C444.819 101.42 444.21 101.038 443.699 100.497L444.377 99.3991C445.301 100.368 446.355 100.752 447.539 100.551C449.194 100.269 449.855 99.1484 449.522 97.188L448.145 89.0915L443.256 89.923L443.048 88.7009L449.331 87.6324L450.906 96.8936C451.144 98.2939 450.993 99.4068 450.452 100.232C449.922 101.043 449.014 101.558 447.728 101.776ZM459.548 99.7659C458.555 99.9348 457.573 99.9381 456.602 99.7757C455.644 99.6112 454.873 99.3102 454.287 98.8727L454.656 97.69C455.222 98.0915 455.932 98.3768 456.786 98.5459C457.638 98.7023 458.49 98.708 459.343 98.5629C460.54 98.3594 461.4 97.9903 461.925 97.4557C462.448 96.9084 462.649 96.2847 462.53 95.5845C462.439 95.0499 462.201 94.6515 461.816 94.3896C461.444 94.1255 461.008 93.9507 460.509 93.8653C460.008 93.7672 459.319 93.6878 458.445 93.627C457.396 93.5434 456.552 93.4379 455.915 93.3106C455.276 93.1705 454.698 92.8953 454.183 92.4852C453.681 92.0729 453.359 91.453 453.219 90.6256C453.104 89.9508 453.178 89.3095 453.442 88.7015C453.703 88.0807 454.174 87.542 454.856 87.0855C455.538 86.6289 456.427 86.3075 457.522 86.1213C458.286 85.9914 459.049 85.973 459.811 86.066C460.584 86.1441 461.269 86.3222 461.867 86.6005L461.581 87.8083C460.958 87.5344 460.313 87.3625 459.646 87.2925C458.977 87.2098 458.337 87.2204 457.726 87.3243C456.555 87.5235 455.709 87.9032 455.189 88.4632C454.679 89.0084 454.485 89.6374 454.606 90.3503C454.697 90.8849 454.93 91.2907 455.304 91.5676C455.689 91.8295 456.139 92.0085 456.653 92.1044C457.178 92.1855 457.871 92.2575 458.733 92.3204C459.755 92.3956 460.585 92.5032 461.224 92.6433C461.874 92.7685 462.451 93.0373 462.953 93.4496C463.453 93.8492 463.773 94.4563 463.911 95.2711C464.026 95.9458 463.946 96.5946 463.672 97.2175C463.409 97.8255 462.93 98.3589 462.235 98.8176C461.538 99.2636 460.642 99.5797 459.548 99.7659Z" fill="white"/>
<path d="M99.5321 113.056C99.5321 113.79 101.185 140.237 101.185 140.237L134.977 130.97L135.895 136.748L139.201 129.973L145.997 128.666V103.505L99.5321 113.056Z" fill="#00C9FB"/>
<path d="M116.454 128.442C115.514 128.658 114.616 128.645 113.761 128.403C112.915 128.159 112.191 127.72 111.589 127.087C110.994 126.443 110.591 125.664 110.382 124.751C110.173 123.838 110.197 122.966 110.454 122.136C110.718 121.295 111.182 120.579 111.846 119.989C112.511 119.399 113.313 118.996 114.254 118.78C114.959 118.619 115.637 118.587 116.288 118.685C116.939 118.783 117.524 119.011 118.044 119.368L117.552 120.152C116.639 119.571 115.617 119.41 114.486 119.669C113.735 119.841 113.092 120.17 112.556 120.654C112.02 121.139 111.643 121.72 111.428 122.398C111.221 123.074 111.202 123.782 111.372 124.524C111.542 125.266 111.868 125.895 112.348 126.414C112.838 126.93 113.429 127.289 114.123 127.492C114.817 127.694 115.539 127.71 116.29 127.538C117.429 127.276 118.278 126.682 118.837 125.754L119.62 126.246C119.308 126.793 118.877 127.259 118.327 127.642C117.784 128.014 117.16 128.281 116.454 128.442ZM124.646 126.565C123.941 126.726 123.236 126.769 122.533 126.692C121.839 126.613 121.274 126.429 120.836 126.139L121.052 125.275C121.474 125.54 121.995 125.716 122.615 125.802C123.232 125.88 123.844 125.849 124.45 125.71C125.3 125.515 125.903 125.215 126.257 124.81C126.61 124.396 126.729 123.94 126.615 123.443C126.528 123.063 126.341 122.787 126.054 122.615C125.776 122.441 125.456 122.333 125.095 122.292C124.731 122.242 124.234 122.213 123.604 122.206C122.848 122.189 122.239 122.147 121.776 122.082C121.312 122.008 120.887 121.834 120.5 121.561C120.123 121.285 119.867 120.854 119.732 120.266C119.623 119.787 119.65 119.323 119.814 118.876C119.976 118.42 120.292 118.015 120.763 117.659C121.233 117.304 121.858 117.037 122.635 116.859C123.178 116.735 123.725 116.69 124.275 116.726C124.833 116.75 125.332 116.85 125.772 117.025L125.616 117.903C125.158 117.732 124.689 117.635 124.207 117.612C123.724 117.58 123.265 117.614 122.831 117.714C121.999 117.904 121.408 118.211 121.058 118.634C120.714 119.046 120.6 119.505 120.716 120.012C120.804 120.392 120.987 120.673 121.267 120.856C121.554 121.029 121.884 121.139 122.257 121.187C122.636 121.223 123.137 121.247 123.758 121.257C124.493 121.269 125.094 121.312 125.558 121.386C126.029 121.45 126.454 121.619 126.831 121.894C127.206 122.16 127.46 122.583 127.593 123.162C127.703 123.641 127.672 124.11 127.501 124.568C127.337 125.015 127.015 125.417 126.535 125.774C126.054 126.123 125.424 126.386 124.646 126.565ZM132.992 124.651C132.287 124.813 131.583 124.855 130.88 124.779C130.186 124.7 129.62 124.515 129.182 124.225L129.398 123.362C129.821 123.627 130.342 123.802 130.961 123.889C131.579 123.966 132.19 123.936 132.796 123.797C133.646 123.602 134.249 123.302 134.603 122.897C134.956 122.483 135.075 122.027 134.961 121.53C134.874 121.15 134.687 120.874 134.4 120.702C134.122 120.528 133.802 120.42 133.441 120.379C133.077 120.329 132.58 120.3 131.95 120.292C131.194 120.275 130.585 120.234 130.123 120.169C129.658 120.094 129.233 119.921 128.847 119.647C128.469 119.372 128.213 118.941 128.079 118.353C127.969 117.873 127.996 117.41 128.16 116.963C128.322 116.507 128.638 116.102 129.109 115.746C129.58 115.391 130.204 115.124 130.982 114.946C131.524 114.821 132.071 114.777 132.622 114.812C133.179 114.837 133.678 114.937 134.118 115.112L133.963 115.99C133.504 115.819 133.035 115.722 132.554 115.699C132.07 115.667 131.612 115.701 131.178 115.8C130.345 115.991 129.754 116.298 129.404 116.721C129.06 117.133 128.947 117.592 129.063 118.099C129.15 118.478 129.333 118.76 129.613 118.943C129.9 119.115 130.23 119.225 130.603 119.273C130.983 119.31 131.483 119.333 132.104 119.343C132.84 119.356 133.44 119.399 133.904 119.473C134.376 119.537 134.8 119.706 135.177 119.981C135.552 120.247 135.806 120.67 135.939 121.249C136.049 121.728 136.018 122.197 135.847 122.655C135.683 123.102 135.361 123.504 134.882 123.861C134.4 124.21 133.77 124.473 132.992 124.651Z" fill="white"/>
<g opacity="0.330002">
<g opacity="0.330002">
<path opacity="0.330002" d="M233.043 253.517C233.043 253.517 254.243 259.809 274.793 255.543C295.345 251.275 310.799 247.611 310.799 247.611L272.944 241.756L233.043 253.517Z" fill="#353535"/>
</g>
</g>
<path d="M367.249 213.324L200.559 248.117L174.425 124.739L348.057 96.2708L367.249 213.324Z" fill="#D9D9D9"/>
<path d="M363.833 203.32L201.023 236.622L177.359 127.449L346.838 99.6635L363.833 203.32Z" fill="#83ACE8"/>
<path d="M215.719 149.474L197.8 152.725L197.348 150.233L215.267 146.982L215.719 149.474Z" fill="white"/>
<path d="M313.818 139.213L295.899 142.463L295.447 139.971L313.366 136.721L313.818 139.213Z" fill="white"/>
<g opacity="0.639999">
<g opacity="0.639999">
<path opacity="0.639999" d="M281.656 137.976L225.464 148.168L224.977 145.482L281.169 135.29L281.656 137.976Z" fill="white"/>
</g>
</g>
<path d="M291.662 143.519L250.018 151.073L249.53 148.386L291.174 140.833L291.662 143.519Z" fill="white"/>
<g opacity="0.639999">
<g opacity="0.639999">
<path opacity="0.639999" d="M340.899 142.4L263.882 156.37L263.37 153.546L340.387 139.576L340.899 142.4Z" fill="white"/>
</g>
</g>
<path d="M224.624 181.533L206.706 184.784L206.254 182.292L224.172 179.041L224.624 181.533Z" fill="white"/>
<path d="M335.257 199.746L317.339 202.997L316.887 200.505L334.805 197.254L335.257 199.746Z" fill="white"/>
<path d="M322.723 171.272L304.804 174.523L304.352 172.031L322.271 168.78L322.723 171.272Z" fill="white"/>
<g opacity="0.639999">
<g opacity="0.639999">
<path opacity="0.639999" d="M290.561 170.035L234.369 180.227L233.881 177.54L290.073 167.348L290.561 170.035Z" fill="white"/>
</g>
</g>
<path d="M300.567 175.578L258.923 183.131L258.436 180.445L300.08 172.891L300.567 175.578Z" fill="white"/>
<g opacity="0.639999">
<g opacity="0.639999">
<path opacity="0.639999" d="M349.805 174.459L272.787 188.43L272.275 185.604L349.292 171.635L349.805 174.459Z" fill="white"/>
</g>
</g>
<path d="M270.229 130.25L193.211 144.22L192.699 141.395L269.717 127.426L270.229 130.25Z" fill="white"/>
<g opacity="0.639999">
<g opacity="0.639999">
<path opacity="0.639999" d="M289.22 198.86L212.203 212.83L211.691 210.005L288.708 196.036L289.22 198.86Z" fill="white"/>
</g>
</g>
<path d="M276.047 210.987L213.927 222.255L213.414 219.431L275.535 208.163L276.047 210.987Z" fill="white"/>
<g opacity="0.639999">
<g opacity="0.639999">
<path opacity="0.639999" d="M314.05 204.054L280.024 210.226L279.512 207.402L313.538 201.23L314.05 204.054Z" fill="white"/>
</g>
</g>
<path d="M176.973 127.555C184.861 163.946 192.749 200.338 200.637 236.728C200.685 236.95 200.927 237.05 201.129 237.008C248.716 227.274 296.304 217.54 343.891 207.806C350.573 206.439 357.256 205.072 363.939 203.704C364.167 203.659 364.251 203.415 364.219 203.212C358.553 168.66 352.889 134.108 347.223 99.5565C347.185 99.3285 346.925 99.2458 346.731 99.2778C297.335 107.376 247.937 115.474 198.54 123.574C191.445 124.736 184.349 125.9 177.252 127.063C176.747 127.146 176.961 127.918 177.465 127.835C216.185 121.487 254.905 115.138 293.627 108.79C310.807 105.972 327.979 102.722 345.224 100.331C345.547 100.286 346.427 99.9511 346.731 100.083C347.225 100.299 345.992 99.4578 346.524 100.208C347.573 101.686 347.443 105.811 347.731 107.568C349.464 118.143 351.197 128.716 352.932 139.29C355.041 152.159 357.151 165.027 359.261 177.895C360.525 185.608 363.177 194.246 363.225 202.083C363.239 204.086 364.14 202.407 362.857 203.111C361.257 203.988 358.432 204.016 356.656 204.38C348.051 206.14 339.444 207.9 330.837 209.662C288.132 218.396 245.5 227.658 202.691 235.874C202.375 235.935 201.509 236.288 201.197 236.179C200.489 235.931 201.917 236.815 201.319 236.103C200.239 234.819 200.155 230.735 199.809 229.138C197.601 218.954 195.395 208.77 193.187 198.586C188.348 176.262 183.509 153.939 178.671 131.616C178.363 130.192 178.053 128.767 177.745 127.343C177.636 126.839 176.864 127.052 176.973 127.555Z" fill="#122041"/>
<path d="M269.849 233.8C269.849 233.8 274.153 254.883 274.794 255.543C275.435 256.203 313.467 246.967 313.467 246.967L308.769 225.513L269.849 233.8Z" fill="#D0CDD7"/>
<path d="M313.269 226.238C315.156 234.062 324.39 233.359 330.096 230.433C336.388 227.206 341.718 223.246 348.656 221.213C356.99 218.77 365.51 218.701 374.021 220.149C374.489 220.229 374.698 219.525 374.221 219.426C364.961 217.49 355.362 218.067 346.398 221.118C337.94 223.995 318.857 240.566 313.666 226.127C313.577 225.881 313.206 225.977 313.269 226.238Z" fill="#122041"/>
<path d="M420.647 134.241L326.315 151.351L315.301 90.6288L409.632 73.5181L420.647 134.241Z" fill="white"/>
<path d="M346.369 110.782L328.451 114.032L327.999 111.54L345.917 108.29L346.369 110.782Z" fill="#FFBE36"/>
<path d="M351.54 131.337L333.622 134.588L333.169 132.096L351.088 128.845L351.54 131.337Z" fill="#FFBE36"/>
<path d="M404.072 121.697L355.187 130.564L354.711 127.936L403.596 119.069L404.072 121.697Z" fill="#FFBE36"/>
<path d="M382.204 93.8612L326.012 104.053L325.525 101.367L381.717 91.1746L382.204 93.8612Z" fill="#FFBE36"/>
<path d="M387.486 114.142L331.294 124.334L330.806 121.647L387 111.455L387.486 114.142Z" fill="#FFBE36"/>
<g opacity="0.229996">
<g opacity="0.229996">
<path opacity="0.229996" d="M316.94 99.6633L326.314 151.351L356.204 145.953L357.753 153.69L322.988 160.794L309.242 102.635L316.94 99.6633Z" fill="#122041"/>
</g>
</g>
<path d="M274.794 255.542L254.003 250L272.145 244.72L274.794 255.542Z" fill="#B9B7C3"/>
<path d="M290.783 224.817C290.785 224.783 290.789 224.747 290.792 224.711C290.899 223.491 289.641 222.324 288.457 222.376C287.284 222.429 286.008 223.408 286.123 224.711C286.127 224.747 286.129 224.783 286.133 224.817C286.239 226.025 287.125 227.203 288.457 227.143C289.809 227.083 290.668 226.119 290.783 224.817Z" fill="#122041"/>
<path d="M138 146.4C138 147.2 140.133 176 140.133 176L183.771 165.909L184.956 172.2L189.226 164.823L198 163.4V136L138 146.4Z" fill="#9C72B3"/>
<path d="M144.244 154.91L145.255 154.713L146.948 163.401L152.303 162.358L152.473 163.232L146.107 164.472L144.244 154.91ZM152.288 153.343L153.299 153.146L155.162 162.708L154.151 162.905L152.288 153.343ZM168.062 161.032C167.839 161.444 167.546 161.78 167.18 162.04C166.826 162.308 166.417 162.487 165.952 162.577C165.388 162.687 164.823 162.651 164.258 162.468C163.704 162.292 163.048 161.938 162.292 161.404C161.367 161.556 160.494 161.49 159.673 161.206C158.852 160.921 158.161 160.456 157.6 159.809C157.039 159.162 156.671 158.387 156.495 157.486C156.316 156.566 156.369 155.696 156.653 154.874C156.946 154.052 157.435 153.356 158.118 152.788C158.809 152.209 159.628 151.828 160.575 151.643C161.522 151.459 162.415 151.502 163.252 151.774C164.099 152.044 164.813 152.51 165.396 153.171C165.977 153.824 166.357 154.61 166.536 155.53C166.692 156.331 166.667 157.102 166.462 157.841C166.263 158.57 165.907 159.216 165.393 159.779C164.888 160.341 164.263 160.77 163.517 161.067C164.362 161.668 165.126 161.902 165.809 161.769C166.519 161.63 167.068 161.221 167.455 160.54L168.062 161.032ZM157.492 157.292C157.638 158.038 157.942 158.679 158.405 159.212C158.878 159.744 159.453 160.124 160.13 160.351C160.817 160.576 161.538 160.615 162.294 160.468C163.05 160.321 163.699 160.015 164.242 159.55C164.785 159.085 165.171 158.518 165.4 157.85C165.629 157.181 165.671 156.473 165.525 155.727C165.38 154.98 165.075 154.34 164.612 153.806C164.149 153.272 163.579 152.892 162.901 152.665C162.223 152.437 161.507 152.398 160.751 152.545C159.995 152.692 159.341 152.999 158.789 153.466C158.246 153.931 157.856 154.498 157.618 155.169C157.389 155.837 157.347 156.545 157.492 157.292ZM173.602 159.201C172.363 159.442 171.329 159.275 170.498 158.7C169.668 158.124 169.12 157.158 168.856 155.801L167.789 150.323L168.799 150.126L169.859 155.563C170.075 156.674 170.487 157.454 171.094 157.903C171.702 158.352 172.479 158.484 173.426 158.299C174.382 158.113 175.058 157.698 175.452 157.054C175.847 156.41 175.936 155.532 175.719 154.421L174.66 148.984L175.644 148.793L176.711 154.271C176.975 155.628 176.83 156.729 176.277 157.574C175.732 158.417 174.84 158.96 173.602 159.201ZM178.69 148.199L179.701 148.002L181.564 157.565L180.553 157.762L178.69 148.199ZM182.812 147.396L186.705 146.638C187.716 146.441 188.649 146.472 189.503 146.731C190.355 146.981 191.066 147.428 191.636 148.073C192.204 148.71 192.579 149.492 192.76 150.421C192.941 151.35 192.888 152.22 192.602 153.032C192.314 153.835 191.823 154.517 191.129 155.078C190.433 155.629 189.579 156.003 188.568 156.2L184.675 156.959L182.812 147.396ZM188.343 155.337C189.181 155.173 189.883 154.867 190.447 154.416C191.01 153.957 191.407 153.402 191.64 152.752C191.871 152.092 191.912 151.38 191.763 150.615C191.614 149.85 191.309 149.21 190.85 148.695C190.388 148.17 189.811 147.805 189.119 147.6C188.425 147.385 187.659 147.359 186.821 147.523L183.993 148.074L185.516 155.888L188.343 155.337Z" fill="white"/>
</svg>
