<svg width="538" height="147" viewBox="0 0 538 147" fill="none" xmlns="http://www.w3.org/2000/svg">
<path d="M187.569 33.32V119H206.409V91.4L217.209 80.48L243.009 119H266.649L229.929 67.16L263.409 33.32H239.889L206.409 68.84V33.32H187.569ZM287.491 88.04C287.491 85.56 287.731 83.12 288.211 80.72C288.691 78.32 289.491 76.2 290.611 74.36C291.811 72.52 293.371 71.04 295.291 69.92C297.211 68.72 299.611 68.12 302.491 68.12C305.371 68.12 307.771 68.72 309.691 69.92C311.691 71.04 313.251 72.52 314.371 74.36C315.571 76.2 316.411 78.32 316.891 80.72C317.371 83.12 317.611 85.56 317.611 88.04C317.611 90.52 317.371 92.96 316.891 95.36C316.411 97.68 315.571 99.8 314.371 101.72C313.251 103.56 311.691 105.04 309.691 106.16C307.771 107.28 305.371 107.84 302.491 107.84C299.611 107.84 297.211 107.28 295.291 106.16C293.371 105.04 291.811 103.56 290.611 101.72C289.491 99.8 288.691 97.68 288.211 95.36C287.731 92.96 287.491 90.52 287.491 88.04ZM270.451 88.04C270.451 93 271.211 97.48 272.731 101.48C274.251 105.48 276.411 108.92 279.211 111.8C282.011 114.6 285.371 116.76 289.291 118.28C293.211 119.8 297.611 120.56 302.491 120.56C307.371 120.56 311.771 119.8 315.691 118.28C319.691 116.76 323.091 114.6 325.891 111.8C328.691 108.92 330.851 105.48 332.371 101.48C333.891 97.48 334.651 93 334.651 88.04C334.651 83.08 333.891 78.6 332.371 74.6C330.851 70.52 328.691 67.08 325.891 64.28C323.091 61.4 319.691 59.2 315.691 57.68C311.771 56.08 307.371 55.28 302.491 55.28C297.611 55.28 293.211 56.08 289.291 57.68C285.371 59.2 282.011 61.4 279.211 64.28C276.411 67.08 274.251 70.52 272.731 74.6C271.211 78.6 270.451 83.08 270.451 88.04ZM389.77 87.8C389.77 90.36 389.53 92.84 389.05 95.24C388.57 97.64 387.77 99.8 386.65 101.72C385.53 103.56 384.01 105.04 382.09 106.16C380.25 107.28 377.93 107.84 375.13 107.84C372.49 107.84 370.21 107.28 368.29 106.16C366.45 104.96 364.89 103.44 363.61 101.6C362.41 99.68 361.53 97.52 360.97 95.12C360.41 92.72 360.13 90.32 360.13 87.92C360.13 85.36 360.37 82.92 360.85 80.6C361.41 78.2 362.25 76.08 363.37 74.24C364.57 72.4 366.13 70.92 368.05 69.8C369.97 68.68 372.33 68.12 375.13 68.12C377.93 68.12 380.25 68.68 382.09 69.8C383.93 70.92 385.41 72.4 386.53 74.24C387.73 76 388.57 78.08 389.05 80.48C389.53 82.8 389.77 85.24 389.77 87.8ZM390.01 111.08V119H406.21V33.32H389.17V64.52H388.93C387.01 61.48 384.37 59.2 381.01 57.68C377.73 56.08 374.25 55.28 370.57 55.28C366.01 55.28 362.01 56.2 358.57 58.04C355.13 59.8 352.25 62.16 349.93 65.12C347.69 68.08 345.97 71.52 344.77 75.44C343.65 79.28 343.09 83.28 343.09 87.44C343.09 91.76 343.65 95.92 344.77 99.92C345.97 103.92 347.69 107.48 349.93 110.6C352.25 113.64 355.17 116.08 358.69 117.92C362.21 119.68 366.29 120.56 370.93 120.56C375.01 120.56 378.65 119.84 381.85 118.4C385.13 116.88 387.77 114.44 389.77 111.08H390.01ZM436.609 47.36V33.32H419.569V47.36H436.609ZM419.569 56.96V119H436.609V56.96H419.569ZM450.507 33.32V119H467.547V33.32H450.507ZM511.564 126.68L537.484 56.96H519.844L506.284 99.44H506.044L492.004 56.96H473.884L495.604 115.16C496.084 116.36 496.324 117.64 496.324 119C496.324 120.84 495.764 122.52 494.644 124.04C493.604 125.56 491.964 126.44 489.724 126.68C488.044 126.76 486.364 126.72 484.684 126.56C483.004 126.4 481.364 126.24 479.764 126.08V140.12C481.524 140.28 483.244 140.4 484.924 140.48C486.684 140.64 488.444 140.72 490.204 140.72C496.044 140.72 500.604 139.64 503.884 137.48C507.164 135.32 509.724 131.72 511.564 126.68Z" fill="#204341"/>
<rect y="7" width="151" height="140" rx="10" fill="#27DEBF"/>
<path d="M86.4921 44.9007L83.4759 44.0739C83.0877 43.9444 82.7053 43.9851 82.3334 44.1957C81.9604 44.4064 81.7084 44.7227 81.579 45.1442L63.4382 107.931C63.3087 108.353 63.3493 108.75 63.56 109.123C63.7707 109.496 64.0864 109.747 64.5085 109.877L67.5238 110.704C67.9128 110.834 68.2939 110.793 68.6668 110.583C69.0398 110.371 69.2913 110.056 69.4206 109.635L87.5618 46.8466C87.6911 46.4252 87.6509 46.0276 87.4399 45.6543C87.229 45.2813 86.9137 45.03 86.4921 44.9007Z" fill="white"/>
<path d="M59.3058 57.1574C59.3058 56.736 59.1434 56.3628 58.8193 56.0388L56.3873 53.6069C56.0631 53.2827 55.69 53.1202 55.2686 53.1202C54.8472 53.1202 54.4739 53.2829 54.1499 53.6069L31.4865 76.2703C31.1618 76.5945 31 76.9675 31 77.389C31 77.8104 31.1623 78.1835 31.4865 78.5074L54.1498 101.171C54.4738 101.496 54.8463 101.657 55.2684 101.657C55.6905 101.657 56.0631 101.495 56.3871 101.171L58.8191 98.7404C59.1433 98.4164 59.3056 98.0431 59.3056 97.6212C59.3056 97.2003 59.1433 96.8272 58.8191 96.5032L39.7058 77.389L58.8193 58.2761C59.144 57.9521 59.3058 57.5789 59.3058 57.1574Z" fill="white"/>
<path d="M119.514 76.2698L96.8498 53.6064C96.5258 53.2824 96.1526 53.1198 95.7319 53.1198C95.3097 53.1198 94.9379 53.2824 94.6127 53.6064L92.1817 56.0381C91.8577 56.3623 91.696 56.7348 91.696 57.1568C91.696 57.5787 91.8575 57.9514 92.1817 58.2754L111.295 77.3888L92.1817 96.5032C91.8577 96.8272 91.696 97.2005 91.696 97.6212C91.696 98.0433 91.8575 98.4164 92.1817 98.7404L94.6127 101.171C94.9379 101.496 95.3099 101.657 95.7319 101.657C96.1528 101.657 96.5258 101.495 96.8498 101.171L119.514 78.5076C119.838 78.1836 120 77.8099 120 77.3885C120 76.9669 119.838 76.5938 119.514 76.2698Z" fill="white"/>
</svg>
