<svg width="1467" height="1094" viewBox="0 0 1467 1094" fill="none" xmlns="http://www.w3.org/2000/svg">
<path d="M686.467 882.827C649.483 882.939 612.497 883.841 575.579 888.016C561.657 889.589 548.029 893.052 534.077 894.447C506.208 897.236 478.839 902.439 450.872 904.837C428.349 906.771 405.733 907.911 383.277 910.363C362.224 912.661 338.915 912.131 318.023 908.333C302.556 905.521 287.019 903.94 271.812 899.423C254.801 894.372 236.32 890.76 218.597 890.889C193.321 891.075 168.708 891.097 144.521 900.016C136.031 903.148 125.637 908.295 119.189 914.865C104.43 929.908 102.432 967.441 117.169 983.043C141.991 1009.3 194.969 1019.6 229.763 1020.09C267.888 1020.62 304.927 1017.75 343.108 1016.05C378.588 1014.48 413.979 1012.25 449.516 1012.33C522.099 1012.49 594.692 1012.33 667.144 1007.4C735.213 1002.77 803.456 1004.36 871.675 1004.36C941.631 1004.36 1011.11 1004.92 1080.57 1014.36C1110.83 1018.48 1141.65 1019.92 1172.07 1022.81C1199.31 1025.39 1225.48 1022.76 1252.61 1020.37C1275.39 1018.36 1298.02 1012.42 1318.71 1002.37C1335.09 994.409 1364.29 969.691 1369.32 950.697C1383.4 897.451 1170.84 898.731 1138.2 898.851C1101.69 898.985 1064.89 900.205 1028.41 898.791C1013.06 898.196 997.941 895.148 982.963 891.807C968.044 888.48 953.013 889.327 937.885 887.928C874.795 882.096 811.565 882.947 748.275 882.947C727.68 882.947 707.073 882.764 686.467 882.827Z" fill="#F1F2F2"/>
<path d="M1013.01 490.076C1007.38 485.412 1002.23 480.083 997.587 474.493C985.423 459.851 975.976 443.155 964.4 428.043C963.967 427.477 963.508 426.843 963.561 426.133C963.601 425.592 963.937 425.12 964.276 424.696C968.819 419.008 983.873 410.253 991.553 411.655C995.492 412.373 997.32 416.693 1000 420.331C1006.32 428.897 1012.64 437.464 1018.95 446.032C1024.39 429.379 1029.83 412.723 1035.27 396.069C1037.77 388.395 1040.31 380.639 1044.56 373.775C1045.25 372.663 1046.07 371.511 1047.3 371.071C1049.05 370.447 1050.92 371.472 1052.44 372.545C1062.21 379.471 1069.21 390.211 1071.59 401.948C1073.53 411.467 1072.51 421.327 1071.02 430.924C1067.19 455.652 1060.23 479.893 1050.36 502.889C1049.98 503.767 1049.57 504.675 1048.83 505.276C1047.54 506.32 1045.67 506.113 1044.04 505.781C1032.51 503.433 1022.13 497.627 1013.01 490.076Z" fill="#7DB5DB"/>
<path d="M965.379 385.991C966.013 386.001 966.649 386.025 967.281 386.052C972.653 386.276 978.276 386.759 982.8 389.665C985.357 391.307 987.587 394.332 986.6 397.205C986.024 398.881 984.516 400.019 983.272 401.28C975.231 409.435 996.529 424.359 986.227 432.915C984.855 434.055 983.443 435.216 981.777 435.743C980.417 436.173 978.96 436.155 977.529 436.059C976.415 435.985 974.639 436.16 973.887 435.267C973.095 434.329 972.849 431.165 972.531 429.911C971.624 426.327 970.717 422.741 969.809 419.157C968.919 415.641 967.576 411.579 964.42 410.448C963.731 410.201 962.995 410.12 962.337 409.773C961.596 409.383 961.023 408.688 960.487 407.996C957.855 404.589 951.4 396.508 953.032 391.88C953.949 389.277 956.429 387.471 959.069 386.672C961.105 386.057 963.243 385.953 965.379 385.991" fill="#C9A98D"/>
<path d="M1047.86 947.293C1044.18 947.088 1040.49 946.883 1036.81 946.676C1035.03 933.056 1034.29 919.1 1034.62 905.223C1039.72 908.016 1046.8 906.301 1047.76 915.835C1048.07 918.921 1047.13 947.253 1047.86 947.293" fill="#E5D1BD"/>
<path d="M1036.98 940.248C1035.18 940.496 1033.48 941.745 1032.34 943.669C1031.68 944.787 1031.19 946.131 1030.37 947.035C1029.58 947.92 1028.55 948.295 1027.56 948.648C1022.8 950.339 1019.28 950.804 1014.77 953.517C1013.16 954.487 1011.4 955.192 1009.58 955.603C1009.04 955.725 1008.45 955.837 1008.03 956.223C1007.52 956.683 1007.36 957.433 1007.35 958.132C1007.29 961.029 1009.29 963.652 1011.79 964.941C1014.76 966.48 1018.22 966.698 1021.29 968.033C1024.89 969.603 1028.72 969.64 1032.54 968.989C1040.26 967.669 1047.39 963.786 1054.32 960.191C1054.94 959.871 1055.58 959.509 1055.98 958.776C1056.4 957.991 1056.45 956.928 1056.47 955.927C1056.59 950.355 1056.88 941.868 1051.27 941.809C1048.87 941.785 1046.66 943.756 1044.09 943.539C1041.98 943.36 1038.6 940.025 1036.98 940.248" fill="#3B455A"/>
<path d="M990.235 751.148C989.032 756.593 987.828 762.084 987.7 767.667C987.563 773.673 988.677 779.621 989.787 785.515C999.665 837.992 1009.54 890.467 1019.42 942.944C1027.64 942.708 1035.86 942.471 1044.07 942.235C1047.78 942.128 1054.5 939.333 1058.05 938.209C1058.05 938.209 1058.63 933.212 1058.44 929.672C1055.1 866.823 1047.39 819.017 1053.1 763.839C1054.53 749.968 1062.87 741.092 1070.15 729.351C1094.91 689.463 1101.1 655.204 1112.73 628.696C1113.47 627.017 1045.23 616.572 1041.86 616.056C1033.29 614.745 1025.92 614.556 1020.81 622.795C1015.15 631.901 1014.09 645.319 1011.74 655.592C1008.28 670.649 1004.86 685.716 1001.47 700.787C997.688 717.565 993.944 734.352 990.235 751.148" fill="#3B455A"/>
<path d="M1133.76 952.429C1129.81 952.592 1125.85 952.756 1121.89 952.919C1118.59 939.087 1116.37 924.801 1115.31 910.487C1121.06 912.841 1128.45 910.357 1130.45 920.068C1131.09 923.213 1132.98 952.461 1133.76 952.429" fill="#E5D1BD"/>
<path d="M1121.41 946.288C1119.51 946.725 1117.82 948.184 1116.8 950.281C1116.2 951.5 1115.81 952.932 1115.04 953.944C1114.27 954.937 1113.22 955.427 1112.19 955.891C1107.28 958.116 1103.55 958.953 1099 962.205C1097.38 963.367 1095.58 964.272 1093.68 964.879C1093.1 965.061 1092.49 965.236 1092.07 965.674C1091.58 966.2 1091.49 966.989 1091.54 967.709C1091.78 970.696 1094.19 973.191 1096.98 974.264C1100.32 975.544 1104.05 975.416 1107.46 976.477C1111.47 977.724 1115.58 977.373 1119.59 976.314C1127.72 974.169 1134.94 969.448 1141.99 965.041C1142.62 964.649 1143.27 964.213 1143.62 963.416C1143.99 962.565 1143.94 961.467 1143.86 960.434C1143.42 954.688 1142.86 945.927 1136.85 946.439C1134.29 946.657 1132.12 948.911 1129.35 948.948C1127.08 948.98 1123.12 945.893 1121.41 946.288" fill="#3B455A"/>
<path d="M1087.19 829.48C1094.14 866.105 1104.41 902.445 1104.91 939.721C1104.93 941.469 1104.99 943.372 1106.1 944.719C1107.22 946.06 1109.07 946.473 1110.8 946.733C1121.78 948.396 1133.18 947.2 1143.57 943.293C1144.68 923.879 1139.99 904.664 1137.83 885.336C1135.17 861.52 1136.36 837.46 1137.63 813.529C1140.74 755.1 1161.57 694.325 1159.48 635.849C1159.08 624.776 1141.21 615.776 1137.4 605.371C1114.09 609.019 1089.93 607.099 1067.49 599.815C1067.78 611.812 1069.91 622.58 1071.22 634.299C1072.94 649.729 1072.15 665.784 1072.72 681.308C1073.87 713.015 1075.67 744.723 1079.24 776.259C1081.26 794.085 1083.84 811.852 1087.19 829.48" fill="#3B455A"/>
<path d="M1126.77 358.056C1131.96 360.207 1136.56 363.032 1140.06 366.631C1151.08 377.985 1159.84 393.607 1166.71 407.885C1180.79 437.123 1189.97 469.844 1193.54 502.279C1199.56 556.992 1191.33 612.455 1180.25 666.443C1113.3 644.532 1045.73 624.675 977.657 606.905C984.971 608.815 1009.37 568.1 1012.99 561.947C1022.38 545.965 1033.34 525.669 1035.31 506.719C1038.79 473.188 1031.83 439.423 1036.56 405.956C1038.36 393.231 1037.74 381.791 1046.87 372.105C1056.71 361.675 1070.31 355.101 1084.26 353.143C1096.29 351.453 1113.45 352.531 1126.77 358.056" fill="#F7F7F7"/>
<path d="M1082.41 363.268C1082.7 364.06 1096.58 363.295 1098.1 363.285C1102.88 363.255 1105.23 361.881 1106.03 356.765C1106.91 351.207 1108.64 346.107 1111.56 341.295C1113.92 337.4 1117.53 334.712 1120.03 330.961C1122.25 327.656 1124.08 324.103 1125.57 320.419C1128.01 314.408 1129.59 308.045 1130.58 301.643C1131.34 296.735 1129.75 291.943 1129.4 286.988C1129.13 283.237 1128.83 279.375 1127.14 276.015C1124.18 270.12 1117.6 267.011 1111.24 265.239C1093.15 260.197 1058.72 261.94 1055.83 285.929C1055.19 291.195 1055.41 296.523 1055.64 301.823C1056.11 313.003 1053.12 333.627 1065.42 339.895C1068.89 341.663 1073.2 341.679 1076.26 344.087C1081.66 348.333 1080.02 356.828 1082.41 363.268" fill="#C9A98D"/>
<path d="M1166.22 269.231C1161.3 266.709 1157.76 262.169 1154.26 257.88C1150.76 253.591 1146.88 249.223 1141.7 247.319C1137 245.589 1131.88 246.139 1126.97 245.283C1121.81 244.381 1117 241.943 1111.98 240.304C1097.53 235.583 1081.14 237.999 1069.41 246.765C1062.42 251.981 1050.19 264.904 1053.31 274.769C1053.99 276.919 1055.64 278.74 1057.71 279.629C1060.46 280.809 1063.88 279.997 1066.51 281.336C1068.45 282.329 1069.21 284.029 1070.36 285.927C1072.84 290.052 1075.12 294.439 1079.13 297.313C1082.95 300.051 1087.76 300.875 1092.4 301.625C1093.43 301.792 1094.51 301.953 1095.48 301.575C1096.89 301.025 1097.63 299.533 1098.56 298.34C1100.34 296.044 1103.47 294.617 1106.25 295.5C1109.02 296.383 1110.76 300.012 1109.19 302.457C1107.58 304.944 1104.04 304.952 1101.09 305.007C1100.19 305.024 1099.06 305.24 1098.84 306.112C1098.68 306.701 1099.04 307.287 1099.39 307.788C1102.95 313.001 1106.51 318.216 1110.08 323.429C1112.25 326.607 1116.44 336.829 1121.22 333.333C1129.29 327.433 1131.55 317.749 1139.03 312.085C1142.46 309.495 1145.66 306.624 1148.61 303.513C1154.26 297.543 1157.99 290.044 1164.66 285.077C1167.18 283.2 1170.14 281.944 1172.7 280.105C1176.95 277.04 1179.95 272.343 1180.95 267.159C1177.93 271.507 1171.15 271.752 1166.22 269.231" fill="#3B455A"/>
<path d="M1209.64 637.839L926.236 595.867C920.361 594.997 916.273 589.445 917.148 583.533L943.42 406.139C944.296 400.225 949.819 396.1 955.692 396.969L1239.1 438.943C1244.97 439.812 1249.06 445.361 1248.19 451.276L1221.92 628.669C1221.04 634.583 1215.52 638.709 1209.64 637.839Z" fill="#305399"/>
<path d="M928.188 592.576L1206.68 633.821C1212.56 634.691 1218.08 630.564 1218.95 624.652L1233.89 523.784C1146.85 594.296 996.1 595.78 928.188 592.576Z" fill="#2C5B8F"/>
<path d="M994.155 513.488L947.871 506.632C945.937 506.345 944.591 504.531 944.877 502.599L949.751 469.693C950.036 467.761 951.852 466.413 953.784 466.7L1000.07 473.556C1002 473.841 1003.35 475.657 1003.06 477.589L998.189 510.495C997.903 512.427 996.087 513.773 994.155 513.488Z" fill="#7DB5DB"/>
<path d="M998.729 506.84L1001.15 490.523C986.311 501.063 961.623 503.631 946.659 504.164C947.753 505.731 949.453 506.867 951.476 507.167L990.549 512.953C994.464 513.533 998.145 510.781 998.729 506.84" fill="#63A3C6"/>
<path d="M1001.07 548.452L939.437 539.325L942.357 519.613L1003.99 528.741L1001.07 548.452" fill="#EAEAEA"/>
<path d="M1069.82 558.633L1008.18 549.505L1011.1 529.795L1072.73 538.923L1069.82 558.633Z" fill="#EAEAEA"/>
<path d="M1138.56 568.815L1076.93 559.687L1079.85 539.976L1141.48 549.104L1138.56 568.815" fill="#EAEAEA"/>
<path d="M1207.31 578.996L1145.68 569.868L1148.59 550.159L1210.23 559.285L1207.31 578.996" fill="#EAEAEA"/>
<path d="M1164.63 471.137C1165.56 464.852 1169.51 459.772 1174.78 457.153C1172.13 454.659 1168.73 452.916 1164.86 452.344C1154.76 450.847 1145.34 457.883 1143.83 468.057C1142.33 478.233 1149.3 487.697 1159.41 489.195C1163.27 489.767 1167.03 489.084 1170.29 487.464C1166.01 483.432 1163.69 477.424 1164.63 471.137" fill="#EAC5B0"/>
<path d="M1185.42 474.217C1186.35 467.931 1190.3 462.851 1195.57 460.232C1192.92 457.737 1189.52 455.996 1185.66 455.424C1181.79 454.851 1178.03 455.533 1174.78 457.153C1179.06 461.185 1181.37 467.193 1180.44 473.48C1179.51 479.767 1175.55 484.845 1170.29 487.464C1172.94 489.959 1176.33 491.701 1180.2 492.273C1184.06 492.845 1187.82 492.164 1191.08 490.544C1186.8 486.511 1184.49 480.503 1185.42 474.217" fill="#587BC9"/>
<path d="M1180.44 473.48C1181.37 467.193 1179.06 461.185 1174.78 457.153C1169.51 459.772 1165.56 464.852 1164.63 471.137C1163.69 477.424 1166.01 483.432 1170.29 487.464C1175.55 484.845 1179.51 479.767 1180.44 473.48Z" fill="#F7F7F7"/>
<path d="M1206.45 458.503C1202.59 457.931 1198.83 458.612 1195.57 460.232C1199.85 464.265 1202.16 470.273 1201.23 476.559C1200.3 482.845 1196.35 487.925 1191.08 490.544C1193.73 493.039 1197.13 494.78 1200.99 495.352C1211.1 496.849 1220.52 489.815 1222.02 479.639C1223.53 469.463 1216.56 460 1206.45 458.503" fill="#60ACBE"/>
<path d="M1201.23 476.559C1202.16 470.273 1199.85 464.265 1195.57 460.232C1190.3 462.851 1186.35 467.931 1185.42 474.217C1184.49 480.503 1186.8 486.511 1191.08 490.544C1196.35 487.925 1200.3 482.845 1201.23 476.559" fill="#3B455A"/>
<path d="M1204.34 599.004L1073.97 579.696L1074.85 573.723L1205.23 593.032L1204.34 599.004Z" fill="#EBECEC"/>
<path d="M1202.44 611.847L1102.88 597.103L1103.77 591.128L1203.33 605.875L1202.44 611.847" fill="#C5C6C7"/>
<path d="M1002.41 481.959L1002.63 480.527L976.683 476.684L977.639 470.232L976.215 470.023L975.259 476.473L949.315 472.631L949.103 474.064L975.047 477.905L974.137 484.055L948.192 480.212L947.98 481.644L973.924 485.487L973.916 485.54L974.688 485.599C974.952 485.621 981.113 486.132 980.96 490.951C980.96 490.964 980.907 492.353 979.699 493.4C978.408 494.519 976.301 494.889 973.437 494.5L946.664 490.533L946.451 491.967L972.521 495.828L971.593 502.089L945.524 498.227L945.312 499.661L971.381 503.521L970.425 509.973L971.849 510.183L972.805 503.732L998.624 507.556L998.836 506.123L973.017 502.3L973.948 496.017C976.889 496.308 979.139 495.796 980.637 494.497C981.728 493.552 982.141 492.419 982.3 491.699L1000.57 494.404L1000.78 492.971L982.379 490.245C982.069 486.281 978.193 484.655 975.563 484.243L976.471 478.116L1002.41 481.959" fill="#EBECEC"/>
<path d="M1204.34 599.004L1205.23 593.032L1110.16 578.952C1104.47 580.247 1098.76 581.437 1093.06 582.524L1204.34 599.004" fill="#C5C6C7"/>
<path d="M1210.23 559.285L1182.36 555.159C1170.57 560.552 1158.3 565.224 1145.77 569.257L1145.68 569.868L1207.31 578.996L1210.23 559.285Z" fill="#E5E5E5"/>
<path d="M946.715 408.457L942.148 439.292C944.897 426.32 955.377 398.753 994.528 404.552L958.987 399.288C953.113 398.419 947.591 402.545 946.715 408.457" fill="#5E88BB"/>
<path d="M1183.51 261.192C1182.78 261.341 1182.05 261.5 1181.33 261.671C1180.89 261.773 1180.44 261.885 1180.08 262.148C1179.73 262.404 1179.49 262.784 1179.26 263.159C1176.7 267.385 1175.35 271.795 1173.99 276.495C1173.48 278.244 1173.35 278.38 1174.43 279.943C1175.63 281.677 1177.05 283.319 1178.4 284.941C1179.4 287.633 1180.52 290.289 1181.3 293.06C1183.26 300.076 1179.95 316.969 1188.91 319.127C1190.65 319.545 1192.43 319.964 1194.15 319.703C1195.56 319.489 1196.86 318.829 1198.11 318.112C1199.07 317.555 1200.74 316.928 1201.03 315.793C1201.32 314.604 1200.15 311.656 1199.88 310.389C1199.11 306.773 1198.34 303.156 1197.58 299.539C1196.83 295.991 1196.24 291.752 1198.57 289.345C1199.08 288.82 1199.71 288.423 1200.14 287.821C1200.64 287.143 1200.85 286.267 1201.02 285.409C1201.66 282.269 1202.08 278.98 1202.03 275.717C1201.98 272.737 1200.07 271.544 1198.22 269.551C1196.28 267.469 1195.73 264.568 1194 262.355C1192.27 260.129 1189.91 260.109 1187.22 260.524C1185.98 260.717 1184.74 260.94 1183.51 261.192" fill="#C9A98D"/>
<path d="M1214.48 395.269C1214.3 387.493 1213.99 379.573 1214.19 371.448C1214.73 348.688 1211.99 325.645 1206.11 303.42C1196.28 302.6 1186.41 303.925 1177.25 307.295C1178.54 332.743 1178.81 358.603 1168.49 382.343C1168.07 383.296 1167.48 384.36 1166.45 384.517C1165.45 384.669 1164.57 383.881 1163.88 383.141C1157.12 375.903 1151.49 367.343 1143.16 361.98C1134.83 356.616 1122.36 355.681 1116.03 363.297C1111.97 368.171 1111.53 375.156 1112.61 381.403C1114.28 391.036 1119.01 399.888 1124.58 407.917C1133.26 420.413 1144.14 431.371 1156.58 440.127C1165.1 446.124 1174.39 451.139 1181.97 458.277C1184.11 460.284 1186.27 462.549 1189.13 463.185C1194.42 464.367 1199.05 459.556 1201.98 454.988C1214.59 435.349 1214.95 415.813 1214.48 395.269" fill="#F7F7F7"/>
<path d="M1243.51 230.883H1230.7V188.504C1230.7 170.008 1215.67 154.96 1197.19 154.96C1178.71 154.96 1163.67 170.008 1163.67 188.504V230.883H1150.87V188.504C1150.87 162.941 1171.65 142.144 1197.19 142.144C1222.73 142.144 1243.51 162.941 1243.51 188.504V230.883" fill="#3B455A"/>
<path d="M1263.11 295.023C1263.11 297.767 1260.88 299.992 1258.14 299.992H1136.23C1133.49 299.992 1131.27 297.767 1131.27 295.023V215.741C1131.27 212.996 1133.49 210.773 1136.23 210.773H1258.14C1260.88 210.773 1263.11 212.996 1263.11 215.741V295.023Z" fill="#EAC5B0"/>
<path d="M1263.11 295.023V246.445C1222.94 280.456 1165.03 293.236 1132.22 297.925C1133.12 299.172 1134.58 299.992 1136.23 299.992H1258.14C1260.88 299.992 1263.11 297.767 1263.11 295.023Z" fill="#D6AF9A"/>
<path d="M1208.08 241.945C1208.08 235.924 1203.2 231.041 1197.19 231.041C1191.17 231.041 1186.29 235.924 1186.29 241.945C1186.29 245.536 1188.03 248.712 1190.71 250.699L1187.24 275.356H1207.13L1203.67 250.699C1206.34 248.712 1208.08 245.536 1208.08 241.945" fill="#3B455A"/>
<path d="M1135.43 237.247V220.173C1135.43 216.9 1138.1 214.221 1141.37 214.221H1161.16C1139.36 214.221 1135.88 229.997 1135.43 237.247" fill="#E6CCBE"/>
<path d="M1187.24 275.356C1187.24 275.356 1202 271.18 1203.67 250.699L1207.13 275.356H1187.24Z" fill="#3E3D40"/>
<path d="M973.388 409.737C971.576 408.593 970.56 406.311 970.923 404.2C971.139 402.943 971.785 401.803 972.127 400.573C972.468 399.345 972.428 397.86 971.491 396.999C970.041 395.667 967.153 396.389 966.277 394.627C965.616 393.292 966.809 391.785 968.033 390.937C973.699 387.007 985.047 388.252 985.661 396.788C986.032 401.944 979.648 413.693 973.388 409.737" fill="#C9A98D"/>
<path d="M316.784 927.711C312.677 929.005 308.5 928.472 304.343 929.004C301.047 914.667 299.251 900.583 298.885 885.721C306.883 891.169 311.189 885.816 314.18 898.993C315.147 903.257 314.388 921.444 316.784 927.711" fill="#E5D1BD"/>
<path d="M301.695 922.119C296.532 921.579 298.229 933.177 298.843 935.852C299.212 937.459 299.8 939.047 299.772 940.695C299.74 942.509 298.964 944.219 298.204 945.865C296.611 949.316 295.017 952.767 293.425 956.217C292.708 957.768 291.983 959.355 291.811 961.056C291.384 965.268 294.773 969.313 298.9 970.273C313.212 973.6 321.047 955.172 321.295 944.211C321.332 942.529 321.249 940.849 321.167 939.171C320.995 935.697 321.74 927.852 319.632 924.935C317.173 921.528 313.188 925.403 309.792 924.723C306.641 924.089 303.784 922.339 301.695 922.119" fill="#3B455A"/>
<path d="M336.869 673.285C332.885 708.524 326.899 743.501 327.345 779.263C327.896 823.44 322.281 868.02 324.521 911.884C319.399 913.311 314.171 914.353 308.892 915C302.841 915.743 293.12 916.435 289.429 910.529C287.543 907.512 287.389 901.892 286.723 898.443C284.588 887.392 282.704 876.291 280.847 865.192C275.588 833.785 269.523 802.175 267.773 770.376C265.933 736.923 263.813 703.423 261.257 670.149C259.936 652.952 259.268 635.705 259.416 618.456C259.453 614.012 259.959 568.179 262.208 567.995C288.919 565.811 315.048 568.453 340.68 576.268C343.171 577.027 345.647 578.052 346.965 580.165C348.281 582.277 348.08 584.425 347.888 586.681C346.049 608.2 341.679 629.025 339.379 650.575C338.579 658.072 337.741 665.577 336.869 673.285Z" fill="#BCBEC0"/>
<path d="M354.483 926.004C358.589 927.301 362.768 926.768 366.924 927.299C370.22 912.96 372.016 898.879 372.381 884.015C364.384 889.464 360.077 884.111 357.088 897.287C356.12 901.553 356.879 919.74 354.483 926.004" fill="#E5D1BD"/>
<path d="M370.857 922.797C371.365 930.759 378.168 938.939 382.084 945.881C382.545 946.697 383.016 947.547 383.091 948.481C383.203 949.869 382.431 951.159 381.688 952.335C380.656 953.972 379.531 955.691 377.777 956.508C376.055 957.311 374.048 957.088 372.171 956.797C369.028 956.311 365.908 955.68 362.824 954.909C362.056 954.719 361.271 954.508 360.625 954.049C359.86 953.505 359.368 952.667 358.899 951.855C356.491 947.684 354.481 944.743 354.296 939.941C354.105 934.979 354.408 929.809 353.195 924.956C352.599 922.604 351.815 919.597 353.772 918.163C355.285 917.053 358.26 918.264 359.995 918.437C363.055 918.74 365.843 918.379 368.731 919.793C369.32 920.081 369.897 920.437 370.283 920.968C370.673 921.507 370.815 922.135 370.857 922.797Z" fill="#3B455A"/>
<path d="M334.396 671.581C338.381 706.82 344.367 741.796 343.921 777.557C343.371 821.735 348.985 866.316 346.745 910.179C351.867 911.607 357.096 912.649 362.375 913.296C368.425 914.037 378.148 914.728 381.837 908.825C383.724 905.807 383.877 900.188 384.544 896.737C386.68 885.688 388.563 874.587 390.42 863.487C395.679 832.08 401.744 800.471 403.493 768.671C405.333 735.219 407.453 701.719 410.009 668.444C411.332 651.248 411.999 634 411.851 616.752C411.813 612.308 411.308 566.473 409.059 566.289C382.349 564.107 356.219 566.749 330.587 574.561C328.096 575.323 325.62 576.347 324.303 578.46C322.984 580.573 323.187 582.721 323.38 584.976C325.217 606.496 329.588 627.321 331.888 648.871C332.688 656.368 333.525 663.873 334.396 671.581" fill="#BCBEC0"/>
<path d="M306.615 377.077C306.9 377.556 307.268 378.005 307.751 378.427C309.655 380.083 312.201 380.929 314.688 381.128C317.968 381.389 321.237 380.643 324.423 379.827C328.727 378.723 328.415 376.18 328.797 372.187C329.007 370.004 329.085 367.813 329.112 365.621C329.127 364.42 328.395 360.167 329.105 359.281C329.587 358.681 331.704 358.74 332.597 358.201C334.012 357.345 335.145 355.863 335.939 354.443C337.217 352.149 337.837 349.559 338.444 347.004C339.5 342.563 340.555 338.12 341.609 333.677C342.688 329.139 343.771 324.56 343.916 319.897C344.136 312.869 342.388 303.075 336.793 298.296C331.691 293.937 324.568 292.745 318.08 292.327C309.488 291.771 300.749 293.885 293.671 298.871C290.812 300.884 288.143 303.429 286.591 306.796C284.2 311.989 284.797 318.245 285.456 324.089C286.064 329.484 286.672 334.877 287.279 340.272C287.977 346.476 289.203 353.599 294.076 356.68C296.664 358.317 299.925 358.499 302.188 360.664C305.023 363.375 305.121 367.704 305.461 371.347C305.656 373.428 305.624 375.412 306.615 377.077" fill="#EACDB0"/>
<path d="M329.215 305.44C329.54 305.929 329.819 306.44 330.043 306.976C331.216 309.781 330.748 313.061 331.897 315.879C333.723 320.343 339.216 322.751 340.315 327.445C341.215 331.285 338.793 335.143 338.816 339.085C338.84 343.393 341.844 347.285 341.683 351.551C341.543 355.255 339.532 360.575 337.519 363.664C338.143 362.707 344.325 362.645 345.863 361.568C348.219 359.92 348.439 358.959 349.008 356.361C349.572 353.781 348.856 351.32 349.82 348.653C351.004 345.381 353.7 342.865 354.483 339.405C355.552 334.685 352.779 329.951 352.668 325.112C352.503 317.789 358.385 310.512 355.659 303.715C354.059 299.725 349.941 297.371 347.488 293.843C345.624 291.164 344.796 287.921 343.435 284.955C342.073 281.991 339.868 279.076 336.687 278.351C334.919 277.947 333.065 278.275 331.267 278.055C328.156 277.675 325.469 275.713 322.444 274.896C318.116 273.728 310.908 278.483 308.66 282.228C306.428 285.948 307.856 288.901 310.564 291.896C315.073 296.884 325.389 299.687 329.215 305.44" fill="#3B455A"/>
<path d="M270.791 287.44C268.368 289.461 265.316 291.003 263.133 293.327C258.877 297.855 258.443 304.699 258.668 310.908C258.869 316.439 256.761 321.495 257.72 327.211C258.364 331.049 260.251 334.853 263.539 336.939C267.632 339.535 273.809 339.615 275.839 344.017C278.043 348.799 273.353 355.288 276.701 359.352C278.549 361.595 281.903 361.729 284.433 363.156C287.257 364.747 288.848 367.804 290.68 370.479C292.512 373.152 295.175 375.779 298.413 375.645C298.236 370.719 298.137 366.812 295.755 362.444C294.367 359.9 290.459 355.292 293.049 352.28C294.648 349.813 298.72 348.787 298.644 345.848C298.607 344.468 297.572 343.356 296.741 342.252C293.528 337.983 292.857 332.067 294.537 326.995C296.217 321.921 300.069 317.712 304.724 315.087C310.18 312.009 309.187 310.692 310.484 305.204C311.679 300.153 314.419 298.813 318.767 296.727C322.672 294.855 323.896 293.763 325.139 289.921C326.049 287.109 327.176 283.739 325.415 280.776C324.015 278.42 321.661 276.821 319.383 275.299C314.624 272.12 309.291 268.797 303.62 269.565C300.469 269.992 297.585 271.665 294.429 272.044C292.324 272.295 290.195 271.959 288.075 272.021C284.461 272.127 280.728 273.46 277.943 275.789C275.133 278.14 275.359 280.401 273.915 283.576C273.208 285.132 272.089 286.355 270.791 287.44" fill="#3B455A"/>
<path d="M282.28 266.416C282.62 262.953 281.985 258.509 278.639 257.557C276.805 257.036 274.84 257.857 272.952 257.595C268.931 257.036 267.276 252.311 264.975 248.963C264.631 248.461 264.227 247.957 263.656 247.745C262.843 247.443 261.952 247.813 261.097 247.972C257.175 248.701 253.927 244.989 250.116 243.808C245.399 242.345 239.781 245.591 238.689 250.407C238.241 252.387 238.471 254.468 238.059 256.453C236.385 264.503 225.007 268.597 225.228 276.815C225.376 282.369 231.132 287.337 229.345 292.599C228.203 295.963 224.124 298.463 224.827 301.944C225.279 304.185 227.781 305.573 230.06 305.399C232.339 305.223 234.356 303.84 235.98 302.232C238.559 299.68 240.421 296.496 242.861 293.811C245.301 291.127 248.639 288.864 252.26 289.088C255.767 289.304 259.085 291.816 262.508 291.019C265.245 290.383 267.144 287.785 269.817 286.92C272.32 286.111 275.025 286.944 277.655 286.937C280.284 286.931 283.416 285.367 283.321 282.737C283.299 282.101 283.08 281.456 283.241 280.839C283.695 279.113 286.589 279.029 287.032 277.3C285.533 275.277 283.652 276.155 282.499 273.461C281.607 271.38 282.068 268.589 282.28 266.416" fill="#3B455A"/>
<path d="M402.025 288.773C401.34 288.913 400.657 289.064 399.977 289.223C399.568 289.32 399.149 289.424 398.811 289.671C398.479 289.912 398.252 290.269 398.04 290.62C395.635 294.588 394.363 298.729 393.088 303.141C392.613 304.784 392.487 304.911 393.503 306.379C394.632 308.007 395.96 309.548 397.228 311.072C398.173 313.601 399.223 316.095 399.951 318.696C401.791 325.281 398.683 341.144 407.101 343.171C408.731 343.561 410.4 343.956 412.021 343.711C413.347 343.509 414.567 342.889 415.732 342.219C416.641 341.693 418.209 341.105 418.475 340.041C418.752 338.923 417.649 336.156 417.397 334.967C416.677 331.571 415.957 328.173 415.237 324.779C414.531 321.447 413.98 317.467 416.171 315.208C416.651 314.715 417.237 314.34 417.647 313.777C418.109 313.14 418.305 312.317 418.469 311.512C419.071 308.563 419.468 305.475 419.417 302.411C419.371 299.615 417.579 298.493 415.839 296.62C414.021 294.667 413.497 291.943 411.881 289.865C410.256 287.775 408.035 287.756 405.516 288.147C404.348 288.328 403.184 288.536 402.025 288.773" fill="#EACDB0"/>
<path d="M431.104 414.663C430.935 407.361 430.649 399.925 430.831 392.296C431.339 370.927 428.769 349.289 423.244 328.423C414.015 327.653 404.749 328.896 396.153 332.06C397.363 355.953 397.615 380.235 387.924 402.525C387.535 403.42 386.973 404.419 386.009 404.567C385.069 404.711 384.249 403.969 383.6 403.275C377.248 396.479 371.964 388.443 364.143 383.405C356.32 378.371 344.616 377.493 338.665 384.643C334.857 389.219 334.449 395.777 335.463 401.643C337.025 410.687 341.469 418.999 346.703 426.539C354.845 438.271 365.064 448.559 376.743 456.779C384.74 462.411 393.461 467.119 400.585 473.823C402.589 475.707 404.616 477.832 407.301 478.431C412.275 479.54 416.62 475.021 419.373 470.732C431.207 452.293 431.553 433.951 431.104 414.663" fill="#7DB5DB"/>
<path d="M350.048 315.968C353.768 244.021 415.108 188.713 487.055 192.433C559.001 196.152 614.309 257.492 610.591 329.44C606.871 401.385 545.531 456.695 473.584 452.975C401.637 449.255 346.328 387.915 350.048 315.968Z" fill="#3A63AA"/>
<path d="M369.76 316.988C372.917 255.928 424.975 208.988 486.035 212.144C547.096 215.301 594.036 267.36 590.879 328.42C587.721 389.48 535.664 436.42 474.603 433.263C413.543 430.107 366.603 378.048 369.76 316.988Z" fill="#587BC9"/>
<path d="M590.853 328.876C590.863 328.724 590.871 328.573 590.879 328.42C592.936 288.621 573.707 252.644 543.161 231.543C543.121 231.472 543.081 231.401 543.041 231.332C573.66 252.421 592.945 288.436 590.885 328.289C590.875 328.487 590.865 328.679 590.853 328.876Z" fill="#3D66AD"/>
<path d="M480.421 433.283C478.495 433.283 476.555 433.232 474.609 433.132C435.477 431.108 402.144 409 384.081 377.308C400.375 388.531 419.875 395.529 441.081 396.625C443.029 396.727 444.963 396.776 446.892 396.776C505.408 396.772 554.3 350.893 557.356 291.783C557.848 282.281 557.125 272.996 555.325 264.08C559.492 268.253 563.281 272.8 566.637 277.659C563.199 270.904 558.996 264.593 554.135 258.844C551.691 249.193 547.972 240.027 543.161 231.543C573.707 252.644 592.936 288.621 590.879 328.42C590.871 328.573 590.863 328.724 590.853 328.876C587.503 387.704 538.745 433.284 480.421 433.283" fill="#476EB7"/>
<path d="M399.057 377.417C387.225 360.292 380.743 339.272 381.901 316.879C384.599 264.696 427.756 224.196 479.413 224.196C481.113 224.196 482.824 224.24 484.541 224.329C512.617 225.78 537.311 238.945 554.135 258.844C554.573 260.575 554.971 262.32 555.325 264.08C538.831 247.557 516.397 236.856 491.245 235.555C489.525 235.467 487.821 235.423 486.117 235.423C434.464 235.423 391.303 275.925 388.604 328.105C387.688 345.817 391.549 362.671 399.057 377.417" fill="#7191D2"/>
<path d="M566.637 277.659C563.281 272.8 559.492 268.253 555.325 264.08C554.971 262.32 554.573 260.575 554.135 258.844C558.996 264.593 563.199 270.904 566.637 277.659" fill="#6486C3"/>
<path d="M493.136 251.816L492.407 265.901C498.012 267.105 502.54 269.212 505.987 272.223C509.433 275.236 512.635 279.749 515.591 285.763L501.172 292.871C497.352 284.988 492.04 280.869 485.239 280.517C481.023 280.3 477.46 281.365 474.553 283.713C471.645 286.06 470.096 289.103 469.903 292.839C469.727 296.241 470.705 299.125 472.841 301.493C474.931 303.811 479.251 306.653 485.803 310.017C491.463 312.952 496.125 315.679 499.791 318.199C503.455 320.719 506.189 323.105 507.995 325.359C513.105 331.485 515.448 338.691 515.02 346.979C514.599 355.123 511.783 362.184 506.575 368.159C501.416 374.088 494.732 377.921 486.525 379.66L485.756 394.535L473.18 393.885L473.927 379.44C464.616 377.42 457.621 373.817 452.943 368.628C448.263 363.439 445.015 355.633 443.2 345.211L459.181 342.723C460.96 350.116 463.327 355.451 466.28 358.724C469.384 361.864 473.641 363.573 479.056 363.853C484.325 364.125 488.821 362.653 492.543 359.435C496.213 356.263 498.187 352.016 498.461 346.699C498.707 341.956 497.441 338.071 494.668 335.047C493.255 333.58 491.144 331.899 488.336 330C485.528 328.101 481.925 326.005 477.528 323.713C468.449 319.064 462.539 314.915 459.799 311.268C455.421 305.805 453.421 299.433 453.799 292.151C453.976 288.701 454.692 285.52 455.948 282.607C457.204 279.693 458.936 277.081 461.145 274.769C463.355 272.457 466.037 270.496 469.196 268.881C472.353 267.268 475.899 266.056 479.831 265.251L480.559 251.167L493.136 251.816" fill="#305399"/>
<path d="M295.625 385.121C295.204 385.293 294.785 385.475 294.371 385.663C287.433 388.804 281.693 394.036 276.08 399.181C267.649 406.911 263.472 410.331 260.708 421.168C258.129 431.277 256.783 441.865 255.464 452.199C252.788 473.16 251.672 494.279 250.723 515.377C250.196 527.06 248.367 638.173 238.183 639.009C305.203 633.511 372.223 628.012 439.243 622.513C436.309 604.813 428.596 588.331 421.605 571.805C403.493 529 389.761 484.341 380.693 438.755C377.757 424.003 375.141 399.375 362.915 388.833C349.627 377.381 321.051 378.92 305.109 382.323C301.881 383.011 298.677 383.872 295.625 385.121Z" fill="#7DB5DB"/>
<path d="M534.623 730.467L201.464 777.728L178.139 613.3L511.297 566.039L534.623 730.467Z" fill="#587BC9"/>
<path d="M208.637 768.133L523.049 723.532L503.169 576.212L188.649 620.569L208.637 768.133ZM525.684 725.527L206.629 770.787L186.015 618.572L187.168 618.411L505.179 573.56L525.684 725.527Z" fill="white"/>
<path d="M459.837 580.913C459.837 580.913 496.312 583.437 504.229 626.721L514.185 703.168C514.185 703.168 516.079 716.519 501.729 723.884L488.212 728.761L524.367 724.529L504.175 574.885L459.837 580.913" fill="white"/>
<path d="M230.821 613.796C230.821 613.796 196.487 626.364 200.92 670.143L212.619 746.344C212.619 746.344 214.512 759.693 230.344 762.777L244.685 763.703L208.78 769.692L186.557 620.337L230.821 613.796Z" fill="white"/>
<path d="M277.304 678.451C278.623 687.748 272.631 696.285 263.92 697.521C255.208 698.757 247.079 692.223 245.76 682.927C244.441 673.629 250.433 665.093 259.144 663.857C267.855 662.62 275.985 669.156 277.304 678.451" fill="white"/>
<path d="M245.853 728.504L241.312 729.149L239.459 716.089L244.001 715.444L245.853 728.504Z" fill="white"/>
<path d="M253.236 727.457L248.693 728.101L246.84 715.043L251.383 714.397L253.236 727.457" fill="white"/>
<path d="M260.616 726.409L256.073 727.055L254.221 713.996L258.764 713.351L260.616 726.409Z" fill="white"/>
<path d="M267.997 725.363L263.456 726.007L261.603 712.948L266.145 712.304L267.997 725.363Z" fill="white"/>
<path d="M275.379 724.316L270.837 724.96L268.984 711.9L273.527 711.256L275.379 724.316Z" fill="white"/>
<path d="M282.761 723.269L278.219 723.913L276.365 710.853L280.908 710.209L282.761 723.269Z" fill="white"/>
<path d="M290.143 722.223L285.599 722.867L283.747 709.807L288.289 709.163L290.143 722.223" fill="white"/>
<path d="M297.523 721.173L292.981 721.819L291.128 708.76L295.671 708.115L297.523 721.173Z" fill="white"/>
<path d="M430.097 632.5L425.555 633.145L424.976 629.063L429.519 628.419L430.097 632.5" fill="white"/>
<path d="M437.479 631.453L432.936 632.097L432.357 628.016L436.9 627.372L437.479 631.453Z" fill="white"/>
<path d="M444.86 630.405L440.317 631.051L439.739 626.969L444.281 626.325L444.86 630.405Z" fill="white"/>
<path d="M452.241 629.359L447.699 630.003L447.12 625.923L451.663 625.277L452.241 629.359Z" fill="white"/>
<path d="M459.623 628.312L455.081 628.956L454.501 624.876L459.044 624.231L459.623 628.312" fill="white"/>
<path d="M467.004 627.265L462.461 627.909L461.883 623.828L466.425 623.184L467.004 627.265Z" fill="white"/>
<path d="M474.385 626.219L469.843 626.861L469.264 622.78L473.807 622.136L474.385 626.219Z" fill="white"/>
<path d="M481.767 625.169L477.224 625.815L476.645 621.733L481.188 621.089L481.767 625.169Z" fill="white"/>
<path d="M419.972 738.145L314.336 753.131L313.183 745.004L418.819 730.02L419.972 738.145Z" fill="white"/>
<path d="M346.183 599.997C320.047 603.705 303.375 639.095 309.02 678.887C314.665 718.677 340.521 748.035 366.659 744.328C392.795 740.619 409.465 705.229 403.821 665.439C398.176 625.645 372.32 596.289 346.183 599.997ZM367.152 747.809C353.424 749.757 339.439 743.617 327.772 730.52C316.283 717.623 308.387 699.46 305.537 679.38C302.689 659.3 305.223 639.659 312.672 624.073C320.235 608.249 331.961 598.461 345.689 596.515C359.417 594.567 373.403 600.708 385.068 613.803C396.557 626.701 404.455 644.863 407.304 664.944C410.152 685.024 407.617 704.667 400.169 720.251C392.605 736.075 380.88 745.863 367.152 747.809" fill="white"/>
<path d="M405.396 665.412C411.187 706.228 393.879 742.44 366.739 746.289C339.599 750.139 312.903 720.171 307.113 679.355C301.323 638.537 318.629 602.328 345.771 598.477C372.911 594.627 399.607 624.595 405.396 665.412Z" fill="#587BC9"/>
<path d="M243.847 623.583C244.135 623.32 244.403 623.037 244.643 622.725C246.877 619.832 245.337 616.517 246.541 613.5C247.079 612.153 250.897 610.099 249.135 608.463C248.48 607.865 246.447 605.663 244.269 603.58C243.203 601.312 242.031 599.088 241.181 596.729C239.032 590.761 241.525 575.625 232.879 574.583C231.207 574.381 229.491 574.181 227.853 574.575C226.513 574.896 225.299 575.599 224.141 576.344C223.24 576.927 221.669 577.635 221.445 578.656C221.209 579.728 222.448 582.204 222.755 583.288C223.629 586.389 224.504 589.491 225.379 592.592C226.237 595.633 226.964 599.296 224.832 601.628C224.365 602.139 223.784 602.547 223.392 603.115C222.948 603.757 222.783 604.547 222.651 605.315C222.163 608.129 221.889 611.056 222.069 613.919C222.396 619.035 229.335 623.083 233.056 625.629C233.983 626.264 234.963 626.889 236.072 627.057C237.876 627.333 239.612 626.363 241.18 625.428C242.109 624.875 243.055 624.307 243.847 623.583" fill="#E5D1BD"/>
<path d="M217.233 511.301C215.337 514.88 213.42 518.513 212.539 522.467C211.836 525.617 211.813 528.879 211.875 532.108C212.257 552.128 215.781 572.085 222.277 591.028C231.695 590.815 241.067 588.716 249.675 584.891C248.027 568.521 247.685 552.021 248.655 535.599C248.853 532.24 249.115 528.841 250.2 525.657C251.764 521.068 255.46 517.613 258.023 513.499C269.389 495.24 279.116 484.389 291.488 467.885C298.292 458.808 310.909 443.28 317.38 433.964C323.5 425.149 284.584 392.561 274.068 400.068C247.249 419.208 232.7 482.105 217.233 511.301" fill="#7DB5DB"/>
<path d="M820.307 942.215C819.779 940.487 818.884 938.897 817.553 937.737C816.853 937.127 816.052 936.649 815.371 936.015C812.167 933.035 812.531 930.185 807.819 930.832C802.456 931.567 797.113 932.556 791.769 933.416C791.557 933.449 791.335 933.489 791.169 933.629C790.931 933.832 790.876 934.18 790.837 934.499C790.617 936.349 790.396 938.201 790.176 940.055C789.58 945.06 785.093 946.527 781.417 948.505C780.473 949.015 779.493 949.528 778.497 950.056C774.328 952.265 761.687 957.183 767.925 963.712C770.504 966.409 774.971 966.408 778.403 966.757C781.72 967.095 785.057 966.298 788.327 965.843C798.813 963.862 808.485 960.757 817.977 955.695C821.379 953.881 821.16 948.747 820.855 945.104C820.773 944.129 820.593 943.152 820.307 942.215" fill="#3B455A"/>
<path d="M712.028 941.135C711.852 940.308 711.571 939.549 711.151 938.908C710.612 938.087 709.857 937.432 709.348 936.591C708.039 934.429 708.521 931.372 706.911 929.443C704.636 926.719 700.781 927.955 697.857 928.145C693.361 928.437 688.776 928.215 684.271 928.251C684.056 928.253 683.831 928.257 683.647 928.372C683.383 928.535 683.279 928.872 683.197 929.18C682.719 930.979 682.239 932.777 681.76 934.576C680.464 939.441 675.82 940.211 671.905 941.612C670.899 941.973 669.857 942.333 668.797 942.704C665.361 943.908 660.407 944.852 657.7 947.504C651.567 953.513 662.327 958.172 666.352 959.213C669.585 960.048 673 959.767 676.299 959.811C686.952 959.439 696.956 957.831 707.06 954.259C708.061 953.904 709.097 953.528 709.851 952.759C710.532 952.061 710.911 951.111 711.203 950.164C711.937 947.785 712.641 944.039 712.028 941.135" fill="#3B455A"/>
<path d="M739.767 615.837L732.403 684.047L721.98 809.908L711.653 934.588L678.684 932.84L665.268 796.771L661.324 681.348L673.913 607.733L739.767 615.837" fill="#8C9193"/>
<path d="M805.303 616.652L815.995 658.503L804.14 777.775L818.069 936.456L786.749 939.108L746.111 787.313L714.052 621.232L805.303 616.652" fill="#8C9193"/>
<path d="M837.516 618.525C837.257 610.74 836.796 604.224 836.731 601.891C836.147 580.809 834.131 559.604 831.268 538.336C828.684 519.131 825.403 499.877 821.849 480.532C816.277 450.193 811.213 423.463 800.044 394.611C796.077 384.364 792.007 373.935 785.159 365.403C778.849 357.541 769.437 352.144 759.987 348.979C755.572 347.501 750.604 346.239 746.185 345.237C741.181 344.105 738.669 346.364 733.879 348.415C730.659 349.793 726.879 350.161 723.541 351.332C703.716 358.281 692.396 372.275 685.688 392.143C680.289 408.127 674.893 424.111 669.496 440.095C665.063 453.221 660.629 466.352 656.785 479.669C646.724 514.527 640.779 550.449 636.411 586.457C634.22 604.511 632.427 622.612 630.699 640.715C629.596 652.285 635.48 647.419 642.427 643.884C654.4 637.791 666.293 631.365 679.723 629.167C686.244 628.097 692.885 628.045 699.493 628.14C739.681 628.715 780.015 634.692 817.759 648.503C820.003 649.325 822.281 650.2 824.113 651.732C826.559 653.779 829.871 658.435 833.403 656.003C835.6 654.489 836.131 649.332 836.532 647.009C838.144 637.691 837.829 627.939 837.516 618.525" fill="#3B455A"/>
<path d="M710.975 272.533C707.607 279.325 706.208 287.019 706.264 294.625C706.277 296.649 706.26 298.987 704.717 300.261C703.064 301.627 704.715 304.345 703.323 302.708C701.929 301.069 697.193 295.377 696.885 293.233C696.163 288.215 695.912 283.124 696.137 278.056C696.333 273.651 696.983 269.021 699.636 265.531C701.209 263.46 703.371 261.949 705.501 260.484C708.591 258.357 711.777 256.209 715.404 255.324C721.657 253.796 725.645 255.896 720.301 260.665C716.473 264.081 713.283 267.881 710.975 272.533" fill="#3B455A"/>
<path d="M754.564 356.611C745.921 357.891 737.279 359.171 728.636 360.451C726.928 352.892 725.761 345.183 725.148 337.423C717.517 336.5 708.496 334.477 705.501 326.556C704.559 324.06 704.391 321.301 704.235 318.603C703.588 307.444 702.943 296.284 702.297 285.124C702.075 281.265 701.864 277.287 702.983 273.636C704.945 267.229 710.552 263.179 716.117 260.524C730.317 253.747 747.237 253.101 761.06 260.957C764.739 263.051 768.251 265.803 770.504 269.672C773.979 275.639 773.964 283.231 773.831 290.333C773.708 296.888 773.585 303.444 773.463 309.999C773.321 317.537 772.649 326.243 767.113 330.509C764.175 332.777 760.259 333.369 757.772 336.232C753.387 341.283 755.933 349.724 754.564 356.611" fill="#C98B6B"/>
<path d="M730.901 325.647C734.296 327.719 737.733 327.567 741.317 326.263C743.159 325.592 744.112 328.737 742.273 329.407C737.949 330.981 733.599 331.064 729.521 328.576C727.824 327.54 729.195 324.605 730.901 325.647ZM702.595 325.203C704.301 332.08 707.943 338.543 713.7 342.155C720.228 346.248 728.155 346.149 735.647 345.937C739.745 345.821 743.843 345.704 747.941 345.588C758.308 345.295 768.543 343.393 773.311 332.024C775.509 326.78 775.989 320.793 775.335 315.047C775.155 313.468 774.875 311.849 774.068 310.521C773.263 309.193 771.811 308.22 770.385 308.5C768.563 308.856 767.563 310.924 766.46 312.548C764.053 316.091 759.593 318.231 755.821 316.601C754.704 316.119 753.72 315.352 752.739 314.579C752.337 314.263 751.937 313.944 751.528 313.643C747.473 310.66 742.633 309.447 737.837 309.063C733.676 308.731 727.512 307.501 724.625 311.243C722.947 313.419 721.268 315.596 719.588 317.772C718.896 318.667 718.187 319.58 717.265 320.18C716.316 320.797 715.199 321.041 714.093 321.119C711.315 321.316 708.128 320.173 707.039 317.355C706.564 316.125 706.555 314.757 706.437 313.432C706.321 312.108 706.052 310.709 705.201 309.753C701.947 306.103 701.365 312.215 701.347 314.289C701.315 317.96 701.713 321.652 702.595 325.203" fill="#3B455A"/>
<path d="M696.721 253.884C695.861 251.216 695.187 248.487 694.707 245.723C697.284 246.493 700.055 246.589 702.679 245.999C702.604 244.392 702.528 242.787 702.453 241.181C702.397 239.845 720.109 237.981 721.547 237.784C735 235.949 747.3 234.231 759.889 240.964C770.643 246.717 777.809 255.772 780.031 267.931C782.152 279.547 779.163 295.019 773.003 305.075C772.884 301.959 774.273 294.521 773.401 291.6C772.808 288.659 771.656 285.851 770.133 283.283C767.091 278.159 762.567 273.947 757.44 271.043C749.265 266.409 739.924 264.223 730.664 263.403C722.179 262.651 711.857 262.088 703.649 264.792C699.704 266.093 699.092 267.149 696.461 263.168C695.999 262.467 692.183 254.191 692.513 254.168C693.916 254.073 695.319 253.979 696.721 253.884" fill="#3B455A"/>
<path d="M684.341 762.953C684.341 770.824 680.552 777.204 675.876 777.204C671.201 777.204 667.411 770.824 667.411 762.953C667.411 755.084 671.201 748.704 675.876 748.704C680.552 748.704 684.341 755.084 684.341 762.953Z" fill="#B27864"/>
<path d="M755.385 762.953C755.385 770.824 751.595 777.204 746.92 777.204C742.245 777.204 738.455 770.824 738.455 762.953C738.455 755.084 742.245 748.704 746.92 748.704C751.595 748.704 755.385 755.084 755.385 762.953Z" fill="#B27864"/>
<path d="M588.097 965.61H552.127C544.329 965.61 538.008 959.297 538.008 951.511L507.093 846.717C507.093 838.929 513.415 832.616 521.212 832.616L599.987 856.365C607.784 856.365 614.105 862.677 614.105 870.465L602.216 951.511C602.216 959.297 595.895 965.61 588.097 965.61Z" fill="#D6B09D"/>
<path d="M836.305 965.61H872.276C880.073 965.61 886.393 959.297 886.393 951.511L917.308 846.717C917.308 838.929 910.988 832.616 903.191 832.616L824.415 856.365C816.617 856.365 810.296 862.677 810.296 870.465L822.187 951.511C822.187 959.297 828.507 965.61 836.305 965.61Z" fill="#D6B09D"/>
<path d="M730.92 512.833V550.372H696.163V512.836C551.013 520.332 475.735 621.872 475.735 737.989C475.735 858.657 582.204 956.477 713.541 956.477C844.879 956.477 951.348 858.657 951.348 737.989C951.348 621.868 876.205 520.325 730.92 512.833" fill="#EAC5B0"/>
<path d="M510.667 489.941C509.777 489.857 508.897 490.275 508.416 491.036C507.939 491.793 461.201 567.647 518.763 645.192C519.227 645.816 519.945 646.152 520.676 646.152C521.081 646.152 521.493 646.048 521.867 645.831L630.125 583.068C631.179 582.456 631.6 581.149 631.1 580.04C630.731 579.223 593.369 498.32 510.667 489.941Z" fill="#EAC5B0"/>
<path d="M907.664 491.036C907.183 490.275 906.291 489.861 905.413 489.941C822.708 498.32 785.347 579.223 784.977 580.04C784.479 581.149 784.899 582.456 785.953 583.068L894.211 645.832C894.584 646.048 894.996 646.152 895.401 646.152C896.133 646.152 896.851 645.816 897.316 645.192C954.877 567.647 908.141 491.793 907.664 491.036Z" fill="#EAC5B0"/>
<path d="M806.755 768.127C806.755 806.564 765.021 837.725 713.541 837.725C662.061 837.725 620.327 806.564 620.327 768.127C620.327 729.689 662.061 698.529 713.541 698.529C765.021 698.529 806.755 729.689 806.755 768.127Z" fill="#D6B09D"/>
<path d="M535.96 832.255C508.455 800.925 492.087 761.685 492.087 719.085C492.087 689.873 499.78 662.236 513.483 637.651C515.137 640.163 516.893 642.675 518.763 645.192C519.227 645.816 519.945 646.152 520.676 646.152C521.081 646.152 521.493 646.048 521.867 645.831L548.345 630.48C522.868 661.133 507.84 698.885 507.84 739.725C507.84 773.419 518.073 805.015 535.96 832.255V832.255ZM627.204 572.611C624.235 567.364 619.548 559.779 613.064 551.292C633.032 542.976 654.723 537.321 677.536 534.852V557.728C659.86 560.845 642.988 565.892 627.204 572.611" fill="#E6CCBE"/>
<path d="M520.676 646.152C519.945 646.152 519.227 645.816 518.763 645.192C516.893 642.675 515.137 640.163 513.483 637.651C534.527 599.893 569.747 569.331 613.064 551.292C619.548 559.779 624.235 567.364 627.204 572.611C595.804 585.976 568.727 605.959 548.345 630.48L521.867 645.831C521.493 646.048 521.081 646.152 520.676 646.152Z" fill="#E6CCBE"/>
<path d="M533.363 880.58C576.972 927.055 641.515 956.477 713.541 956.477C844.879 956.477 951.348 858.657 951.348 737.988C951.348 712.432 947.704 687.584 940.477 664.287C856.664 1019.05 533.363 880.58 533.363 880.58Z" fill="#D6B09D"/>
<path d="M805.664 757.455C763.251 826.991 688.281 822.888 650.187 819.16C666.816 830.673 689.072 837.724 713.541 837.724C765.023 837.724 806.755 806.564 806.755 768.127C806.755 764.499 806.38 760.935 805.664 757.455Z" fill="#C6A08F"/>
<path d="M497.433 578.193C496.055 523.021 516.864 501.323 516.864 501.323L533.363 504.308C504.275 519.981 497.433 578.193 497.433 578.193" fill="#E6CCBE"/>
<path d="M627.093 764.399C627.093 764.399 634.712 721.083 684.409 710.665C684.409 710.665 651.755 725.219 627.093 764.399Z" fill="#D6BBAE"/>
<path d="M827.487 962.512C829.904 964.445 832.967 965.61 836.305 965.61H872.276C880.073 965.61 886.393 959.297 886.393 951.511L897.365 914.319C870.444 945.485 844.033 957.716 827.487 962.512Z" fill="#C6A08F"/>
<path d="M686.393 764.399C686.393 772.296 682.591 778.697 677.9 778.697C673.209 778.697 669.407 772.296 669.407 764.399C669.407 756.503 673.209 750.103 677.9 750.103C682.591 750.103 686.393 756.503 686.393 764.399Z" fill="#C9A18D"/>
<path d="M757.676 764.399C757.676 772.296 753.873 778.697 749.183 778.697C744.492 778.697 740.689 772.296 740.689 764.399C740.689 756.503 744.492 750.103 749.183 750.103C753.873 750.103 757.676 756.503 757.676 764.399Z" fill="#C9A18D"/>
<path d="M723.791 509.099C724.632 509.18 725.508 509.265 726.296 508.96C727.089 508.653 727.681 507.992 728.315 507.423C732.117 504.009 737.952 503.724 742.783 505.389C746.769 506.763 751.416 509.457 754.341 512.541C757.335 515.695 757.411 521.777 757.868 526.065C757.989 527.195 758.081 528.379 757.647 529.428C757.365 530.108 756.881 530.679 756.405 531.24C755.667 532.111 754.927 532.981 754.188 533.851C750.189 538.557 742.696 536.885 737.129 536.96C734.689 536.993 731.699 536.692 730.713 534.459C729.917 532.655 730.761 530.091 729.184 528.907C728.461 528.365 727.481 528.364 726.579 528.385C717.016 528.611 707.455 528.837 697.892 529.061C697.728 523.765 694.816 509.373 699.741 507.503C701.319 506.904 708.408 508.369 710.376 508.385C714.856 508.423 719.333 508.66 723.791 509.099" fill="#C98B6B"/>
<path d="M626.191 480.521C619.591 492.589 611.661 506.068 609.256 519.796C607.823 527.984 613.148 535.807 619.792 540.075C628.135 545.435 637.121 543.999 646.619 543.607C652.4 543.367 713.661 540.067 713.659 537.363C713.648 525.703 713.639 514.041 713.628 502.381C698.163 499.341 682.556 497.068 666.879 495.571C678.599 478.056 745.075 374.16 714.149 362.376C684.703 351.155 637.748 459.388 626.191 480.521" fill="#3B455A"/>
</svg>
